<?xml version="1.0" encoding="UTF-8" standalone="no"?>
<!-- Created with Inkscape (http://www.inkscape.org/) -->

<svg
   width="32"
   height="32"
   viewBox="0 0 32 32"
   version="1.1"
   id="svg1"
   xml:space="preserve"
   inkscape:version="1.4.2 (f4327f4, 2025-05-13)"
   sodipodi:docname="dra.svg"
   xmlns:inkscape="http://www.inkscape.org/namespaces/inkscape"
   xmlns:sodipodi="http://sodipodi.sourceforge.net/DTD/sodipodi-0.dtd"
   xmlns="http://www.w3.org/2000/svg"
   xmlns:svg="http://www.w3.org/2000/svg"><sodipodi:namedview
     id="namedview1"
     pagecolor="#ffffff"
     bordercolor="#000000"
     borderopacity="0.25"
     inkscape:showpageshadow="2"
     inkscape:pageopacity="0.0"
     inkscape:pagecheckerboard="0"
     inkscape:deskcolor="#d1d1d1"
     inkscape:document-units="px"
     inkscape:zoom="12.078125"
     inkscape:cx="2.1112549"
     inkscape:cy="24.465718"
     inkscape:window-width="1920"
     inkscape:window-height="991"
     inkscape:window-x="-9"
     inkscape:window-y="-9"
     inkscape:window-maximized="1"
     inkscape:current-layer="layer1" /><defs
     id="defs1" /><g
     inkscape:label="Layer 1"
     inkscape:groupmode="layer"
     id="layer1"><path
       style="fill:#ffcc00;stroke-width:0.163425"
       d="m 11.999356,31.614004 c -0.04645,-0.170996 -0.179644,-0.574562 -0.295966,-0.896815 -0.163062,-0.451738 -0.21256,-0.665204 -0.216143,-0.932139 -0.0067,-0.49686 0.128755,-0.718597 0.759008,-1.242772 0.300523,-0.249941 0.535236,-0.489245 0.57677,-0.588055 l 0.07003,-0.166607 0.002,0.148247 c 0.0027,0.198223 -0.195959,0.585397 -0.484188,0.943683 -0.240031,0.298373 -0.337766,0.539504 -0.334631,0.825607 0.0021,0.189379 0.257329,0.888819 0.33397,0.915131 0.0753,0.02586 0.628792,-0.496083 0.720253,-0.679196 0.05956,-0.119259 0.07319,-0.334588 0.06281,-0.993079 -0.0092,-0.589431 0.0055,-0.872656 0.0495,-0.947337 0.05757,-0.09774 0.06287,-0.09206 0.06431,0.06885 8.61e-4,0.09647 0.09182,0.467983 0.202145,0.825609 0.274094,0.888535 0.277943,0.913992 0.187133,1.237406 -0.06312,0.224795 -0.141353,0.344281 -0.375211,0.573061 -0.162505,0.158973 -0.507386,0.498354 -0.766401,0.754176 l -0.47094,0.465127 z m 9.441328,-0.528979 c -0.153791,-0.133251 -0.443182,-0.350905 -0.643093,-0.483686 -0.454619,-0.301957 -0.620026,-0.460831 -0.789287,-0.758114 -0.169827,-0.298278 -0.175695,-0.739615 -0.016,-1.203373 0.06053,-0.175773 0.124964,-0.499359 0.143191,-0.719078 l 0.03314,-0.399487 0.09281,0.21306 c 0.07335,0.168374 0.09309,0.353821 0.09416,0.884198 0.0013,0.651552 0.0056,0.677223 0.147278,0.879702 0.169414,0.242134 0.691122,0.632711 0.791738,0.592738 0.08853,-0.03518 0.245621,-0.550055 0.245621,-0.805028 0,-0.272439 -0.101469,-0.490296 -0.387762,-0.832532 -0.287739,-0.343967 -0.56503,-0.772816 -0.616612,-0.953639 -0.03157,-0.110674 -0.0089,-0.09983 0.167513,0.0799 0.11222,0.114363 0.438663,0.387697 0.72543,0.607415 0.433838,0.332404 0.538806,0.441395 0.625096,0.649054 0.13102,0.315304 0.131457,0.653275 0.0014,1.132911 -0.05623,0.207481 -0.131682,0.590592 -0.167665,0.85136 -0.03598,0.260765 -0.08837,0.481489 -0.11641,0.490493 -0.02805,0.0091 -0.176815,-0.09265 -0.330606,-0.225892 z m -6.936842,-1.428353 c -0.18246,-0.170665 -0.713271,-1.080755 -0.661572,-1.134281 0.01307,-0.0136 0.126592,0.02248 0.252271,0.08005 0.331293,0.151731 0.60694,0.561655 0.678811,1.0095 0.04491,0.279876 -0.0086,0.288762 -0.26951,0.04473 z m 4.341724,-0.177895 c 0.05368,-0.419376 0.134633,-0.685369 0.260751,-0.856776 0.118772,-0.161421 0.400202,-0.380943 0.48901,-0.381438 0.05521,-2.98e-4 -0.105159,0.521284 -0.27341,0.889227 -0.135086,0.295416 -0.347736,0.548732 -0.460644,0.548732 -0.0227,0 -0.02977,-0.08988 -0.0157,-0.199745 z m -8.155572,-0.772344 c 0.09178,-0.182682 0.408136,-0.46981 0.637949,-0.579007 0.202949,-0.09643 0.745986,-0.139525 0.745986,-0.05919 0,0.06656 -0.789757,0.598692 -1.00806,0.67923 -0.110524,0.04079 -0.253857,0.07519 -0.318519,0.07648 -0.105622,0.002 -0.111449,-0.0098 -0.05736,-0.117508 z m 4.221157,-0.301665 c -0.336042,-0.120144 -0.498123,-0.240434 -0.71115,-0.527778 -0.216661,-0.292247 -0.29894,-0.697804 -0.225275,-1.110379 0.0571,-0.319807 0.380494,-1.094112 0.499762,-1.196593 0.0377,-0.03238 0.01259,0.04583 -0.05579,0.173846 -0.317472,0.594268 -0.377334,1.420587 -0.132611,1.830548 0.301459,0.505006 1.137495,0.737487 1.364154,0.379338 0.111571,-0.176295 0.02573,-0.405831 -0.151781,-0.405831 -0.133787,0 -0.337684,0.182956 -0.337684,0.303001 0,0.03842 -0.02315,0.06986 -0.05145,0.06986 -0.02829,0 -0.05145,-0.07375 -0.05145,-0.163887 0,-0.339613 0.424034,-0.58616 0.723113,-0.420442 0.1314,0.07281 0.254387,0.327384 0.254387,0.526571 0,0.214377 -0.261256,0.518487 -0.505844,0.588824 -0.249843,0.07184 -0.295513,0.06837 -0.618378,-0.04706 z m 2.809769,-0.03473 c -0.175491,-0.09859 -0.296469,-0.333504 -0.296469,-0.5757 0,-0.25426 0.212274,-0.512748 0.421076,-0.512748 0.209757,0 0.436186,0.14765 0.510223,0.332702 0.09108,0.227653 -0.01057,0.290705 -0.151193,0.09377 -0.17745,-0.248494 -0.471422,-0.194629 -0.471422,0.08638 0,0.417634 0.720596,0.375071 1.152579,-0.06808 0.434314,-0.445535 0.405492,-1.217844 -0.07412,-1.986113 -0.110886,-0.177624 -0.191711,-0.322953 -0.179609,-0.322953 0.05983,0 0.519799,0.738068 0.624991,1.002856 0.239295,0.602346 0.126844,1.224045 -0.297374,1.644065 -0.351255,0.347779 -0.915844,0.487165 -1.238683,0.305804 z m -3.630128,-0.02574 c -0.4207,-0.174787 -0.7291,-0.657341 -0.745857,-1.167045 -0.0058,-0.176448 -0.01587,-0.321029 -0.02236,-0.321295 -0.0065,-2.66e-4 -0.05748,0.09219 -0.113297,0.205464 -0.317614,0.644569 -0.959774,0.960137 -1.47054,0.722644 l -0.205003,-0.09532 0.334407,-0.03447 c 0.777721,-0.08019 1.133047,-0.536637 1.173651,-1.507653 0.02466,-0.589776 -0.02356,-0.903814 -0.27964,-1.821224 -0.224855,-0.805536 -0.266284,-1.237928 -0.156182,-1.630048 0.118907,-0.423477 0.338142,-0.695026 0.676973,-0.838513 0.02829,-0.0119 -0.04319,0.05049 -0.158843,0.138828 -0.493419,0.376871 -0.562271,0.991178 -0.222314,1.983504 0.385514,1.125304 0.467478,1.447824 0.495778,1.950834 l 0.02735,0.486044 0.180853,-0.379515 c 0.154191,-0.323568 0.307259,-0.509081 1.038299,-1.258388 0.970672,-0.994929 1.098779,-1.19555 1.104731,-1.73007 0.0026,-0.230442 -0.02383,-0.368668 -0.09052,-0.474062 -0.05178,-0.08182 -0.08337,-0.159925 -0.0702,-0.173563 0.01317,-0.0136 0.0729,0.0799 0.13273,0.207866 0.074,0.158258 0.108783,0.335705 0.108783,0.554906 0,0.490298 -0.229718,0.916213 -0.889638,1.649448 -0.647031,0.718916 -0.86078,1.014195 -1.071258,1.479867 -0.370058,0.818733 -0.193732,1.635846 0.414251,1.919696 0.114959,0.05367 0.209015,0.117916 0.209015,0.142755 0,0.05882 -0.249887,0.05216 -0.401161,-0.01072 z m 4.877217,-0.136907 c 7.8e-5,-0.02581 0.08612,-0.09487 0.191203,-0.153448 0.112309,-0.06261 0.25539,-0.214683 0.34713,-0.368919 0.13256,-0.222868 0.155972,-0.315132 0.15543,-0.612548 -0.0013,-0.739164 -0.426775,-1.361814 -1.57492,-2.305029 -0.572569,-0.470374 -0.901586,-0.844527 -1.029447,-1.17067 -0.113171,-0.288672 -0.121996,-0.795907 -0.01749,-1.005144 0.107793,-0.215812 0.138524,-0.197978 0.0475,0.02757 -0.120958,0.299721 -0.09368,0.588809 0.08905,0.943758 0.191187,0.371376 0.367906,0.537784 1.142742,1.076057 0.570103,0.396049 1.124954,0.917903 1.32671,1.24781 0.135098,0.220914 0.162357,0.1919 0.09671,-0.102939 -0.10417,-0.467807 -0.05977,-0.95665 0.202606,-2.230456 0.191167,-0.928115 0.06926,-1.536608 -0.374537,-1.86945 -0.113674,-0.08526 -0.18353,-0.155012 -0.155233,-0.155012 0.02829,0 0.149541,0.07357 0.269434,0.163496 0.434498,0.325869 0.601801,1.032895 0.467641,1.97626 -0.223751,1.573338 -0.131784,2.395818 0.331281,2.962713 0.274441,0.335976 0.780055,0.4846 1.22117,0.358959 0.107104,-0.0305 0.104115,-0.0213 -0.0318,0.09785 -0.40341,0.353714 -1.177288,0.165213 -1.558494,-0.379623 l -0.143596,-0.20523 v 0.455678 c 0,0.387899 -0.01913,0.490622 -0.128618,0.690609 -0.07074,0.129206 -0.211429,0.303823 -0.312641,0.388024 -0.178613,0.148602 -0.562105,0.26441 -0.561825,0.169666 z m 3.283554,-0.178966 c -0.129174,-0.04038 -0.862829,-0.411054 -0.915625,-0.462622 -0.01333,-0.01309 0.0098,-0.04597 0.05145,-0.07323 0.128795,-0.08432 0.627538,-0.05552 0.847392,0.04894 0.235152,0.111728 0.609517,0.449534 0.557676,0.503206 -0.04584,0.04744 -0.367986,0.03774 -0.54089,-0.01631 z M 10.855167,27.415599 c -0.204909,-0.107695 -0.291633,-0.193036 -0.372993,-0.367041 -0.127867,-0.273469 -0.129422,-0.312325 -0.0219,-0.54692 0.161368,-0.352072 0.545618,-0.44054 0.794454,-0.182911 0.159418,0.165042 0.197696,0.398959 0.09713,0.593515 -0.07672,0.148416 -0.160422,0.127487 -0.122117,-0.03052 0.08345,-0.344225 -0.35312,-0.553848 -0.464795,-0.223178 -0.05839,0.172893 -0.01403,0.27025 0.197756,0.433952 0.116011,0.08967 0.21801,0.109213 0.570373,0.109213 0.394908,0 0.446872,-0.01292 0.652181,-0.162034 0.32454,-0.235731 0.55787,-0.731384 0.603883,-1.282811 0.02805,-0.336255 0.04253,-0.387527 0.07297,-0.258557 0.0626,0.265232 -0.05356,0.92485 -0.227989,1.294684 -0.131252,0.278292 -0.209396,0.370407 -0.448637,0.528857 -0.252999,0.167557 -0.338707,0.194541 -0.676512,0.212977 -0.339466,0.01853 -0.41949,0.0039 -0.653797,-0.119209 z m 6.541009,-0.315458 c -0.365575,-0.164855 -0.557924,-0.603009 -0.41749,-0.950991 0.157723,-0.390822 0.650722,-0.521183 0.888528,-0.23495 0.137553,0.16557 0.159948,0.363968 0.05159,0.457072 -0.05747,0.04936 -0.08227,0.02968 -0.125942,-0.100015 -0.06271,-0.186258 -0.204243,-0.213358 -0.334717,-0.06409 -0.121266,0.138726 -0.105517,0.259172 0.04747,0.362947 0.269921,0.18311 0.617356,-0.119906 0.60869,-0.530873 -0.008,-0.378538 -0.182871,-0.683327 -0.731145,-1.274212 -0.553781,-0.596818 -0.756773,-0.937318 -0.810971,-1.360323 -0.06774,-0.528692 0.173218,-1.072764 0.561075,-1.26688 0.141642,-0.07089 0.149326,-0.07103 0.05968,-0.0011 -0.463844,0.361656 -0.595891,0.805495 -0.408786,1.374021 0.105129,0.319435 0.33542,0.590263 0.894244,1.051647 0.534771,0.441525 0.799222,0.794797 0.902615,1.205773 0.137351,0.54596 -0.06818,1.077225 -0.500593,1.293949 -0.256983,0.128796 -0.45821,0.14 -0.684241,0.03806 z m -2.287657,-0.07604 c -0.237609,-0.129494 -0.490005,-0.521626 -0.52995,-0.823353 -0.06917,-0.522476 0.155093,-1.008289 0.796167,-1.724709 0.465262,-0.519943 0.712154,-0.978685 0.711757,-1.322486 -5.62e-4,-0.491928 -0.212564,-0.867958 -0.589189,-1.045077 -0.114354,-0.05378 -0.177829,-0.09832 -0.141053,-0.09895 0.111773,-0.002 0.38659,0.161149 0.562211,0.333674 0.368105,0.361616 0.424702,1.115568 0.128803,1.715859 -0.08664,0.175775 -0.298571,0.511345 -0.47095,0.74571 -0.560469,0.762013 -0.663962,1.327559 -0.306102,1.672734 0.06367,0.06141 0.180835,0.111643 0.260387,0.111643 0.140826,0 0.350431,-0.159297 0.350431,-0.266326 0,-0.07878 -0.194813,-0.266324 -0.276661,-0.266324 -0.09511,0 -0.172635,0.104929 -0.194297,0.262973 -0.01697,0.123814 -0.02196,0.125481 -0.107825,0.03614 -0.188719,-0.196335 -0.0632,-0.513613 0.244841,-0.618866 0.151763,-0.05186 0.210096,-0.04619 0.369513,0.03587 0.400063,0.205946 0.512613,0.62889 0.266844,1.002769 -0.223089,0.339377 -0.704275,0.450713 -1.074927,0.24871 z m 6.241136,-0.194463 c -0.457852,-0.11003 -0.811807,-0.467159 -0.993517,-1.002421 -0.102616,-0.302278 -0.232401,-1.038445 -0.190688,-1.08163 0.0129,-0.01343 0.03876,0.07839 0.05745,0.203876 0.05306,0.356047 0.226668,0.846656 0.381892,1.079215 0.180055,0.26976 0.557372,0.512192 0.850376,0.546385 0.280838,0.03278 0.67637,-0.09497 0.870223,-0.28109 0.226725,-0.217658 0.171511,-0.557067 -0.09062,-0.557067 -0.159471,0 -0.231513,0.10277 -0.231513,0.330244 0,0.111321 -0.02234,0.202406 -0.04964,0.202406 -0.08085,0 -0.156153,-0.192138 -0.156153,-0.398406 0,-0.558391 0.760427,-0.623555 0.976422,-0.08368 0.25471,0.636648 -0.577547,1.245634 -1.42424,1.042159 z M 3.9042903,26.469304 c 0.00992,-0.03662 0.093107,-0.31826 0.1848644,-0.625866 0.091757,-0.307605 0.2151661,-0.724797 0.274241,-0.927093 0.085488,-0.292746 0.1575389,-0.419713 0.3530386,-0.62212 0.2880042,-0.298179 0.4287738,-0.345341 1.1838147,-0.396606 0.2971083,-0.02017 0.6182662,-0.07 0.7136839,-0.110726 0.2349124,-0.100271 0.2486936,-0.09433 0.1171804,0.05062 -0.1390287,0.153209 -0.4810467,0.315742 -0.9694666,0.460681 -0.3018629,0.08958 -0.4019613,0.148347 -0.5428071,0.318711 -0.1682003,0.203447 -0.3239272,0.610768 -0.3569261,0.933582 l -0.016335,0.159789 0.3601313,-0.01631 c 0.6427196,-0.02917 0.7987076,-0.137042 1.1849278,-0.819408 0.2314639,-0.408944 0.4642519,-0.719147 0.5933602,-0.790684 0.08588,-0.04759 0.082891,-0.02585 -0.027827,0.202383 -0.068225,0.140629 -0.1740974,0.444579 -0.2352709,0.675436 -0.1652849,0.623755 -0.2715461,0.842793 -0.5124152,1.056253 -0.2305976,0.204357 -0.7133823,0.358182 -1.1241614,0.358182 -0.1121831,0 -0.3854285,0.03595 -0.6072119,0.07988 -0.4908937,0.09726 -0.5962144,0.09971 -0.572821,0.01326 z M 7.166808,26.311214 C 7.068787,26.078101 7.060812,25.713468 7.142531,25.20116 c 0.066991,-0.419976 0.1301466,-0.424771 0.2790189,-0.02119 0.1086954,0.294671 0.080801,0.758559 -0.065519,1.089576 l -0.1059522,0.239695 z m 4.107136,-0.16659 c -0.18733,-0.08836 -0.422246,-0.364218 -0.466847,-0.548199 -0.131585,-0.542797 0.305488,-1.033033 0.777278,-0.871826 0.331051,0.113122 0.474754,0.432269 0.30657,0.680869 -0.117562,0.173774 -0.219527,0.150813 -0.210457,-0.0474 0.0099,-0.215706 -0.112476,-0.305746 -0.297103,-0.218653 -0.169069,0.07975 -0.17156,0.24242 -0.0064,0.413485 0.146932,0.152122 0.233335,0.161268 0.462025,0.04891 0.374449,-0.183967 0.51371,-0.777457 0.369225,-1.573539 -0.115898,-0.638584 -0.108114,-1.200512 0.0216,-1.559464 0.184402,-0.51027 0.693295,-0.89773 1.155931,-0.8801 0.104837,0.0039 0.121338,0.01377 0.05145,0.03038 -0.556729,0.132538 -0.731676,0.258456 -0.934296,0.672438 -0.185788,0.379585 -0.176708,0.842815 0.03098,1.580991 0.214462,0.762237 0.219497,1.303773 0.01585,1.704494 -0.190323,0.374498 -0.476002,0.584227 -0.840064,0.616726 -0.176923,0.01582 -0.336287,-0.0022 -0.435808,-0.04911 z M 8.5343772,25.754398 C 7.950712,25.456586 7.6857982,24.529741 8.0013209,23.889414 8.1385881,23.61084 8.5695837,23.211708 8.9449841,23.01551 c 0.3816233,-0.199449 0.450933,-0.198775 0.1192758,0.0011 -0.3464513,0.208853 -0.7081733,0.581664 -0.8419394,0.867752 -0.2093851,0.447813 -0.1181645,0.978517 0.2323797,1.351944 0.1764267,0.187944 0.2550956,0.234218 0.3981762,0.234218 0.2764544,0 0.4415164,-0.246447 0.2782649,-0.415465 -0.079353,-0.08217 -0.362544,-0.08273 -0.4415895,-8.83e-4 -0.087356,0.09045 -0.1322911,0.01853 -0.067158,-0.107462 0.030372,-0.05875 0.1377894,-0.135036 0.2387067,-0.169512 0.2346596,-0.08017 0.4598879,0.007 0.5657163,0.218814 0.268975,0.538517 -0.3284085,1.046138 -0.8924402,0.758343 z M 21.038233,25.497531 c -0.686061,-0.308702 -0.890219,-0.883025 -0.748023,-2.104283 0.121475,-1.043286 0.04012,-1.423114 -0.391265,-1.826608 -0.24668,-0.230735 -0.376763,-0.271758 -0.757973,-0.239027 -0.216715,0.0186 -0.262459,0.01105 -0.190552,-0.03167 0.16626,-0.09866 0.640586,-0.06491 0.876252,0.06234 0.264838,0.143011 0.571008,0.513062 0.703479,0.850281 0.08251,0.210024 0.100672,0.400494 0.107916,1.131411 0.0077,0.781568 0.02136,0.908144 0.122998,1.143252 0.146877,0.339769 0.23959,0.442513 0.454832,0.504045 0.334097,0.09551 0.578285,-0.09401 0.521402,-0.404672 -0.02403,-0.13128 -0.308968,-0.161285 -0.404138,-0.04255 -0.05687,0.07094 -0.05766,0.1069 -0.0043,0.195425 0.109603,0.181706 -0.01529,0.239004 -0.170547,0.07825 -0.317955,-0.329187 -0.0412,-0.781299 0.478271,-0.781299 0.252311,0 0.488046,0.188054 0.574086,0.457967 0.214449,0.672746 -0.517792,1.301723 -1.172484,1.007135 z m 4.903533,-0.148246 c -0.155777,-0.246145 -0.285791,-0.673099 -0.283585,-0.931265 0.0022,-0.253847 0.161071,-0.659785 0.219775,-0.561444 0.09778,0.163801 0.290769,1.117693 0.260961,1.289874 -0.05482,0.316652 -0.0974,0.360455 -0.197151,0.202835 z M 7.6052728,24.929047 C 7.3979535,24.709504 7.323786,24.464545 7.3522493,24.093364 c 0.022892,-0.29853 0.1161753,-0.56766 0.2734081,-0.788802 0.081629,-0.114806 0.080668,-0.114755 -0.2172023,0.01207 -0.62943,0.267958 -1.2824676,0.100713 -1.5282666,-0.391411 -0.1055034,-0.21123 -0.077478,-0.213864 0.1645575,-0.01547 0.7010498,0.574674 1.64843,0.116268 2.2123064,-1.070463 0.1158933,-0.243909 0.3031335,-0.713442 0.4160891,-1.04341 0.1129558,-0.329967 0.2694486,-0.721823 0.3477616,-0.870792 0.2812325,-0.534975 0.6860403,-0.845124 1.1474069,-0.879107 l 0.23358,-0.0172 -0.223962,0.04979 C 9.8522917,19.150969 9.5497835,19.354 9.3601336,19.627411 9.194623,19.866024 9.0611338,20.247428 8.8064507,21.209383 8.644249,21.82203 8.4522948,22.27757 8.2283444,22.581328 8.018606,22.865806 8.0185884,22.8964 8.2282407,22.762491 c 0.3770679,-0.240845 1.0851338,-0.44064 1.8135183,-0.511723 0.198073,-0.01933 0.496037,-0.05938 0.662144,-0.08901 0.790771,-0.141055 1.30343,-0.606321 1.326287,-1.203665 0.0067,-0.17499 0.01064,-0.18103 0.02998,-0.04598 0.0361,0.25198 -0.08835,0.600956 -0.305306,0.856136 -0.291757,0.343164 -0.694019,0.520488 -1.624199,0.715975 -1.1701094,0.245912 -1.6961005,0.47746 -2.1484339,0.945776 -0.3866087,0.400268 -0.4831382,1.010711 -0.2284018,1.444391 0.1685947,0.287025 0.096068,0.313719 -0.1485552,0.05467 z m 16.5073312,0.131194 c -0.1557,-0.05865 -0.359682,-0.305356 -0.389767,-0.471392 -0.06958,-0.384018 0.305491,-0.702882 0.651995,-0.554283 0.08431,0.03616 0.176172,0.11001 0.204149,0.164141 0.04696,0.09086 0.03303,0.09587 -0.181315,0.06545 -0.350344,-0.04971 -0.517878,0.162679 -0.293873,0.372561 0.212337,0.198952 0.54633,0.02186 0.747653,-0.39641 0.383471,-0.796715 -0.05113,-1.553919 -1.147608,-1.999453 -0.143315,-0.05823 -0.151818,-0.06804 -0.0393,-0.04531 0.30723,0.06204 0.715888,0.255628 1.005339,0.476238 0.54142,0.412653 0.712692,1.027712 0.471801,1.694299 -0.185487,0.513271 -0.659856,0.833262 -1.029072,0.694165 z m 4.064339,-0.01291 c -0.752711,-0.02398 -0.984865,-0.049 -1.109984,-0.119652 -0.275086,-0.155317 -0.5155,-0.483523 -0.640589,-0.874513 -0.171942,-0.537443 -0.300309,-0.830879 -0.422648,-0.966138 -0.06646,-0.07348 -0.08311,-0.119854 -0.04306,-0.119854 0.14393,0 0.39082,0.251708 0.648786,0.661445 0.149477,0.237419 0.315285,0.472437 0.368461,0.522262 0.194484,0.182223 0.473729,0.260115 0.894847,0.249606 0.463256,-0.01156 0.463781,-0.01224 0.322977,-0.451739 -0.171765,-0.536065 -0.383269,-0.713827 -1.043831,-0.877309 -0.430189,-0.106476 -0.797793,-0.258901 -0.955682,-0.396289 l -0.102894,-0.08954 0.102894,0.03852 c 0.05659,0.02119 0.473316,0.05389 0.926053,0.07268 0.896656,0.03719 1.005597,0.06909 1.299715,0.380544 0.08889,0.09413 0.226391,0.328844 0.305557,0.521585 0.07917,0.19274 0.253906,0.586366 0.388312,0.874724 0.134406,0.28836 0.244374,0.546747 0.244374,0.574193 0,0.02744 -0.05209,0.04537 -0.115756,0.03983 -0.06367,-0.0056 -0.544055,-0.02372 -1.067532,-0.04039 z M 9.5787335,24.845637 C 9.1060974,24.723114 8.8362263,23.978192 9.0754155,23.456329 9.1906377,23.204938 9.4941895,22.893831 9.762562,22.75208 c 0.1176019,-0.06213 0.511845,-0.18251 0.876096,-0.267542 0.804931,-0.187907 0.950445,-0.248264 1.231841,-0.510953 0.455279,-0.425013 0.541025,-1.041003 0.206344,-1.482361 -0.07597,-0.100186 -0.07503,-0.101546 0.01811,-0.02664 0.250961,0.20187 0.351109,0.733973 0.213383,1.133735 -0.200838,0.582949 -0.622987,0.920847 -1.52969,1.224395 -0.869369,0.291051 -1.215081,0.56856 -1.2631202,1.013938 -0.018643,0.172842 8.994e-4,0.255046 0.087657,0.368883 0.1817607,0.238469 0.5157562,0.178105 0.5157562,-0.09321 0,-0.241376 -0.2472971,-0.321807 -0.3811426,-0.12397 -0.069173,0.102243 -0.082143,0.105337 -0.1113602,0.02652 -0.05487,-0.148042 0.018982,-0.333251 0.159283,-0.399435 0.2268748,-0.10702 0.3833298,-0.07443 0.5698778,0.118698 0.151956,0.157325 0.174921,0.215823 0.174921,0.445571 0,0.498149 -0.432271,0.800594 -0.9517759,0.665922 z M 14.37749,24.215724 c -0.155627,-0.08744 -0.267446,-0.263516 -0.218947,-0.344763 0.01941,-0.03252 0.07402,-0.02188 0.142446,0.02773 0.161787,0.117322 0.456336,0.09972 0.659243,-0.03937 0.220064,-0.150863 0.509221,-0.720355 0.509221,-1.002898 0,-0.219947 -0.202906,-0.52847 -0.347556,-0.52847 -0.04465,0 -0.06483,-0.017 -0.04485,-0.03761 0.06243,-0.06464 0.369395,0.142703 0.468533,0.316466 0.193295,0.338782 0.06718,1.066413 -0.245852,1.418514 -0.231172,0.260018 -0.64594,0.345651 -0.922245,0.190409 z m 3.458539,-0.02992 c -0.316055,-0.130106 -0.642998,-0.635938 -0.70275,-1.087278 -0.04115,-0.310797 0.08415,-0.611438 0.307866,-0.738676 0.160149,-0.09109 0.161238,-0.09097 0.05517,0.0065 -0.244282,0.224183 -0.280388,0.445615 -0.128948,0.790817 0.14117,0.321794 0.393359,0.590821 0.648355,0.691647 0.219632,0.08684 0.233372,0.08597 0.463314,-0.02928 0.130333,-0.06532 0.249044,-0.10627 0.263801,-0.09099 0.05568,0.05765 -0.142904,0.358714 -0.287755,0.436267 -0.17021,0.09112 -0.427616,0.0999 -0.619052,0.0211 z m 4.985887,-0.06174 c -0.295962,-0.206495 -0.382669,-0.525678 -0.227302,-0.836737 0.159904,-0.320146 0.467183,-0.410478 0.713618,-0.209783 0.157077,0.127929 0.192488,0.351896 0.04552,0.287942 -0.218479,-0.09508 -0.312696,-0.08886 -0.371289,0.02448 -0.134881,0.260931 0.131988,0.472213 0.382121,0.302529 0.191666,-0.130022 0.220203,-0.401975 0.07147,-0.681124 -0.170241,-0.319516 -0.527594,-0.497811 -1.276102,-0.636687 -0.771337,-0.143112 -1.100058,-0.275721 -1.397484,-0.563757 -0.438333,-0.424497 -0.568906,-0.953616 -0.355462,-1.440454 0.05458,-0.124513 0.112551,-0.226377 0.128809,-0.226377 0.01626,0 -0.01012,0.0779 -0.05861,0.173111 -0.215811,0.423715 -0.0391,1.034049 0.388149,1.340592 0.317529,0.227823 0.580299,0.297894 1.323236,0.352865 0.807126,0.05973 1.166708,0.177394 1.492686,0.488486 0.277582,0.264907 0.40181,0.585761 0.367971,0.950384 -0.05985,0.644912 -0.736659,1.016873 -1.227336,0.674524 z m 2.553773,-0.116539 c 0.10702,-0.265185 0.09518,-0.736432 -0.02462,-0.979552 -0.130945,-0.265742 -0.468682,-0.575975 -0.794985,-0.730245 -0.434156,-0.205261 -0.838624,-0.288563 -1.678212,-0.345632 -0.909628,-0.06184 -1.189645,-0.110827 -1.54947,-0.271082 -0.302604,-0.134782 -0.619841,-0.486095 -0.705157,-0.780915 -0.09552,-0.330077 -0.06718,-0.386594 0.03711,-0.074 0.116771,0.350026 0.299617,0.552595 0.641565,0.710769 0.243771,0.112765 0.358875,0.12453 1.498786,0.153294 1.141226,0.02878 1.262824,0.04124 1.605626,0.164567 l 0.370889,0.133422 -0.216555,-0.242887 C 24.200441,21.341235 23.974861,20.952651 23.649443,20.175596 23.4788,19.76812 23.292002,19.355693 23.234336,19.259092 c -0.173667,-0.290928 -0.599079,-0.652494 -0.810378,-0.688759 -0.279837,-0.04803 -0.366552,-0.08823 -0.251479,-0.116608 0.05062,-0.01241 0.224255,0.01998 0.385855,0.07213 0.403444,0.130208 0.787077,0.531549 1.114069,1.165517 0.531457,1.030372 0.677612,1.26728 1.017253,1.648904 0.4442,0.499102 0.798058,0.695182 1.249337,0.692276 0.346618,-0.0022 0.584134,-0.107341 0.811167,-0.358964 0.187149,-0.207422 0.226643,-0.157256 0.09174,0.116523 -0.203075,0.412127 -0.753607,0.653349 -1.252368,0.548741 -0.147345,-0.03091 -0.313687,-0.07462 -0.369648,-0.09714 -0.06353,-0.02557 -0.02748,0.03592 0.09598,0.163751 0.26584,0.275232 0.389111,0.573361 0.390495,0.944409 0.0012,0.344139 -0.06037,0.549369 -0.217055,0.722546 -0.156039,0.172459 -0.199387,0.147702 -0.113598,-0.06488 z m -12.054315,0.04242 c -0.06375,-0.01377 -0.194571,-0.101749 -0.290714,-0.195626 -0.317547,-0.310064 -0.367927,-0.890585 -0.121659,-1.40186 0.151013,-0.313517 0.321684,-0.446031 0.609907,-0.473552 0.207566,-0.01983 0.212415,-0.01772 0.0565,0.02451 -0.375875,0.1018 -0.557532,0.469062 -0.508968,1.028976 0.0435,0.501491 0.281565,0.786998 0.65623,0.786998 0.08355,0 0.15192,0.02103 0.15192,0.04674 0,0.131603 -0.312799,0.235522 -0.55321,0.183804 z m 5.73653,-0.394607 c -0.121841,-0.07348 -0.113707,-0.155523 0.01542,-0.155523 0.176377,0 0.40254,-0.152104 0.491755,-0.330721 0.05114,-0.102394 0.08441,-0.296442 0.08431,-0.491799 -2.74e-4,-0.516923 -0.205389,-0.895982 -0.523793,-0.967967 -0.242745,-0.05487 -0.237127,-0.07432 0.01536,-0.05319 0.319049,0.02671 0.485049,0.155981 0.664136,0.517218 0.199954,0.403321 0.232792,0.762235 0.0985,1.07656 -0.161772,0.378631 -0.567532,0.573157 -0.84568,0.405427 z m -4.586211,-0.149283 c -0.08478,-0.09699 -0.08032,-0.09942 0.136172,-0.07415 0.206233,0.02407 0.236564,0.01105 0.385829,-0.164906 0.189873,-0.223895 0.256183,-0.500075 0.163361,-0.680396 -0.05738,-0.111456 -0.05563,-0.117815 0.01563,-0.05697 0.209484,0.17884 0.119402,0.748979 -0.153446,0.971185 -0.164927,0.134306 -0.432492,0.136873 -0.547548,0.0053 z m 3.328249,-0.05736 c -0.09059,-0.05719 -0.200557,-0.175753 -0.244375,-0.263481 -0.102367,-0.204952 -0.102198,-0.541441 3.37e-4,-0.67395 0.07614,-0.0984 0.07716,-0.09733 0.02101,0.02208 -0.187909,0.399598 0.322118,0.99294 0.700205,0.814586 0.156607,-0.07388 0.163885,0.01105 0.01048,0.122234 -0.152063,0.110267 -0.28851,0.104265 -0.487667,-0.02145 z M 4.8543241,23.370173 C 4.7176539,23.332141 4.5689488,23.26283 4.5238682,23.216164 c -0.074988,-0.07765 -0.069164,-0.08991 0.068426,-0.144234 0.2575574,-0.101698 0.6249943,-0.122746 0.875441,-0.05014 0.2335621,0.0677 0.5354089,0.279793 0.5354089,0.376201 0,0.07254 -0.8633111,0.05165 -1.1488196,-0.0278 z m 8.5726189,-0.05699 C 13.283456,23.209122 13.18704,22.900765 13.227749,22.6761 c 0.03716,-0.205043 0.19376,-0.430596 0.355004,-0.511293 l 0.111766,-0.05594 -0.108203,0.09844 c -0.16091,0.146375 -0.226204,0.302006 -0.226204,0.539179 0,0.262956 0.201949,0.540239 0.393464,0.540239 0.07162,0 0.113205,0.02324 0.09528,0.05326 -0.0477,0.07992 -0.296561,0.06411 -0.421917,-0.02679 z m 5.515204,-0.292792 c 0.01749,-0.0293 0.06157,-0.05326 0.09796,-0.05326 0.108361,0 0.238821,-0.18691 0.270201,-0.387116 0.04071,-0.259698 -0.06474,-0.556583 -0.230846,-0.64998 -0.07931,-0.0446 -0.104117,-0.0781 -0.05873,-0.07935 0.126607,-0.0034 0.287492,0.140085 0.377733,0.336981 0.142026,0.309871 0.09312,0.650318 -0.117453,0.817706 -0.09878,0.07853 -0.384328,0.09117 -0.338866,0.01496 z M 6.1317621,22.796087 C 5.8878218,22.70742 5.5111362,22.387693 5.3919571,22.168152 5.2243992,21.85949 5.2436577,21.525664 5.4425531,21.291134 c 0.1364481,-0.160894 0.191957,-0.188282 0.3816472,-0.188282 0.2971398,0 0.3740127,0.0371 0.4683602,0.225985 0.1057817,0.211787 0.054318,0.483448 -0.1182018,0.623947 -0.2003769,0.163189 -0.3081248,0.143775 -0.1749486,-0.0315 0.1818293,-0.239325 0.1279965,-0.498836 -0.1034789,-0.498836 -0.2131817,0 -0.3350985,0.204945 -0.2580472,0.433784 0.09596,0.284998 0.2993787,0.50984 0.5982034,0.661207 0.2388148,0.120977 0.327778,0.13927 0.5465465,0.112443 0.4752824,-0.05829 0.9035793,-0.357561 1.346808,-0.941113 0.1220912,-0.160742 0.129175,-0.164413 0.051419,-0.02664 -0.2971519,0.526546 -0.7162823,0.946038 -1.1194908,1.120462 -0.2061772,0.08919 -0.7015688,0.09638 -0.9296075,0.01343 z m 9.2608839,-0.520795 c -0.01802,-0.03019 0.0027,-0.03912 0.04841,-0.02093 0.08913,0.03542 0.105435,0.0736 0.03144,0.0736 -0.02663,0 -0.06256,-0.0237 -0.07985,-0.05266 z m 11.489588,-0.08997 c 0.08151,-0.156594 0.278781,-0.325573 0.483463,-0.414116 0.207089,-0.08958 0.889019,-0.114346 0.936966,-0.03403 0.0159,0.02662 -0.04003,0.108465 -0.124276,0.181852 -0.148821,0.129647 -0.545596,0.247982 -1.098503,0.327617 -0.229311,0.03303 -0.244335,0.02835 -0.19765,-0.06132 z M 10.340079,21.957249 c -0.184491,-0.116465 -0.324044,-0.355762 -0.324044,-0.55565 0,-0.183286 0.09302,-0.22606 0.150596,-0.06926 0.159419,0.434115 0.764007,0.479477 1.308384,0.09816 0.319307,-0.223662 0.429614,-0.596153 0.2552,-0.861773 l -0.08648,-0.131705 0.111194,0.100525 c 0.142705,0.129019 0.193801,0.414317 0.119924,0.669607 -0.06716,0.232082 -0.481734,0.660767 -0.75214,0.777742 -0.24973,0.108023 -0.586545,0.09612 -0.782638,-0.02766 z m 4.90222,-0.05741 c -0.787853,-0.128512 -1.684933,-0.494485 -2.351521,-0.959337 -0.419366,-0.292452 -1.123684,-0.996831 -1.410137,-1.41026 -0.479911,-0.692646 -0.802116,-1.425473 -0.983037,-2.235836 -0.133123,-0.596276 -0.133123,-1.907181 0,-2.503455 0.49129,-2.200544 2.079147,-3.902198 4.185869,-4.485856 0.451744,-0.12516 0.594794,-0.139355 1.403347,-0.139355 0.808553,0 0.951604,0.01428 1.403347,0.139355 0.607255,0.168238 1.340269,0.5194 1.858653,0.89042 0.439487,0.314551 1.205888,1.115242 1.47858,1.544732 1.137062,1.790876 1.280444,3.9939 0.383071,5.885785 -0.594799,1.253982 -1.496926,2.171135 -2.730789,2.776271 -0.728415,0.357246 -1.340768,0.503156 -2.212796,0.527259 -0.396145,0.01088 -0.857209,-0.0024 -1.024587,-0.02973 z m 2.245982,-0.282294 c 1.521358,-0.411184 2.880289,-1.551854 3.563913,-2.991509 0.453667,-0.955383 0.61629,-1.75185 0.57641,-2.823047 -0.05534,-1.486364 -0.547587,-2.667614 -1.568623,-3.764198 -0.725887,-0.779596 -1.568142,-1.293932 -2.584083,-1.578004 -0.43711,-0.122218 -0.583875,-0.136668 -1.389078,-0.136668 -0.808818,0 -0.951081,0.01412 -1.399666,0.1391 -1.790286,0.498703 -3.250616,1.895043 -3.847675,3.679068 -0.508964,1.520797 -0.384671,3.216055 0.336939,4.595613 0.590704,1.129294 1.390494,1.929552 2.466654,2.468091 0.590051,0.295278 0.737494,0.348397 1.353458,0.487601 0.651364,0.147209 1.794834,0.112307 2.491751,-0.07604 z m -0.435798,-0.237942 c -0.04519,-0.07896 -0.225266,-0.319867 -0.400168,-0.535327 L 16.33431,20.45253 16.503618,20.271677 c 0.09312,-0.09947 0.184375,-0.180853 0.20279,-0.180853 0.01842,0 0.08687,0.04794 0.152122,0.106525 0.150353,0.135003 0.154664,0.134492 0.284366,-0.03391 l 0.108164,-0.140443 0.215314,0.147515 c 0.118422,0.08114 0.215313,0.153108 0.215313,0.159943 0,0.0069 -0.104181,0.240121 -0.231513,0.518418 -0.127331,0.278298 -0.231512,0.531769 -0.231512,0.563271 0,0.121743 -0.08772,0.104571 -0.166179,-0.03255 z m -2.176605,-0.04439 c -0.03621,-0.169786 -0.211369,-0.890249 -0.258131,-1.061735 -0.0249,-0.09132 0.0038,-0.121707 0.166439,-0.176572 0.108084,-0.03645 0.223491,-0.07801 0.25646,-0.09239 0.03297,-0.01428 0.07632,0.02914 0.09633,0.09669 0.0671,0.226423 0.127621,0.26756 0.260756,0.177244 0.170897,-0.115927 0.196509,-0.105948 0.351968,0.137281 l 0.13958,0.218372 -0.119882,0.08572 c -0.06593,0.04714 -0.235637,0.194819 -0.377116,0.328168 -0.505441,0.476393 -0.47918,0.461786 -0.516404,0.287237 z m 3.731861,-1.070998 c -0.297107,-0.16127 -0.535442,-0.320196 -0.52963,-0.353157 0.0058,-0.03296 0.04054,-0.150966 0.07717,-0.262243 0.05468,-0.166098 0.08502,-0.196317 0.1695,-0.168818 0.326037,0.10617 0.334407,0.103449 0.334407,-0.108702 0,-0.194801 0.0036,-0.198544 0.160773,-0.166012 0.08842,0.0183 0.215757,0.03329 0.28296,0.03329 0.122102,0 0.122188,4.67e-4 0.122188,0.665813 0,0.366198 -0.01736,0.662941 -0.03858,0.65943 -0.02122,-0.0036 -0.281675,-0.138334 -0.578783,-0.29961 z m -5.709396,0.186145 c 6.92e-4,-0.03662 0.0258,-0.174442 0.05579,-0.306274 0.03,-0.131823 0.06995,-0.395492 0.08878,-0.585914 l 0.03424,-0.346224 h 0.282836 0.282835 l -0.01718,0.205778 -0.01718,0.205777 0.205195,-0.02026 0.205195,-0.02026 0.03275,0.255661 c 0.03703,0.289039 0.01284,0.358705 -0.124597,0.358705 -0.05272,0 -0.300043,0.07192 -0.549621,0.15979 -0.528943,0.186263 -0.480626,0.176862 -0.479046,0.09322 z m 2.650118,-0.628754 c -1.336808,-0.215193 -2.470809,-1.178025 -2.925084,-2.483566 -0.647473,-1.860767 0.184148,-3.914444 1.925505,-4.755012 0.514419,-0.248316 0.930926,-0.340541 1.537938,-0.340541 0.833606,0 1.492707,0.222889 2.196354,0.742742 0.617377,0.456115 1.186699,1.331754 1.381839,2.125312 0.120181,0.488734 0.123056,1.368107 0.006,1.837644 -0.191241,0.767159 -0.697147,1.593472 -1.256631,2.052499 -0.356532,0.292515 -1.009896,0.634486 -1.415114,0.740668 -0.395708,0.103687 -1.072608,0.14114 -1.450815,0.08025 z m 1.423537,-0.458048 c 1.892545,-0.581882 2.90813,-2.645563 2.227376,-4.526051 -0.536644,-1.482403 -2.030169,-2.418309 -3.526455,-2.209827 -1.28451,0.178976 -2.332147,1.077321 -2.749363,2.357569 -0.125695,0.385703 -0.144981,0.526367 -0.144981,1.057431 0,0.531062 0.01929,0.671728 0.144981,1.05743 0.325868,0.999942 1.007815,1.7495 1.94528,2.138143 0.217681,0.09024 0.528689,0.185636 0.691128,0.211986 0.378961,0.06148 1.067692,0.01919 1.412034,-0.08668 z m -1.451099,-0.783892 c -1.569504,-0.355364 -2.411278,-2.245314 -1.659638,-3.726223 0.95156,-1.8748 3.500135,-1.873664 4.452128,0.002 0.985367,1.941408 -0.705701,4.196719 -2.79249,3.724234 z m 1.40053,-0.821151 c 0.379281,-0.193439 0.660906,-0.48576 0.863297,-0.89609 0.112871,-0.228833 0.128474,-0.328396 0.128474,-0.81975 0,-0.491353 -0.0156,-0.590919 -0.128474,-0.81975 -0.202489,-0.41053 -0.483991,-0.70265 -0.863513,-0.89609 -0.31556,-0.160842 -0.383383,-0.175069 -0.834393,-0.175069 -0.451009,0 -0.518833,0.01428 -0.834393,0.175069 -0.613953,0.312927 -0.968326,0.862498 -1.00746,1.56239 -0.02913,0.521004 0.04928,0.851333 0.288375,1.214869 0.235606,0.358232 0.471035,0.556344 0.863726,0.726825 0.256989,0.111558 0.371598,0.129663 0.742498,0.117305 0.375342,-0.01259 0.488107,-0.03988 0.781863,-0.189702 z m -4.8475,1.096818 c -0.183924,-0.02684 -0.408815,-0.06039 -0.499758,-0.07453 l -0.16535,-0.02572 0.185027,-0.250955 c 0.101764,-0.138028 0.253623,-0.376793 0.337463,-0.530594 0.08384,-0.153805 0.170558,-0.291235 0.192705,-0.305405 0.03121,-0.01998 0.283502,0.09077 0.50994,0.223843 0.01091,0.0065 -0.01803,0.07149 -0.06431,0.144607 -0.118422,0.187122 -0.106029,0.240871 0.0702,0.304477 0.173239,0.06253 0.178422,0.08288 0.09475,0.372008 -0.06673,0.230608 -0.06223,0.229638 -0.660671,0.14228 z m 7.807132,-0.02932 -0.501611,-0.01741 v -0.28782 -0.287812 l 0.192927,-0.01649 c 0.10611,-0.0091 0.188926,-0.04096 0.184033,-0.07079 -0.0049,-0.02984 -0.02454,-0.118783 -0.04365,-0.197655 -0.03246,-0.133898 -0.01994,-0.147261 0.18896,-0.20172 0.298643,-0.07786 0.31359,-0.07124 0.409836,0.181683 0.04577,0.120279 0.154772,0.380479 0.242223,0.578225 l 0.159003,0.359538 -0.165052,-0.01121 c -0.09078,-0.0061 -0.390777,-0.01899 -0.666663,-0.02856 z M 11.353666,16.916829 C 11.11315,16.7592 10.882544,16.60987 10.841208,16.584976 c -0.05717,-0.03442 -0.01406,-0.08167 0.180065,-0.197335 0.140372,-0.08364 0.392639,-0.247325 0.560593,-0.363747 0.303655,-0.210485 0.305775,-0.211043 0.377464,-0.09925 0.03965,0.06183 0.115359,0.164057 0.168236,0.227183 0.09492,0.113327 0.09414,0.116523 -0.06235,0.252843 l -0.158492,0.138079 0.141532,0.126043 0.141532,0.126043 -0.150979,0.193129 c -0.08304,0.106221 -0.172771,0.198155 -0.199408,0.204301 -0.02664,0.0061 -0.245218,-0.117798 -0.485734,-0.275421 z m 8.813115,0.174076 c -0.215202,-0.318851 -0.251854,-0.51558 -0.09606,-0.51558 0.03731,0 0.09702,-0.0364 0.132683,-0.0809 0.05275,-0.06579 0.04988,-0.09811 -0.01537,-0.173111 -0.131966,-0.151696 -0.12282,-0.196273 0.0778,-0.379151 l 0.191843,-0.17488 0.296907,0.291386 c 0.163298,0.160266 0.376398,0.362652 0.473556,0.449754 l 0.17665,0.158361 -0.279544,0.09588 c -0.153751,0.05274 -0.422761,0.162306 -0.597802,0.243464 -0.233844,0.108431 -0.329504,0.130905 -0.36066,0.08475 z m -8.53669,-1.998078 c -0.07698,-0.136741 -0.23179,-0.375094 -0.344023,-0.529672 -0.112233,-0.15458 -0.194476,-0.290976 -0.182763,-0.303103 0.01171,-0.01207 0.205956,-0.04746 0.431651,-0.07854 0.225694,-0.03108 0.505335,-0.07113 0.621423,-0.08903 0.200436,-0.03089 0.212684,-0.02485 0.243136,0.119906 0.01764,0.08385 0.04657,0.20505 0.06428,0.269352 0.02719,0.09866 0.0052,0.124343 -0.140241,0.164447 -0.174589,0.04813 -0.187831,0.08314 -0.125301,0.331182 0.02969,0.117797 0.007,0.146478 -0.197321,0.248618 l -0.230889,0.11545 z m 8.428633,0.07458 c -0.245834,-0.179721 -0.244887,-0.177029 -0.122561,-0.348331 0.06165,-0.08635 0.112102,-0.167033 0.112102,-0.17931 0,-0.01225 -0.06945,-0.05211 -0.154342,-0.08853 -0.08489,-0.0364 -0.154343,-0.08644 -0.154343,-0.111185 0,-0.03667 0.144633,-0.394738 0.188931,-0.467733 0.0066,-0.01088 0.279824,0.06924 0.607267,0.177887 l 0.595352,0.197519 -0.420328,0.461296 c -0.231181,0.253711 -0.434311,0.466037 -0.4514,0.471834 -0.01709,0.0058 -0.107394,-0.04526 -0.200678,-0.113463 z m -7.779007,-1.482175 c 0,-0.07384 -0.05621,-0.358332 -0.124926,-0.632218 -0.06871,-0.273887 -0.117817,-0.505334 -0.109127,-0.514331 0.0087,-0.0091 0.189768,0.03082 0.402398,0.08849 0.212631,0.05766 0.495188,0.121691 0.627905,0.142296 0.213887,0.0332 0.237973,0.05032 0.21198,0.150592 -0.01613,0.06222 -0.02965,0.194185 -0.03003,0.293255 -6.99e-4,0.179309 -0.0016,0.179994 -0.206492,0.151544 l -0.205789,-0.02858 v 0.207992 c 0,0.162355 -0.01975,0.208119 -0.09003,0.208577 -0.04951,3.16e-4 -0.17685,0.01547 -0.28296,0.03359 -0.18034,0.03086 -0.192928,0.02425 -0.192928,-0.101222 z m 7.048285,-0.118836 c -0.23045,-0.06113 -0.231468,-0.06242 -0.221772,-0.283986 0.0096,-0.220071 0.0077,-0.222577 -0.167204,-0.222577 H 18.762081 V 12.766878 12.47392 h 0.23452 c 0.128987,0 0.397024,-0.0261 0.595638,-0.05801 0.198614,-0.0319 0.369891,-0.04893 0.380616,-0.03783 0.0159,0.01649 -0.252776,0.839773 -0.380345,1.165474 -0.0284,0.07251 -0.06525,0.07569 -0.264508,0.02283 z m -5.54625,-1.084929 c -0.181879,-0.07075 -0.216194,-0.105319 -0.192031,-0.193334 0.01618,-0.05894 0.06895,-0.340874 0.117278,-0.626507 0.04832,-0.285635 0.10001,-0.519201 0.11486,-0.519038 0.01485,1.64e-4 0.189061,0.134374 0.387134,0.298234 0.198072,0.163869 0.423797,0.33213 0.501611,0.373924 0.158533,0.08516 0.174749,0.138148 0.06984,0.228295 -0.0394,0.03384 -0.100136,0.132792 -0.134971,0.219862 l -0.06334,0.158309 -0.166922,-0.106815 c -0.09181,-0.05873 -0.179759,-0.106815 -0.195447,-0.106815 -0.01568,0 -0.05527,0.08389 -0.08795,0.186427 -0.03268,0.102532 -0.07499,0.183544 -0.09403,0.180019 -0.01903,-0.0036 -0.134249,-0.04519 -0.256047,-0.09257 z m 3.925848,-0.219451 -0.03458,-0.211899 -0.183632,0.07943 c -0.100998,0.04369 -0.186552,0.07314 -0.190121,0.06542 -0.109135,-0.235744 -0.183502,-0.431167 -0.183502,-0.482207 0,-0.0358 0.06697,-0.09578 0.14883,-0.133301 0.08186,-0.03752 0.307582,-0.174681 0.501611,-0.30482 0.19403,-0.130141 0.366627,-0.237128 0.383549,-0.237756 0.01692,-6.29e-4 0.04588,0.244547 0.06435,0.544828 0.01847,0.300281 0.04723,0.597449 0.06389,0.660372 0.02692,0.10163 8.04e-4,0.120961 -0.23409,0.173111 -0.145417,0.03229 -0.272796,0.0587 -0.283065,0.0587 -0.01027,0 -0.03423,-0.09535 -0.05325,-0.211901 z m -1.645906,-0.319553 c -0.0974,-0.194998 -0.113427,-0.196583 -0.283354,-0.02803 l -0.134045,0.132963 -0.193713,-0.205391 -0.193714,-0.205391 0.260911,-0.35689 c 0.143501,-0.196288 0.296108,-0.427358 0.339127,-0.513486 0.04302,-0.08612 0.09595,-0.156593 0.117624,-0.156593 0.02168,0 0.104095,0.137825 0.183155,0.306274 0.07906,0.168443 0.214497,0.421525 0.300968,0.562389 0.08647,0.140868 0.136574,0.274017 0.111344,0.295897 -0.02523,0.02188 -0.131828,0.104911 -0.236883,0.184517 l -0.19101,0.144743 z M 6.8777482,21.738515 C 6.6650868,21.646577 6.4161359,21.359367 6.3591387,21.140218 6.2274432,20.633857 6.5624242,20.144789 7.041289,20.144283 c 0.220072,-2.33e-4 0.5270323,0.258271 0.5835551,0.491432 0.070341,0.290165 -0.2227607,0.599415 -0.4709773,0.496926 -0.090518,-0.03737 -0.089383,-0.04436 0.019704,-0.121113 0.161746,-0.113819 0.1520171,-0.319966 -0.018905,-0.400594 -0.1188512,-0.05607 -0.1460332,-0.04897 -0.2315129,0.06029 -0.1330367,0.170099 -0.1213988,0.306624 0.03928,0.460796 0.096165,0.09228 0.1950914,0.130616 0.3369625,0.130616 0.4309298,0 0.7197426,-0.299937 1.1707803,-1.215874 0.1799167,-0.365365 0.4041726,-0.734823 0.5229249,-0.861512 0.2863264,-0.305463 0.661744,-0.47816 1.0408854,-0.478814 0.359442,-6.15e-4 0.573825,0.09495 0.809903,0.361076 l 0.175371,0.197691 -0.180066,-0.169845 c -0.225365,-0.212571 -0.403615,-0.283229 -0.71075,-0.281738 -0.4500449,0.0022 -0.8725016,0.304894 -1.1134081,0.797805 -0.064431,0.131824 -0.2018412,0.479773 -0.3053555,0.773205 -0.2092512,0.593163 -0.458951,0.977496 -0.7930002,1.22057 -0.1835327,0.133557 -0.2776765,0.162627 -0.5652606,0.174574 -0.1897787,0.0078 -0.4029305,-0.01071 -0.4736707,-0.04128 z M 25.424511,21.616178 c -0.330519,-0.160384 -0.732024,-0.491375 -0.954427,-0.786808 -0.172121,-0.228639 -0.169732,-0.227493 0.142867,0.06859 0.717954,0.680021 1.422846,0.806895 1.977937,0.356012 0.207375,-0.168443 0.402766,-0.532305 0.402766,-0.750038 0,-0.181443 -0.125247,-0.306578 -0.306854,-0.306578 -0.244837,0 -0.28171,0.260328 -0.06937,0.489787 0.129252,0.139679 0.131377,0.149402 0.03267,0.149402 -0.165218,0 -0.369564,-0.199436 -0.405059,-0.395325 -0.07203,-0.397511 0.283173,-0.696117 0.670589,-0.563739 0.530547,0.181281 0.540152,0.958376 0.01824,1.475385 -0.399665,0.395907 -1.014912,0.503242 -1.509342,0.26332 z m -11.816809,0.03621 c 0.03714,-0.0153 0.08151,-0.01343 0.09861,0.0043 0.01709,0.0177 -0.01329,0.03029 -0.06752,0.02798 -0.05993,-0.0026 -0.07213,-0.01513 -0.03108,-0.03218 z m 7.968445,-0.09379 c -0.512759,-0.189359 -0.89891,-0.660285 -0.841543,-1.026291 0.04407,-0.281188 0.114458,-0.315826 0.09374,-0.04615 -0.0156,0.203084 0.003,0.252051 0.156555,0.410327 0.231245,0.238483 0.638657,0.386771 0.971622,0.353647 0.294017,-0.02924 0.486015,-0.180389 0.537509,-0.423125 0.04677,-0.220456 0.149364,-0.156796 0.168022,0.104265 0.02002,0.280201 -0.0878,0.453341 -0.370609,0.595082 -0.250874,0.125736 -0.439132,0.13422 -0.715296,0.03223 z M 10.839193,21.438659 c -0.12674,-0.04891 -0.308684,-0.24208 -0.308684,-0.327745 0,-0.06067 0.02864,-0.05204 0.119072,0.03591 0.199156,0.193707 0.655427,0.129359 0.855875,-0.120688 0.03692,-0.04606 0.08495,-0.161489 0.106743,-0.256521 0.03885,-0.169429 0.03972,-0.169888 0.04488,-0.02367 0.01093,0.309477 -0.260628,0.630346 -0.586378,0.692858 -0.08489,0.01631 -0.189069,0.01615 -0.231513,-1.57e-4 z m -1.4088916,-0.44704 c -0.5403538,-0.440061 -0.2740355,-1.339183 0.5052,-1.705614 0.1150336,-0.0541 0.2635316,-0.09887 0.3299956,-0.09952 0.15729,-0.0015 0.455004,0.145713 0.490996,0.242815 0.02261,0.06102 0.0034,0.05917 -0.09774,-0.0095 -0.192387,-0.130514 -0.462574,-0.107768 -0.67051,0.05644 -0.2688955,0.212343 -0.4856131,0.637781 -0.4862011,0.954461 -4.176e-4,0.227759 0.02154,0.28154 0.1769481,0.433288 0.097587,0.09528 0.1631824,0.188002 0.1457676,0.206033 -0.065657,0.06797 -0.2628053,0.02876 -0.3944592,-0.07846 z m 11.9255076,-0.01775 c -0.194242,-0.08755 -0.382633,-0.325366 -0.378231,-0.477439 l 0.0032,-0.112663 0.0439,0.112493 c 0.06193,0.158685 0.290298,0.331666 0.488744,0.37021 0.205178,0.03985 0.475798,-0.09031 0.53873,-0.259112 0.03914,-0.104979 0.04741,-0.107393 0.08017,-0.02343 0.04767,0.122183 -0.09653,0.348935 -0.263781,0.41477 -0.173543,0.06831 -0.322145,0.06111 -0.512796,-0.02483 z m 3.322715,-0.298641 c -0.33461,-0.161029 -0.658801,-0.548635 -0.979542,-1.171163 -0.154504,-0.299878 -0.37264,-0.653532 -0.484746,-0.785897 -0.248939,-0.293926 -0.634296,-0.490402 -0.963248,-0.491112 -0.308165,-6.66e-4 -0.486627,0.07046 -0.708511,0.28239 -0.0978,0.09342 -0.144137,0.12191 -0.102963,0.06331 0.263833,-0.375434 0.70374,-0.549829 1.146746,-0.454611 0.54099,0.116267 0.901766,0.403077 1.308913,1.040526 0.364823,0.571185 0.522654,0.758938 0.783873,0.932486 0.314434,0.208899 0.641491,0.220113 0.840846,0.02884 0.225357,-0.216232 0.16423,-0.561828 -0.09937,-0.561828 -0.238533,0 -0.301609,0.291559 -0.08704,0.402313 0.08703,0.04492 0.09965,0.07348 0.05356,0.12118 -0.151257,0.156594 -0.467725,-0.01427 -0.534193,-0.288496 -0.07175,-0.295954 0.286725,-0.713736 0.612795,-0.714186 0.365002,-5e-4 0.704984,0.38443 0.704654,0.797824 -2.25e-4,0.287556 -0.12232,0.515683 -0.388467,0.725857 -0.260393,0.205627 -0.758716,0.238406 -1.103314,0.07258 z M 9.8960016,20.526758 c -0.3265249,-0.373554 0.038603,-1.031827 0.5634084,-1.01573 l 0.199717,0.0061 -0.194046,0.03895 c -0.457462,0.0918 -0.6893953,0.643872 -0.409263,0.974157 0.06954,0.08199 0.06976,0.09321 0.0019,0.09321 -0.04244,0 -0.115211,-0.04352 -0.1617043,-0.09671 z m 12.8115454,-0.09738 c -0.01822,-0.01887 0.0358,-0.115571 0.120045,-0.214915 0.258083,-0.304325 0.204665,-0.644525 -0.166952,-1.063235 -0.378758,-0.426759 -0.693896,-0.495842 -0.998647,-0.218923 -0.158109,0.143672 -0.179728,0.152241 -0.127124,0.05041 0.167826,-0.324878 0.663074,-0.42308 1.0707,-0.21231 0.514893,0.266236 0.807116,0.799581 0.674339,1.230755 -0.08741,0.28386 -0.449868,0.555031 -0.572361,0.428212 z M 22.444885,19.86911 c 0.16905,-0.338457 -0.09329,-0.777042 -0.50647,-0.846733 l -0.218112,-0.03679 0.225441,-0.0067 c 0.532417,-0.01582 0.907298,0.539758 0.619706,0.918288 -0.147257,0.19382 -0.222632,0.176252 -0.120565,-0.0281 z m -11.97547,-0.773447 c 0.03714,-0.01547 0.08151,-0.01343 0.09861,0.0043 0.0171,0.0177 -0.01329,0.03029 -0.06752,0.02798 -0.05993,-0.0026 -0.07213,-0.01513 -0.03109,-0.03218 z M 4.4544702,18.585018 C 4.0996868,18.339634 4.0009766,17.810979 4.2046876,17.247276 c 0.1091471,-0.302029 0.3576191,-0.582 0.6764033,-0.762152 0.2383754,-0.134712 1.1291377,-0.132843 1.5503082,0.0032 0.3910962,0.126366 0.3546526,0.153533 -0.068426,0.051 -0.6979039,-0.16914 -1.4561553,0.03078 -1.7219724,0.454007 -0.243276,0.387333 -0.2874019,0.923887 -0.1003199,1.21985 0.054286,0.08587 0.1259433,0.119837 0.2528263,0.119837 0.3645026,0 0.33876,-0.397465 -0.033417,-0.515956 l -0.1717484,-0.05467 0.1414802,-0.05958 c 0.2762058,-0.116336 0.6045061,0.127589 0.6045061,0.449121 0,0.147056 -0.040777,0.233973 -0.1749209,0.372857 -0.2128606,0.22038 -0.4447099,0.240178 -0.7049373,0.0602 z m 17.1372148,0.09751 c 0,-0.04894 0.301439,-0.189775 0.396161,-0.185092 0.06157,0.0031 0.04849,0.01843 -0.03903,0.04594 -0.07239,0.02274 -0.182361,0.06946 -0.244375,0.103821 -0.06202,0.03436 -0.112751,0.05027 -0.112751,0.03535 z M 5.8652061,18.545213 c -0.7023313,-0.369321 -0.5283403,-1.441537 0.2802072,-1.72677 0.468094,-0.165127 0.8836044,-0.07465 1.6579825,0.36101 0.7113022,0.400181 0.8594455,0.454997 1.2351404,0.457026 0.5576902,0.0031 0.9623568,-0.270729 1.1062338,-0.748323 0.03859,-0.128118 0.07172,-0.19976 0.07361,-0.159212 0.0091,0.19453 -0.139575,0.518529 -0.331926,0.723436 -0.4639027,0.494185 -1.16034,0.534877 -2.0887301,0.122048 -0.7003054,-0.311409 -1.032492,-0.385765 -1.3516721,-0.302556 -0.2967483,0.07737 -0.4943589,0.300431 -0.4943589,0.55805 0,0.331839 0.4195344,0.461418 0.4943751,0.152699 C 6.48729,17.812577 6.378893,17.678395 6.2249203,17.70887 6.0875266,17.736048 6.064823,17.63584 6.1849883,17.532579 c 0.1332724,-0.114517 0.3967608,-0.07381 0.5255528,0.08121 0.1828542,0.220076 0.1608529,0.563383 -0.051478,0.803262 -0.2184879,0.246835 -0.4860535,0.290035 -0.7938602,0.128168 z m 20.0223309,-0.01799 c -0.2394,-0.113343 -0.347022,-0.273857 -0.373273,-0.556716 -0.01993,-0.214669 -0.0038,-0.281219 0.09754,-0.403216 0.134335,-0.161675 0.395153,-0.20489 0.531193,-0.08799 0.115028,0.09885 0.09976,0.210251 -0.02421,0.176686 -0.05675,-0.0153 -0.137773,0.0019 -0.180066,0.03815 -0.19488,0.167457 0.02857,0.470924 0.264726,0.359524 0.259945,-0.122627 0.21408,-0.512013 -0.08507,-0.722194 -0.155733,-0.109417 -0.226872,-0.123391 -0.539518,-0.105948 -0.309643,0.01727 -0.447102,0.06271 -0.980483,0.324052 -0.876281,0.429355 -1.165199,0.473291 -1.78086,0.270815 -0.292269,-0.09612 -0.62764,-0.45028 -0.707159,-0.746777 -0.09054,-0.337581 -0.05961,-0.387192 0.04499,-0.07215 0.123062,0.37066 0.377475,0.61085 0.729907,0.689104 0.5132,0.113956 0.769045,0.03759 1.581326,-0.471931 0.735182,-0.461167 1.143586,-0.588186 1.572019,-0.48892 0.506557,0.117374 0.860748,0.52785 0.860748,0.997543 0,0.332757 -0.08615,0.51991 -0.314859,0.684005 -0.237715,0.170555 -0.492217,0.212909 -0.696938,0.115979 z m 1.477151,0.01071 c -0.186491,-0.05424 -0.370525,-0.310545 -0.370842,-0.516491 -2.41e-4,-0.154026 0.309927,-0.487373 0.453482,-0.487373 0.139016,0 0.266588,0.0537 0.266588,0.112221 0,0.02616 -0.04115,0.04757 -0.09144,0.04757 -0.287684,0 -0.434005,0.374686 -0.191073,0.489284 0.195828,0.09239 0.361353,-0.02363 0.437972,-0.30696 0.153813,-0.568772 -0.234385,-1.256378 -0.798543,-1.414442 -0.198058,-0.05549 -0.988935,-0.038 -1.260459,0.02787 -0.07074,0.01716 0.01029,-0.01785 0.180065,-0.07783 0.757735,-0.267647 1.401163,-0.175285 1.823259,0.261725 0.741962,0.768175 0.41729,2.116324 -0.449002,1.864408 z M 2.7921731,17.680573 c 0.080207,-0.235516 0.2869638,-0.485075 0.7029133,-0.848429 l 0.2443747,-0.213473 v 0.212 c 0,0.302821 -0.2587695,0.682642 -0.6150921,0.90283 -0.3831112,0.236744 -0.4283889,0.22953 -0.3321959,-0.05293 z m 26.4473109,-0.06323 c -0.445431,-0.225929 -0.773487,-0.640106 -0.744356,-0.939762 l 0.01622,-0.166862 0.392653,0.325033 c 0.409993,0.339387 0.54148,0.502203 0.612442,0.758377 0.05086,0.183579 0.04084,0.184417 -0.276962,0.02322 z M 22.800677,17.40701 c -0.0849,-0.0383 -0.184616,-0.107393 -0.221592,-0.153516 -0.05287,-0.06595 -0.0258,-0.062 0.126655,0.01845 0.257128,0.135717 0.704683,0.134 1.057665,-0.0041 0.149615,-0.05851 0.549843,-0.322489 0.889396,-0.586594 0.645081,-0.50175 1.261571,-0.858404 1.697812,-0.982226 0.169785,-0.0482 0.213126,-0.07461 0.127534,-0.07775 -0.223122,-0.0082 -0.868865,-0.213804 -1.173438,-0.373627 -0.160477,-0.0842 -0.545026,-0.31089 -0.854552,-0.503732 -0.705952,-0.439822 -0.959607,-0.530063 -1.415071,-0.503418 -0.276575,0.01615 -0.395342,0.05206 -0.574482,0.173561 -0.175853,0.119259 -0.204399,0.128117 -0.128996,0.03996 0.189155,-0.221112 0.542209,-0.352616 0.932115,-0.347187 0.422529,0.006 0.704273,0.106391 1.541823,0.550051 0.883996,0.46826 1.183813,0.560129 1.827977,0.560129 0.481247,0 0.565461,-0.01461 0.77171,-0.133862 0.28866,-0.166895 0.540588,-0.54425 0.589692,-0.883258 0.04671,-0.32251 0.128664,-0.215278 0.129783,0.169819 0.0015,0.509757 -0.339822,0.953099 -0.879297,1.142182 l -0.267351,0.0937 0.278865,0.05995 c 0.521966,0.112189 0.97227,0.548283 1.048497,1.015416 0.03527,0.216135 -0.0012,0.426972 -0.07392,0.426972 -0.02277,0 -0.05544,-0.08988 -0.07259,-0.199744 -0.104043,-0.666302 -0.871438,-1.06066 -1.686611,-0.86674 -0.362763,0.08629 -1.185314,0.501784 -1.785449,0.901865 -0.264237,0.176154 -0.606587,0.369148 -0.760778,0.428876 -0.324494,0.125702 -0.885467,0.143027 -1.125388,0.03479 z M 8.4211682,17.344404 C 8.2938361,17.302741 7.9812936,17.14804 7.7266294,17.000613 6.2414654,16.140845 5.5260227,15.93836 4.8542288,16.187665 4.4428414,16.34033 4.1143356,16.796573 4.0957009,17.241139 c -0.00349,0.08329 -0.01925,0.07177 -0.07222,-0.05275 -0.1215639,-0.285751 0.023053,-0.765093 0.3157742,-1.046655 0.1781985,-0.171405 0.5415209,-0.365398 0.6843392,-0.365398 0.057719,0 0.1049444,-0.02398 0.1049444,-0.05326 0,-0.0293 -0.052091,-0.05379 -0.1157566,-0.05444 -0.1674389,-0.0017 -0.5552022,-0.195045 -0.7249739,-0.361503 -0.2286908,-0.224228 -0.3425578,-0.501338 -0.3425578,-0.833662 0,-0.162288 0.023151,-0.295079 0.051448,-0.295079 0.028296,0 0.051576,0.02996 0.051734,0.06657 7.87e-4,0.183575 0.1252854,0.489103 0.2677473,0.65709 0.5800592,0.683994 1.5757012,0.581228 3.0920404,-0.319147 0.3166054,-0.187992 0.7196116,-0.391872 0.8955693,-0.453064 0.5666402,-0.197053 1.0738302,-0.12861 1.395559,0.188329 l 0.1880692,0.185272 -0.2438612,-0.17241 C 9.4544527,14.197348 9.3314029,14.153519 9.0955628,14.135858 c -0.4394774,-0.03292 -0.7327778,0.08866 -1.5270753,0.632978 -0.8421644,0.577119 -1.1110524,0.720875 -1.5839691,0.846838 -0.373106,0.09938 -0.3740703,0.124854 -0.0071,0.187497 0.3231767,0.05516 1.0025098,0.409051 1.6069574,0.837115 0.7649733,0.541745 1.0200287,0.654111 1.4847508,0.654111 0.3402063,0 0.3942532,-0.01565 0.6211817,-0.180314 0.1770866,-0.128474 0.2189688,-0.145441 0.14566,-0.05902 -0.2787345,0.328546 -0.904074,0.456436 -1.4148008,0.289347 z m 14.2688428,-0.21019 c -0.205527,-0.127556 -0.333212,-0.347056 -0.321977,-0.553521 0.0026,-0.0469 0.0266,-0.0065 0.05343,0.08986 0.07618,0.273472 0.308708,0.396149 0.696391,0.367396 0.682017,-0.05058 1.0694,-0.471451 0.928358,-1.008606 -0.04524,-0.172298 0.0081,-0.185795 0.176451,-0.04466 0.103312,0.08662 0.121455,0.149742 0.121455,0.422623 0,0.283153 -0.01812,0.340748 -0.154342,0.490808 -0.23447,0.25827 -0.508586,0.36719 -0.926051,0.367962 -0.292907,5.47e-4 -0.4,-0.02407 -0.573713,-0.131874 z M 8.6269575,17.181001 C 8.1041825,16.97298 7.906695,16.74946 7.906695,16.365794 c 0,-0.258661 0.06249,-0.403511 0.2091342,-0.484766 0.099148,-0.05494 0.1024907,-0.04589 0.073362,0.198522 -0.042232,0.354362 0.090836,0.565687 0.4691014,0.74498 0.2358185,0.111781 0.3431644,0.131722 0.6131052,0.113921 0.3783449,-0.02494 0.5054217,-0.114091 0.5808756,-0.407489 0.049257,-0.191541 0.050334,-0.192231 0.055356,-0.03552 0.00724,0.22592 -0.1543611,0.471056 -0.3871339,0.58723 -0.1962285,0.09794 -0.743257,0.15814 -0.8935403,0.09835 z M 22.368559,17.038976 c -0.06508,-0.112187 -0.06398,-0.113325 0.02461,-0.02548 0.05099,0.05058 0.08165,0.103415 0.06811,0.117423 -0.01353,0.01395 -0.05526,-0.02736 -0.09272,-0.09194 z M 1.8873573,16.807254 C 1.7600251,16.761841 1.4706339,16.587667 1.2442657,16.42021 1.0178974,16.252754 0.71693052,16.047639 0.57545034,15.964404 0.09267418,15.680375 0.10225378,15.701394 0.38009024,15.535752 0.51583436,15.454831 0.82368359,15.251608 1.0642001,15.08416 c 0.5828177,-0.405758 0.8108358,-0.520732 1.1115155,-0.560464 0.3457872,-0.0457 0.6248755,0.06833 1.0617325,0.433764 0.1964356,0.164312 0.4881414,0.369473 0.6482354,0.455892 l 0.29108,0.15712 -0.2829603,-0.02137 c -0.178873,-0.0135 -0.4532853,-0.09793 -0.7459863,-0.229514 -0.3065186,-0.137796 -0.5344811,-0.20664 -0.6744249,-0.203674 -0.2456176,0.0053 -0.5805681,0.160844 -0.8592043,0.39922 l -0.1959985,0.167677 0.1188276,0.131739 c 0.1656283,0.183618 0.5203527,0.390922 0.7671516,0.448334 0.1755093,0.04083 0.281219,0.02215 0.6800718,-0.12011 0.2944783,-0.105048 0.6078318,-0.176325 0.832392,-0.189358 l 0.3601313,-0.02091 -0.2315131,0.09838 c -0.127332,0.05411 -0.4514502,0.242764 -0.7202626,0.419239 -0.7113465,0.466997 -0.893365,0.515592 -1.3376305,0.357133 z m 20.9133397,0.0373 c -0.05659,-0.02399 -0.149197,-0.100355 -0.20579,-0.169734 l -0.102894,-0.126129 0.102894,0.08907 c 0.352548,0.305158 0.972356,0.0408 0.972356,-0.41473 0,-0.168614 0.0074,-0.179113 0.06688,-0.0949 0.284219,0.402426 -0.329502,0.929977 -0.833447,0.716428 z M 8.8327468,16.704387 c -0.07074,-0.05025 -0.1575574,-0.128406 -0.1929275,-0.173667 -0.076708,-0.09815 -0.085948,-0.467911 -0.012862,-0.514677 0.02968,-0.01899 0.051448,0.03101 0.051448,0.118171 0,0.437508 0.5681645,0.698236 0.9438332,0.43312 L 9.7845232,16.452801 9.6463828,16.60261 C 9.4691726,16.794788 9.0362113,16.848945 8.8327473,16.704393 Z M 29.47063,16.600105 c -0.09491,-0.04268 -0.337997,-0.202429 -0.540197,-0.355028 -0.202199,-0.152599 -0.494968,-0.331909 -0.650595,-0.398464 l -0.282961,-0.121011 0.308684,1.81e-4 c 0.229359,1.34e-4 0.401231,0.04151 0.668815,0.161031 0.530139,0.236784 0.782511,0.255703 1.117123,0.08376 0.149577,-0.07686 0.36456,-0.222884 0.477745,-0.324489 l 0.20579,-0.184735 -0.154342,-0.138251 c -0.231771,-0.207606 -0.64419,-0.397878 -0.863683,-0.398465 -0.107176,-2.82e-4 -0.408144,0.08551 -0.668815,0.19068 -0.274447,0.110708 -0.603884,0.202125 -0.782633,0.217154 l -0.308684,0.02595 0.282961,-0.153482 c 0.155627,-0.08441 0.44502,-0.274878 0.643091,-0.423247 0.518434,-0.388339 0.661086,-0.452267 1.005421,-0.450562 0.333625,0.0016 0.450676,0.0528 1.131407,0.494519 0.241485,0.156696 0.559816,0.342926 0.707401,0.413849 0.147584,0.07092 0.267876,0.142823 0.267314,0.159789 -4.82e-4,0.017 -0.12054,0.102753 -0.266618,0.190641 -0.146078,0.0879 -0.458975,0.311093 -0.695323,0.496016 -0.724599,0.566936 -1.167964,0.709245 -1.601901,0.514172 z m -5.48967,-1.183302 c 0.07266,-0.457241 -0.36902,-0.836395 -0.97627,-0.838058 -0.372278,-0.0011 -0.554256,0.08485 -0.662857,0.312753 -0.05198,0.109077 -0.07939,0.132997 -0.08016,0.06991 -0.0045,-0.363389 0.410493,-0.632619 0.974983,-0.632619 0.584496,0 0.963708,0.284748 1.015243,0.762341 0.01984,0.183855 0.0017,0.263089 -0.08656,0.378941 -0.156534,0.20537 -0.22245,0.186328 -0.184375,-0.05326 z m -16.0591124,0.0041 c -0.2041593,-0.322597 -0.010567,-0.863311 0.3789732,-1.058497 0.2995464,-0.150099 0.8248018,-0.166521 1.1124193,-0.0348 0.2611474,0.1196 0.3808676,0.273177 0.4256515,0.546029 l 0.030141,0.183643 -0.1021911,-0.22208 c -0.1296888,-0.281831 -0.2698389,-0.36014 -0.6322163,-0.353247 -0.3359095,0.0065 -0.6812641,0.149437 -0.8678,0.359433 -0.1051932,0.118428 -0.1281227,0.197352 -0.1258968,0.433356 0.00309,0.327307 -0.072521,0.377752 -0.2190819,0.146172 z m 15.5741754,-0.02987 c -4.49e-4,-0.08348 -0.06247,-0.217114 -0.145323,-0.313119 -0.117934,-0.13665 -0.194222,-0.17242 -0.4145,-0.194334 -0.244303,-0.02431 -0.285114,-0.01225 -0.429342,0.126689 -0.155185,0.149504 -0.154474,0.08791 0.0011,-0.09969 0.198001,-0.238672 0.761305,-0.215343 0.974366,0.04036 0.120929,0.145134 0.149447,0.369442 0.06431,0.505837 -0.0389,0.06232 -0.05005,0.04785 -0.05066,-0.06575 z m -14.9336696,-0.0189 c -0.055767,-0.05773 -0.04684,-0.331943 0.014682,-0.45096 0.079238,-0.153294 0.3244913,-0.263374 0.5867526,-0.263374 0.1904939,0 0.2640581,0.03029 0.4012712,0.16528 0.1497947,0.147345 0.1519198,0.153126 0.019602,0.05326 -0.17237,-0.13009 -0.4384631,-0.144829 -0.6424551,-0.03561 -0.1880835,0.100695 -0.2699496,0.208568 -0.3092397,0.407462 -0.017775,0.08999 -0.049549,0.145763 -0.070608,0.123952 z M 4.932836,14.986333 C 4.4332294,14.801294 4.1050823,14.348765 4.0613339,13.784497 c -0.046804,-0.603678 0.1804756,-0.978644 0.6246029,-1.030473 0.215123,-0.02511 0.2486964,-0.01207 0.4154891,0.160555 0.2346707,0.242961 0.2446008,0.460927 0.03107,0.682 -0.1092167,0.113071 -0.1999296,0.155692 -0.3313714,0.155692 -0.2324032,0 -0.2865179,-0.08714 -0.082871,-0.133455 0.2017261,-0.04587 0.3355658,-0.245159 0.261228,-0.388969 -0.1202167,-0.232564 -0.4330786,-0.163801 -0.5477684,0.120383 -0.2222746,0.550774 0.1115792,1.275281 0.6939874,1.506046 0.2452351,0.09717 0.7708302,0.123051 1.1861259,0.05844 l 0.2315129,-0.03602 -0.2315129,0.08007 c -0.3841606,0.132878 -1.0583003,0.14636 -1.3789917,0.02758 z m 21.211938,-0.01615 c -0.484736,-0.05427 -0.798515,-0.15707 -0.360132,-0.117986 0.169776,0.01513 0.331835,0.03439 0.360132,0.04281 0.02829,0.0084 0.196538,-0.0053 0.373872,-0.03046 0.554384,-0.07866 0.91386,-0.344341 1.064654,-0.786833 0.215559,-0.632546 -0.07952,-1.308237 -0.45892,-1.050861 -0.0719,0.04878 -0.130726,0.124088 -0.130726,0.167354 0,0.125039 0.19352,0.291728 0.338696,0.291728 0.206626,0 0.120208,0.130583 -0.0991,0.149742 -0.153959,0.01343 -0.218719,-0.01343 -0.343293,-0.142381 -0.32366,-0.335095 -0.102838,-0.859603 0.361902,-0.859603 0.441634,0 0.726645,0.347375 0.726645,0.885643 0,0.817 -0.490558,1.374399 -1.293532,1.469783 -0.09904,0.01173 -0.342125,0.0032 -0.540197,-0.01892 z M 10.122992,14.784136 c -0.01374,-0.563745 -0.4918379,-0.978593 -1.1277825,-0.978593 -0.3766931,0 -0.6320557,0.09073 -1.1914093,0.423318 -0.8654593,0.514594 -1.3728036,0.589694 -1.9159802,0.283616 -0.7668542,-0.432122 -0.6525329,-1.590644 0.1682091,-1.704618 0.1113251,-0.01547 0.2720954,0.0017 0.3572674,0.0383 0.3462486,0.148483 0.4847111,0.730189 0.2352773,0.988436 -0.1940187,0.200873 -0.5939828,0.161183 -0.5939828,-0.05895 0,-0.03591 0.04987,-0.05199 0.1188855,-0.03833 0.1539725,0.03048 0.2623696,-0.103707 0.2211475,-0.273757 -0.073547,-0.303386 -0.494375,-0.180018 -0.494375,0.144931 0,0.363669 0.2812823,0.569906 0.7772777,0.569906 0.2679779,0 0.4235942,-0.04473 0.9671924,-0.278007 0.6316724,-0.271075 0.660663,-0.278049 1.162304,-0.279641 0.4730397,-0.0015 0.5343292,0.01037 0.7610176,0.148416 0.1355989,0.08252 0.3138899,0.246291 0.396201,0.363935 0.1445633,0.206614 0.2454263,0.603906 0.1898333,0.747739 -0.01487,0.03846 -0.02885,-0.0052 -0.03109,-0.0967 z M 3.2941508,14.369592 C 2.9776709,14.064756 2.8551751,13.906532 2.7956621,13.725699 2.7064642,13.45467 2.7310657,13.440295 3.0215446,13.593723 c 0.428453,0.226302 0.736084,0.657381 0.7079759,0.992078 l -0.015783,0.187935 z m 18.6599232,0.299386 c -0.003,-0.158004 0.160439,-0.486031 0.314281,-0.631046 0.290212,-0.273565 0.556895,-0.365762 1.046815,-0.361907 0.411467,0.0032 0.526043,0.02803 1.028947,0.222635 0.311257,0.12045 0.652892,0.235359 0.759191,0.255361 0.52543,0.09887 1.015742,-0.174263 1.015742,-0.565826 0,-0.160198 -0.02819,-0.225438 -0.1261,-0.291858 -0.160221,-0.108685 -0.326796,-0.05714 -0.368275,0.113956 -0.04021,0.165875 0.06384,0.298912 0.217479,0.278067 0.0648,-0.0089 0.118876,0.002 0.120181,0.02398 0.0075,0.126995 -0.0097,0.153856 -0.128706,0.200713 -0.16216,0.06384 -0.451939,-0.04805 -0.533595,-0.206018 -0.03057,-0.05914 -0.05559,-0.207811 -0.05559,-0.330367 0,-0.189027 0.03129,-0.255216 0.20624,-0.436352 0.197176,-0.204143 0.217692,-0.212388 0.466859,-0.187599 0.325292,0.03237 0.501707,0.162135 0.657421,0.483634 0.09719,0.200656 0.114704,0.297838 0.08752,0.485537 -0.04743,0.327419 -0.273397,0.626906 -0.600268,0.795549 -0.48582,0.250646 -0.977964,0.175743 -1.842773,-0.280468 -0.219266,-0.115673 -0.533656,-0.250935 -0.698645,-0.300594 -0.653549,-0.196705 -1.299119,0.08409 -1.493935,0.649787 -0.05182,0.15049 -0.07113,0.17245 -0.07278,0.08282 z m 6.428658,-0.251134 c 0,-0.250014 0.154122,-0.554296 0.388817,-0.767644 0.197917,-0.179911 0.518309,-0.361391 0.560641,-0.317563 0.01359,0.01412 -0.0032,0.119889 -0.03743,0.235169 -0.06084,0.205251 -0.616805,0.876882 -0.818267,0.988512 -0.08258,0.04576 -0.09376,0.02926 -0.09376,-0.13847 z M 9.5682551,13.40884 C 9.1018195,13.257898 8.7593979,12.895286 8.2475671,12.010282 7.9218919,11.44716 7.4245369,11.09171 7.0829401,11.177945 6.7747388,11.25574 6.6169504,11.610382 6.8042522,11.8043 c 0.1059956,0.10974 0.1926243,0.105744 0.2970354,-0.01377 0.121363,-0.138844 0.1053241,-0.268213 -0.04186,-0.337643 -0.1594525,-0.07521 -0.120044,-0.150865 0.078594,-0.150865 0.218817,0 0.357095,0.167066 0.357095,0.431447 0,0.177341 -0.032876,0.252424 -0.1749208,0.399487 -0.1427256,0.14777 -0.214215,0.181101 -0.3884098,0.181101 -0.4388438,0 -0.7228526,-0.30806 -0.7228526,-0.784069 0,-0.356168 0.1513135,-0.584841 0.5145269,-0.777573 0.2409597,-0.127862 0.3209355,-0.145117 0.5393875,-0.116353 0.3345613,0.04405 0.7162339,0.262805 0.9269115,0.531254 0.092629,0.118036 0.3093967,0.50677 0.481706,0.863867 0.439443,0.910709 0.6828665,1.171219 1.2083246,1.293137 0.2925421,0.06789 0.5408461,0.01275 0.8365901,-0.186017 l 0.199984,-0.13428 -0.191627,0.178867 c -0.311756,0.290995 -0.713148,0.36942 -1.1564814,0.225954 z m 12.3414789,-4.72e-4 c -0.237572,-0.11149 -0.472391,-0.291163 -0.472391,-0.361446 0,-0.0324 0.05241,-0.008 0.116458,0.05435 0.418156,0.406715 1.048783,0.345028 1.526237,-0.149301 0.195454,-0.20236 0.29668,-0.379962 0.48975,-0.859273 0.391847,-0.972788 0.652705,-1.322042 1.12772,-1.509862 0.652898,-0.258151 1.369361,0.168596 1.369902,0.815962 3.21e-4,0.376094 -0.19966,0.667811 -0.518778,0.756777 -0.229078,0.06387 -0.419462,0.0028 -0.625733,-0.201037 -0.199967,-0.197506 -0.201444,-0.542626 -0.0031,-0.704225 0.143819,-0.117135 0.327748,-0.126943 0.361949,-0.01933 0.01085,0.03414 -0.0292,0.07814 -0.08899,0.09779 -0.166481,0.05471 -0.120131,0.301966 0.06947,0.370609 0.121661,0.04405 0.158712,0.03571 0.21865,-0.04914 0.283503,-0.401411 -0.245385,-0.774994 -0.732746,-0.517577 -0.293356,0.154944 -0.530847,0.450959 -0.820311,1.022451 -0.281983,0.556721 -0.64804,0.985896 -0.999025,1.171281 -0.290673,0.153534 -0.782402,0.193084 -1.019146,0.08197 z M 9.7779394,13.048554 C 9.3310256,12.899509 8.9448949,12.410334 8.5255014,11.461883 7.8890853,10.022638 7.2420439,9.3540671 6.4918934,9.3606055 6.1592145,9.3634948 5.9214746,9.4611985 5.6815979,9.6935503 5.5772705,9.794602 5.5401177,9.8090699 5.5401177,9.7486198 c 0,-0.1619656 0.2362865,-0.4401897 0.4874437,-0.5739663 C 6.3379938,9.0093003 6.8532509,8.9907593 7.1195683,9.1353602 7.3625539,9.2672853 7.3721278,9.2469696 7.1739681,9.0198747 6.9170958,8.725503 6.8094931,8.3976383 6.8347858,7.9863903 6.8564001,7.6349525 6.986495,7.3647319 7.1877679,7.2532075 c 0.094358,-0.052278 0.09429,-0.047432 -0.00245,0.1732199 -0.1187853,0.2709464 -0.1316624,0.7156721 -0.02815,0.972168 0.1099992,0.2725666 0.4757845,0.6186663 0.8524186,0.8065441 0.4074638,0.2032566 0.8871506,0.3147623 1.8006566,0.4185703 0.3819969,0.043398 0.7871449,0.1059142 0.9003289,0.1389121 0.659407,0.1921977 1.116125,0.6957941 1.100149,1.2130721 -0.0062,0.199884 -0.01609,0.176001 -0.07097,-0.171081 -0.04678,-0.29578 -0.372012,-0.641142 -0.738154,-0.783846 C 10.764897,9.9285157 10.528117,9.8985744 9.7330765,9.8603774 8.7354267,9.8124459 8.3301722,9.7436954 7.8876462,9.5473034 L 7.6379781,9.4365033 7.8926533,9.7250028 c 0.3122541,0.3537262 0.6063941,0.9289432 0.9052515,1.7703002 0.2562957,0.721534 0.4012582,0.986288 0.6775491,1.237445 0.224575,0.204145 0.3775286,0.276401 0.6949231,0.328277 l 0.231513,0.03785 -0.231513,0.0017 c -0.127332,9.24e-4 -0.3039286,-0.02247 -0.3924366,-0.05199 z m 12.3650646,0.01225 c 0.662585,-0.07812 0.960387,-0.452312 1.357125,-1.705236 0.275567,-0.870256 0.504311,-1.3673396 0.804973,-1.7492808 L 24.486944,9.375279 24.21767,9.5165542 c -0.411374,0.2158241 -0.983787,0.3459712 -1.777105,0.404048 -0.796963,0.058349 -1.144919,0.1236298 -1.414801,0.2654688 -0.231736,0.121793 -0.487948,0.399695 -0.586914,0.636616 -0.04283,0.102531 -0.07878,0.152054 -0.07988,0.110028 -0.0041,-0.157239 0.218419,-0.539173 0.400752,-0.687702 0.39825,-0.3244184 0.685374,-0.4230892 1.655128,-0.5687829 1.002615,-0.1506257 1.638042,-0.3924097 2.09456,-0.7969779 0.408461,-0.3619818 0.540268,-0.960747 0.32142,-1.4601451 C 24.77436,7.290242 24.7364,7.176261 24.74648,7.165826 c 0.01008,-0.010371 0.07731,0.035073 0.149407,0.101137 0.413946,0.3793393 0.415243,1.1251146 0.003,1.6847834 -0.114558,0.1555051 -0.120542,0.1783405 -0.03699,0.1412075 0.29309,-0.1302421 0.630024,-0.2378139 0.749716,-0.2393491 0.274774,-0.00357 0.660473,0.1701869 0.843443,0.3798682 0.207977,0.2383392 0.258586,0.4584416 0.06279,0.2730886 -0.313772,-0.2970409 -0.715415,-0.3867058 -1.148428,-0.2563786 -0.253805,0.076384 -0.355186,0.1486028 -0.662443,0.4718021 -0.398702,0.4193969 -0.626922,0.8121539 -0.956536,1.6461579 -0.300261,0.759732 -0.435148,1.022647 -0.652379,1.271589 -0.274372,0.314427 -0.611108,0.475016 -0.97725,0.466048 l -0.297533,-0.0074 z M 9.7923925,12.823489 C 9.1945648,12.520262 8.8911211,11.911529 9.1146792,11.46394 c 0.1002124,-0.200635 0.3191513,-0.374913 0.4709916,-0.374913 0.157218,0 0.1534844,0.02832 -0.032657,0.247832 -0.2593771,0.30585 -0.1954473,0.722882 0.1729642,1.128288 0.331808,0.365127 0.677157,0.430231 0.967792,0.182442 0.11024,-0.094 0.143687,-0.108276 0.09398,-0.04016 -0.273241,0.374473 -0.560217,0.436766 -0.9953518,0.216059 z m 11.8859315,-0.04331 c -0.093,-0.0952 -0.113944,-0.125176 -0.04655,-0.06658 0.416526,0.36211 1.17831,-0.193159 1.234938,-0.900152 0.02043,-0.255027 0.0076,-0.298754 -0.137504,-0.469895 -0.188382,-0.222136 -0.195329,-0.254533 -0.05457,-0.254533 0.302973,0 0.563366,0.330909 0.563366,0.715931 0,0.537825 -0.624459,1.148343 -1.174564,1.148343 -0.174737,0 -0.248341,-0.03309 -0.385111,-0.173112 z m 0.09343,-0.147803 c -0.08065,-0.03486 -0.05971,-0.04527 0.09682,-0.0482 0.159866,-0.0031 0.234289,-0.0417 0.372993,-0.193965 0.142119,-0.156015 0.173279,-0.231956 0.173279,-0.422315 0,-0.142873 -0.03202,-0.265247 -0.08329,-0.318333 -0.132621,-0.137315 -0.03269,-0.165723 0.106553,-0.0303 0.18065,0.175709 0.211914,0.390015 0.09185,0.629603 -0.145655,0.290662 -0.526853,0.483481 -0.758202,0.383515 z M 10.043427,12.528818 c -0.2360078,-0.161065 -0.3336715,-0.325799 -0.3349313,-0.56495 -8.672e-4,-0.163562 0.030522,-0.247887 0.1272712,-0.341993 0.1447308,-0.140765 0.2416371,-0.109382 0.1035815,0.03355 -0.06721,0.06959 -0.082648,0.14981 -0.063208,0.328395 0.030389,0.279171 0.1837686,0.462128 0.4785856,0.570886 l 0.201507,0.07434 -0.180065,0.002 c -0.09904,0.0011 -0.248769,-0.04496 -0.332739,-0.102265 z m 10.547952,-1.025521 c -0.26929,-0.39805 0.09216,-1.079392 0.715713,-1.349135 0.523621,-0.2265112 1.143475,0.09573 1.098171,0.570904 -0.02107,0.220972 -0.10718,0.245381 -0.178222,0.05051 -0.170493,-0.467643 -0.974027,-0.446287 -1.442104,0.03834 -0.205789,0.213057 -0.254855,0.428088 -0.14697,0.644084 0.09527,0.190734 0.06905,0.216228 -0.04659,0.04531 z m -8.723474,-0.07971 c 0.282199,-0.402808 0.1619,-1.042898 -0.267523,-1.423457 C 11.326094,9.7570522 11.046775,9.665373 10.283881,9.5680139 9.2837271,9.4403777 8.8251707,9.1994205 8.5785163,8.6718982 8.2019062,7.8664387 8.9085169,6.9828629 9.6413409,7.3428962 10.106189,7.5712747 10.142048,8.2729417 9.700937,8.5091064 9.4369726,8.6504331 9.0899812,8.492616 9.0899812,8.2310946 c 0,-0.1430777 0.061378,-0.1609794 0.1543421,-0.045017 0.098783,0.1232206 0.2525161,0.095645 0.3198675,-0.057394 C 9.6332988,7.971648 9.5731908,7.82482 9.427669,7.7951963 9.0310951,7.7144601 8.8549732,8.2223313 9.137224,8.6327207 9.2965289,8.864348 9.6949612,9.0508675 10.40189,9.224752 c 0.75225,0.1850337 1.08474,0.3507512 1.364914,0.6802889 0.201811,0.2373731 0.358571,0.6152681 0.358571,0.8643971 0,0.21682 -0.14818,0.61725 -0.26903,0.72701 -0.09809,0.08909 -0.09698,0.08206 0.01156,-0.07286 z m -6.4719381,0.0052 C 4.8004144,11.115698 5.081732,10.122855 5.8711619,9.751628 6.1102866,9.6391851 6.5685348,9.6202291 6.8314857,9.7119179 7.1312602,9.8164378 7.6342884,10.224462 7.890357,10.570806 L 8.1357211,10.902671 7.799261,10.556449 C 7.0192593,9.7537447 6.2502822,9.6452889 5.7024243,10.260644 c -0.3489782,0.391973 -0.3754484,0.804431 -0.058314,0.908642 0.239945,0.07885 0.3541136,-0.29841 0.1532438,-0.506378 -0.1241169,-0.128509 -0.1283794,-0.159789 -0.021766,-0.159789 0.044621,0 0.1488015,0.07005 0.231513,0.155692 0.4121251,0.426686 -0.081339,1.048301 -0.6111343,0.769843 z m 14.7268431,-0.0983 c -0.110653,-0.274187 -0.09234,-0.652448 0.0465,-0.96048 0.225792,-0.5009386 0.778453,-0.8762999 1.557825,-1.0580558 0.670214,-0.156304 1.055832,-0.3868858 1.232495,-0.7369943 0.171221,-0.3393214 0.01872,-0.7350392 -0.283258,-0.7350392 -0.199564,0 -0.293038,0.1253459 -0.230762,0.3094564 0.05603,0.1656545 0.229421,0.2147049 0.327301,0.092603 0.09578,-0.1194808 0.156402,-0.1013411 0.156402,0.046837 0,0.1457128 -0.215786,0.350088 -0.369624,0.350088 -0.165635,0 -0.396117,-0.153142 -0.478385,-0.3178461 -0.305555,-0.6117539 0.323314,-1.2199308 0.971498,-0.9395336 0.428635,0.1854229 0.634222,0.8746199 0.400218,1.3416674 -0.296221,0.5912238 -0.628429,0.7642651 -1.887061,0.9829374 -0.402883,0.069992 -0.863977,0.2641129 -1.046552,0.4405908 -0.319774,0.30909 -0.467898,0.796008 -0.349963,1.150408 0.0884,0.265671 0.05636,0.288599 -0.04664,0.03338 z m -8.570141,-0.055 c 0.123405,-0.476943 -0.381915,-0.932139 -1.034784,-0.932139 -0.325295,0 -0.48163,0.09669 -0.5898222,0.364774 -0.074042,0.18347 -0.080084,0.186895 -0.1521017,0.08624 -0.1478373,-0.206588 0.024471,-0.571921 0.3532759,-0.749044 0.414325,-0.2231899 1.204534,0.114261 1.45857,0.62287 0.0961,0.1924 0.0956,0.531457 -9.53e-4,0.663689 -0.07017,0.09609 -0.07259,0.09211 -0.03416,-0.05641 z m 9.192083,0 c 0.07457,-0.374857 0.40168,-0.621235 0.769762,-0.579777 0.167478,0.01886 0.386562,0.236975 0.384711,0.383003 -9.48e-4,0.07475 -0.0164,0.07015 -0.09003,-0.02686 -0.14567,-0.191921 -0.331481,-0.235783 -0.621324,-0.146665 -0.21685,0.06667 -0.270029,0.111048 -0.364404,0.304085 -0.09387,0.192017 -0.105717,0.201979 -0.07871,0.06621 z m 5.511767,-0.08219 c -0.314766,-0.256344 -0.171679,-0.849933 0.20488,-0.849933 0.0604,0 0.05403,0.02984 -0.02993,0.140341 -0.125151,0.16472 -0.137858,0.352428 -0.03012,0.444996 0.109832,0.09437 0.328161,0.0213 0.395841,-0.132486 0.07779,-0.176753 -0.06527,-0.562279 -0.277121,-0.746841 -0.640443,-0.5579369 -1.322477,-0.4363888 -2.067348,0.368433 l -0.251533,0.27178 0.173381,-0.257564 c 0.546107,-0.8112602 1.343567,-1.1483596 2.004459,-0.8473168 0.250867,0.1142783 0.520592,0.3642562 0.673959,0.6246318 0.119868,0.203502 0.125186,0.622752 0.01021,0.804434 -0.180235,0.284792 -0.570703,0.371689 -0.806666,0.179524 z M 11.331234,11.061806 c -0.06619,-0.127249 -0.162543,-0.209482 -0.317058,-0.270577 -0.261195,-0.103279 -0.440918,-0.07089 -0.616717,0.111116 -0.117089,0.121232 -0.124187,0.12249 -0.124187,0.02205 0,-0.05859 0.05963,-0.168273 0.13253,-0.243743 0.114363,-0.11841 0.164533,-0.133472 0.366009,-0.10996 0.285793,0.03335 0.47424,0.168833 0.600356,0.431608 0.121392,0.252935 0.08625,0.304028 -0.04093,0.05952 z m 1.437472,-0.64408 C 12.494637,10.313884 12.158732,9.9637062 12.012609,9.6295038 11.901607,9.3756272 11.893863,9.2901768 11.893863,8.3192465 c 0,-1.1485739 -0.03338,-1.3008999 -0.344501,-1.5719364 -0.301888,-0.2629987 -0.739485,-0.1242749 -0.701164,0.2222838 0.01387,0.1253459 0.04384,0.1539239 0.175442,0.1672185 0.201049,0.020316 0.309409,-0.096564 0.230701,-0.2488218 -0.07562,-0.1462907 -0.07013,-0.1667086 0.04496,-0.1667086 0.124915,0 0.260236,0.1933724 0.259898,0.3713916 -1.41e-4,0.074038 -0.05404,0.2042205 -0.119782,0.2892817 -0.09944,0.1286611 -0.166807,0.1587183 -0.400838,0.1788062 -0.248352,0.021319 -0.300514,0.00748 -0.445209,-0.1186306 -0.5958348,-0.5190763 -0.02893,-1.535844 0.76867,-1.3786507 0.549127,0.1082263 0.969124,0.69919 0.969124,1.3636289 0,0.1434006 -0.04995,0.5827047 -0.111012,0.9762345 -0.0955,0.6155433 -0.102328,0.7556799 -0.04886,1.0030618 0.134824,0.6237456 0.556715,1.0157086 1.08592,1.0088876 0.187667,-0.0024 0.248308,0.01055 0.180066,0.03833 -0.159321,0.06501 -0.442341,0.04979 -0.668577,-0.03591 z m 6.173441,-0.02627 c -0.124326,-0.02863 -0.101416,-0.03677 0.117806,-0.04184 0.28362,-0.0067 0.591518,-0.134629 0.737943,-0.306909 0.04622,-0.054386 0.138581,-0.206743 0.205246,-0.3385733 0.157362,-0.3111884 0.157906,-0.9001919 0.0014,-1.5446856 -0.202901,-0.8356918 -0.124756,-1.5348256 0.213215,-1.9075483 0.332913,-0.3671466 0.862758,-0.4678941 1.22877,-0.2336437 0.429718,0.2750216 0.508332,0.8561011 0.164046,1.2125507 -0.149698,0.1549952 -0.212577,0.1829307 -0.41163,0.1829307 -0.200175,0 -0.261749,-0.027762 -0.41608,-0.1875378 C 20.628434,7.0663034 20.606479,7.014045 20.63397,6.8717324 c 0.04047,-0.2095112 0.119605,-0.3102401 0.243724,-0.3102401 0.111612,0 0.116864,0.021064 0.04158,0.1667085 -0.07871,0.1522581 0.02966,0.2691343 0.230701,0.2488219 0.135182,-0.0136 0.161002,-0.040139 0.174082,-0.178553 0.03041,-0.3218108 -0.361669,-0.4715952 -0.654783,-0.250141 -0.07276,0.054964 -0.178588,0.1942734 -0.235179,0.3095652 -0.116205,0.2367377 -0.135024,0.7588096 -0.05748,1.5945132 0.07426,0.8002539 -0.11046,1.3462711 -0.589424,1.7423199 -0.201058,0.16625 -0.587123,0.256129 -0.845072,0.196733 z M 12.783459,10.022634 C 12.679775,9.9341462 12.530331,9.7250257 12.451361,9.5579143 12.324756,9.2900003 12.308354,9.1972379 12.312637,8.7733415 12.315401,8.5012644 12.366868,8.0498576 12.431258,7.7333255 12.735131,6.2394303 12.564903,5.2428188 11.9266,4.7787685 11.724727,4.6320017 11.667534,4.6173302 11.297577,4.6173302 c -0.223828,0 -0.406954,-0.00629 -0.406949,-0.01411 7e-6,-0.00782 0.07525,-0.061593 0.167216,-0.1196506 0.216789,-0.1368556 0.658034,-0.1394227 0.938914,-0.00544 0.223188,0.1064413 0.389847,0.2542178 0.594346,0.527014 l 0.130993,0.1747431 -0.0208,-0.3382878 c -0.01633,-0.2655318 0.0038,-0.3975267 0.09364,-0.6137328 0.137606,-0.3311764 0.440965,-0.6302318 0.687963,-0.6782076 0.278173,-0.054028 0.33616,6.834e-4 0.115609,0.1090762 -0.239861,0.1178827 -0.457398,0.4139204 -0.546634,0.7439002 -0.183915,0.6800879 0.316393,1.6118742 1.356225,2.5258677 0.785539,0.6904754 1.076966,1.1052237 1.146697,1.6319368 0.03455,0.2609756 -0.05679,0.6800251 -0.169309,0.776701 -0.056,0.048112 -0.05471,0.028493 0.0061,-0.092194 0.118582,-0.23541 0.09795,-0.693272 -0.0453,-1.0055693 C 15.202496,7.9259207 14.905403,7.623681 14.234728,7.1085607 13.69322,6.6926495 13.247344,6.234286 12.998066,5.8372624 12.858179,5.6144636 12.839469,5.5995846 12.870623,5.7359215 c 0.09873,0.4320772 0.03205,1.1108 -0.203956,2.0758362 -0.127927,0.5231038 -0.232596,1.0386968 -0.232596,1.1457602 0,0.3770783 0.149278,0.7577351 0.392025,0.9996564 0.262001,0.2611097 0.235073,0.3024847 -0.04262,0.065489 z M 12.954971,9.934165 C 12.5712,9.6211017 12.401778,8.7891244 12.639571,8.385333 12.756299,8.1871187 13.02352,8.0001402 13.190488,7.9998479 c 0.12739,-2.176e-4 0.375413,0.1046561 0.375413,0.1587523 0,0.019432 -0.109521,0.069516 -0.24338,0.1113033 -0.339046,0.1058292 -0.476981,0.3266543 -0.476595,0.7629782 5.56e-4,0.6305562 0.172304,0.9253819 0.579034,0.9939853 l 0.218112,0.03679 -0.257237,0.0061 c -0.206096,0.005 -0.291754,-0.02208 -0.430864,-0.1355643 z m 6.49396,0.00494 C 19.876165,9.4915429 19.925139,8.894476 19.614563,7.919797 19.303735,6.9443258 19.26082,6.7302941 19.255673,6.1298729 l -0.0049,-0.5648302 -0.141274,0.2666742 c -0.299659,0.5656514 -0.633702,0.9309738 -1.472831,1.6107437 -0.370873,0.3004411 -0.672756,0.676761 -0.804224,1.0025263 -0.09964,0.2469023 -0.09828,0.6860024 0.0028,0.9022952 0.07251,0.155148 0.07241,0.1610473 -10e-4,0.065588 C 16.709646,9.2510239 16.640319,8.9115103 16.676926,8.6426686 16.741735,8.1667331 16.942887,7.8610185 17.733089,7.0375162 18.161622,6.590924 18.554469,6.1288881 18.656243,5.9517735 19.045884,5.2736933 19.124595,4.6723439 18.88369,4.2140841 18.76102,3.9807345 18.434939,3.685234 18.300113,3.685234 c -0.0289,0 -0.05255,-0.023971 -0.05255,-0.053262 0,-0.087604 0.247769,-0.060438 0.457085,0.050135 0.416735,0.2201129 0.721144,0.8149458 0.659714,1.2891218 -0.01506,0.1162335 -0.0064,0.1925258 0.01994,0.1756731 0.02561,-0.01632 0.04655,-0.054419 0.04655,-0.084511 0,-0.1197017 0.321173,-0.5067288 0.53806,-0.6483903 0.292006,-0.1907236 0.694892,-0.2428103 0.967147,-0.1250398 0.258062,0.1116263 0.243082,0.1735597 -0.03642,0.1505408 -0.50574,-0.041652 -0.938355,0.2413126 -1.167778,0.7637976 -0.103471,0.2356446 -0.117129,0.3522301 -0.118561,1.0120347 -0.0014,0.6650168 0.01643,0.8213823 0.165202,1.4450178 0.204762,0.8583537 0.224183,1.4549276 0.05961,1.8307818 -0.113542,0.2592959 -0.269949,0.4563096 -0.432979,0.5453865 -0.07059,0.03858 -0.05686,0.008 0.04376,-0.097397 z M 18.87767,9.972798 c 0.371658,-0.074668 0.553226,-0.3726045 0.553226,-0.9077927 0,-0.5560121 -0.162301,-0.7996282 -0.583794,-0.8762826 -0.191981,-0.03492 -0.195227,-0.039102 -0.107783,-0.1391334 0.207383,-0.2372529 0.727658,-0.052022 0.910149,0.3240395 0.202666,0.4176317 0.06277,1.1461124 -0.282032,1.4686254 -0.166763,0.1559802 -0.228439,0.1806658 -0.438298,0.1754018 l -0.244228,-0.0061 z m -5.647263,-0.23245 c -0.27965,-0.2895386 -0.301675,-0.7129556 -0.05061,-0.9728942 0.126145,-0.1305991 0.353951,-0.172261 0.411825,-0.075313 0.01749,0.029292 -0.01151,0.053263 -0.06444,0.053263 -0.05293,0 -0.146618,0.048605 -0.208203,0.1080053 -0.281161,0.2711964 -0.18179,0.8645094 0.169743,1.0134736 0.09406,0.039852 0.09472,0.043892 0.0077,0.046971 -0.05234,0.0019 -0.172066,-0.076227 -0.26604,-0.173524 z m 3.519771,-0.00864 C 16.453399,9.530193 16.331356,9.2669903 16.305173,8.7719647 c -0.03094,-0.585095 0.07994,-0.8656349 0.61055,-1.5446859 0.543922,-0.6960856 0.631102,-0.873355 0.63458,-1.2903339 0.0024,-0.2908593 -0.01422,-0.3491666 -0.135596,-0.4749461 -0.229147,-0.2374619 -0.607624,-0.1664195 -0.607624,0.1140576 0,0.272825 0.372361,0.3344763 0.402134,0.066575 0.02747,-0.2471676 0.215234,-0.1312112 0.215234,0.1329282 0,0.2196028 -0.206014,0.4130449 -0.439888,0.4130449 -0.587436,0 -0.848409,-0.7032957 -0.427721,-1.1526692 0.468087,-0.5000067 1.230106,-0.2540496 1.463111,0.4722497 0.18865,0.5880412 -0.02333,1.0945201 -0.789694,1.8867769 -0.631131,0.6524567 -0.78204,0.9324135 -0.782805,1.4522143 -5.94e-4,0.4015779 0.14937,0.7220304 0.422679,0.9032313 0.09265,0.061428 0.145311,0.110675 0.117016,0.1094509 -0.02829,-0.00123 -0.134933,-0.058909 -0.236971,-0.1281854 z m 2.268437,-0.091995 c 0.220223,-0.3739655 0.05722,-0.9399178 -0.272431,-0.9459174 -0.139777,-0.00255 -0.04873,-0.1082262 0.09323,-0.1082262 0.20731,0 0.392388,0.2117773 0.421889,0.4827493 0.03076,0.282563 -0.07883,0.5986715 -0.238146,0.6869509 L 18.9154,9.8149683 Z M 15.354331,9.6203242 C 15.64558,9.4395737 15.799065,9.1348655 15.796602,8.7422742 15.793838,8.3035209 15.610724,7.9397915 15.181356,7.5202438 14.198607,6.5599763 14.030321,6.2998065 14.02943,5.7393675 14.028742,5.3074468 14.177746,4.9985838 14.483716,4.7976868 15.065347,4.4157957 15.766452,4.7948019 15.710941,5.460968 15.676411,5.8753593 15.346854,6.1229401 14.968488,6.0187327 14.77248,5.9647551 14.62154,5.712073 14.668813,5.5170702 c 0.03645,-0.1503539 0.183272,-0.172312 0.183272,-0.027422 0,0.1627304 0.134894,0.2458552 0.284483,0.1752905 0.241937,-0.1141251 0.116648,-0.4883574 -0.163498,-0.4883574 -0.07387,0 -0.1931,0.066472 -0.279285,0.1556921 -0.129009,0.1335743 -0.150224,0.1960279 -0.149254,0.4394367 0.0016,0.4006717 0.121455,0.6312026 0.659225,1.2679083 0.573451,0.6789523 0.689416,0.9096481 0.718496,1.4293432 0.02305,0.4119399 -0.05547,0.7223942 -0.240594,0.9513168 -0.101723,0.1257876 -0.412453,0.3368766 -0.495166,0.3363853 -0.02829,-1.655e-4 0.04724,-0.061542 0.167839,-0.1363793 z M 4.3975769,9.599494 C 4.2643601,9.5813878 4.1406915,9.5513819 4.1227578,9.5328194 4.0578262,9.4655983 4.4964756,9.2240598 4.7705969,9.1760991 c 0.4908308,-0.08587 0.8724155,-0.1138025 0.8724155,-0.063854 0,0.026522 -0.079044,0.1200587 -0.175653,0.2078877 C 5.203267,9.5602002 4.8284939,9.6580717 4.3975769,9.5995007 Z M 17.147401,9.539634 c -0.384477,-0.3131147 -0.383398,-1.0056862 0.0024,-1.5293375 0.173958,-0.2361292 0.53555,-0.4054694 0.778602,-0.3646354 0.187117,0.031434 0.473567,0.2676959 0.473567,0.3905885 0,0.092331 -0.06239,0.088199 -0.278258,-0.018378 -0.167599,-0.082742 -0.193851,-0.082369 -0.417139,0.00595 -0.264357,0.1045201 -0.476468,0.3611418 -0.619887,0.7499454 -0.116729,0.3164487 -0.06722,0.5664471 0.14677,0.7410659 0.09091,0.074192 0.139474,0.135155 0.10792,0.1354781 -0.03155,3.318e-4 -0.118834,-0.049471 -0.193955,-0.1106399 z M 15.043718,9.3565882 C 15.211369,9.1830131 15.223266,9.1494912 15.20128,8.9125936 15.173149,8.6094717 14.890194,8.1300477 14.654607,7.9863377 14.468399,7.8727392 14.135801,7.8651229 14.000175,7.9713771 c -0.133425,0.104486 -0.177037,0.100797 -0.177037,-0.01496 0,-0.1468178 0.269814,-0.3829877 0.477405,-0.4178645 0.381974,-0.064178 0.83538,0.3091487 1.006408,0.8286517 0.03278,0.09959 0.0596,0.312134 0.0596,0.4723347 0,0.2673305 -0.01642,0.3082766 -0.199736,0.4980704 -0.109855,0.1137344 -0.223296,0.2067926 -0.252092,0.2067926 -0.0288,0 0.02925,-0.084494 0.128989,-0.1877502 z m -0.176317,-0.023852 c 0.04817,-0.07244 0.08749,-0.2042649 0.08738,-0.2929574 -4.51e-4,-0.3784723 -0.427601,-0.7495356 -0.709659,-0.6164816 -0.165966,0.078288 -0.191582,0.044116 -0.05962,-0.079529 0.374841,-0.3512118 0.995432,0.2535972 0.821166,0.8002844 -0.03133,0.098281 -0.09519,0.2105787 -0.141909,0.2495409 -0.07608,0.063447 -0.07582,0.057105 0.0027,-0.060863 z m 2.404518,0.00204 C 17.196549,9.1889781 17.205889,8.8721605 17.290569,8.70264 17.456456,8.3705183 17.784587,8.2399667 17.994782,8.4224622 l 0.124212,0.1078352 -0.16275,-0.031365 c -0.228,-0.043947 -0.457625,0.1109463 -0.592678,0.3997809 -0.09047,0.1934898 -0.100265,0.2626909 -0.05482,0.3873348 0.06328,0.1735531 0.04216,0.2015038 -0.03682,0.048724 z m 9.70002,0.02392 C 26.860959,9.3177587 26.6989,9.2082914 26.611808,9.1154525 l -0.15835,-0.1688168 0.550858,0.026674 c 0.42654,0.020656 0.604141,0.053365 0.786947,0.1449986 0.129848,0.065079 0.227513,0.1449478 0.217036,0.1774973 -0.0463,0.1438257 -0.708089,0.1839914 -1.03636,0.062902 z m -3.52957,-0.1581951 c 0.390623,-0.2227683 0.737576,-0.5556329 0.890807,-0.8546389 0.148716,-0.2901964 0.149061,-0.7738843 7.55e-4,-1.0653012 -0.26388,-0.5185357 -0.759194,-0.7122567 -0.882765,-0.3452564 -0.04121,0.1224049 -0.03266,0.1668446 0.04641,0.2409233 0.0936,0.087689 0.218891,0.087383 0.422096,-0.00104 0.12287,-0.053467 0.115524,0.052345 -0.01287,0.1852768 -0.112952,0.1169476 -0.403368,0.1433326 -0.568769,0.051682 -0.05444,-0.030159 -0.133695,-0.1243429 -0.176126,-0.2092952 -0.18109,-0.3625648 0.121709,-0.8011617 0.553108,-0.8011617 0.739717,0 1.24746,1.1338512 0.858683,1.9175413 -0.183755,0.3704105 -0.88392,0.9136041 -1.335711,1.0362537 -0.07074,0.019211 0.02122,-0.050543 0.204369,-0.1549781 z M 8.510503,9.2025452 C 8.1591257,9.0529053 8.0193206,8.9621081 7.7443885,8.7049474 7.4242963,8.405547 7.3176452,8.1502445 7.316251,7.6800671 7.3152219,7.3352715 7.3360157,7.2414176 7.4680824,6.9945322 7.6587425,6.6381131 7.8909721,6.4497235 8.181458,6.4158242 8.4704422,6.3820949 8.6895247,6.4990936 8.8036439,6.7480785 8.9131512,6.9870008 8.8721642,7.2141128 8.6932404,7.3598273 8.5117793,7.507614 8.2002964,7.5029558 8.0630411,7.3504768 7.8929846,7.1614924 7.9192094,7.1071089 8.1319931,7.2074843 8.3838561,7.3263019 8.6203261,7.1645065 8.5465506,6.923845 8.4587115,6.6373089 8.0400981,6.7256343 7.7968825,7.0820192 7.521576,7.4854282 7.4820748,7.8980633 7.6794982,8.3082368 7.8410614,8.6439082 8.1527592,8.9373585 8.5856367,9.1613305 8.9685856,9.3594698 8.9294698,9.3809282 8.510503,9.202557 Z M 6.208933,8.7386937 C 6.1381929,8.7094408 5.7600058,8.6631752 5.3685171,8.6358788 4.6897163,8.5885506 4.4663871,8.5328615 4.2518412,8.3574283 4.0676761,8.2068363 3.8825201,7.8785619 3.7460199,7.4606225 3.6658377,7.2151193 3.5156146,6.8246921 3.4121909,6.5930069 3.3087671,6.3613218 3.233125,6.1624666 3.2440972,6.1511067 c 0.010973,-0.011391 0.2131279,0.00442 0.4492347,0.035073 0.2361067,0.030652 0.6266781,0.056305 0.8679369,0.057004 0.2412585,6.97e-4 0.5295509,0.023087 0.6406497,0.049779 0.2295924,0.055134 0.565766,0.2843311 0.7063769,0.4816051 0.097361,0.1366004 0.3006376,0.6659622 0.3006376,0.7829098 0,0.1327073 0.2093269,0.6390909 0.3107999,0.7518564 0.082045,0.091175 0.087976,0.1164546 0.027327,0.1164546 -0.1248643,0 -0.4181728,-0.3403194 -0.652985,-0.7576468 C 5.7741424,7.4549868 5.609823,7.2161817 5.5289207,7.1374619 5.355695,6.9689002 4.9545679,6.867736 4.5537147,6.8914911 c -0.2593791,0.0153 -0.273112,0.023376 -0.256424,0.1494019 0.0097,0.073238 0.061495,0.2649928 0.1151061,0.4261201 0.1399283,0.4205558 0.3515976,0.6020141 0.9052329,0.7760364 0.4984981,0.1566951 0.8864947,0.3413309 0.9908675,0.4715373 0.076787,0.095799 0.074886,0.096258 -0.099564,0.024107 z M 25.833815,8.4815008 c 0.09387,-0.101443 0.263588,-0.1855674 0.533026,-0.2641971 0.217416,-0.063447 0.487905,-0.1430097 0.60109,-0.1768054 0.307629,-0.091854 0.567148,-0.3987099 0.692468,-0.8187845 0.152962,-0.5127317 0.158907,-0.500464 -0.242304,-0.5001206 -0.648783,5.491e-4 -0.81123,0.1066792 -1.263384,0.8253111 -0.356978,0.5673651 -0.834034,0.9953842 -0.556633,0.4994133 0.05532,-0.098909 0.170959,-0.3883649 0.25698,-0.6432508 0.222391,-0.6589562 0.340854,-0.8746387 0.578135,-1.0525965 0.291253,-0.2184382 0.438897,-0.2568853 1.229277,-0.3201227 0.381996,-0.030567 0.793844,-0.070655 0.915216,-0.089084 l 0.220678,-0.033525 -0.113748,0.2869356 c -0.06256,0.1578172 -0.198575,0.5505972 -0.302253,0.8728519 -0.236162,0.7340396 -0.30329,0.8669185 -0.55858,1.1057065 -0.266512,0.2492859 -0.475944,0.3046503 -1.164537,0.3078566 -0.343508,0.0016 -0.643979,0.031451 -0.764539,0.075942 l -0.19862,0.073307 z M 6.5733509,7.1008748 C 6.4521253,6.5662768 6.4407199,6.3333931 6.523695,6.0869598 L 6.58122,5.9161133 6.6984174,6.0946782 c 0.2446252,0.3727176 0.299188,0.9181501 0.1268377,1.2679202 -0.057167,0.1160125 -0.1131166,0.2109374 -0.124332,0.2109374 -0.011215,0 -0.068623,-0.212697 -0.1275722,-0.472661 z M 25.244257,7.3072118 C 25.06816,6.9548424 25.075287,6.5228655 25.26403,6.1087479 l 0.145662,-0.3195905 0.07596,0.2130609 c 0.08464,0.2374296 0.06271,0.7449931 -0.05408,1.2517288 l -0.06752,0.2929572 z M 12.36723,6.7053745 C 12.287689,5.8234494 11.879413,5.1984198 11.293915,5.062219 10.642836,4.9107599 9.8938451,5.4336497 10.264461,5.7809036 c 0.202798,0.1900131 0.39587,0.044678 0.387354,-0.2915853 -0.0029,-0.1133945 0.0067,-0.2061773 0.0211,-0.2061773 0.07441,0 0.1632,0.2104462 0.164644,0.390269 0.0012,0.1574773 -0.03401,0.2407448 -0.155093,0.3661061 -0.133997,0.1387255 -0.183427,0.1577832 -0.34079,0.1313472 C 9.9883375,6.1114967 9.7664004,5.7560725 9.8593967,5.3985076 9.9640854,4.9959878 10.381972,4.7396414 10.926406,4.7439682 c 0.890804,0.00714 1.396278,0.637508 1.48932,1.8574864 0.01843,0.24169 0.02187,0.4394367 0.0076,0.4394367 -0.01423,0 -0.03949,-0.150983 -0.05614,-0.3355116 z m 7.399702,-0.3432146 c 0.04818,-1.0348614 0.433113,-1.6227157 1.166932,-1.7820749 0.438822,-0.095288 0.824677,0.010371 1.107985,0.30319 0.195665,0.2022893 0.218651,0.2525466 0.218651,0.4780809 0,0.2155991 -0.02528,0.2782042 -0.174921,0.4331295 -0.222761,0.2306294 -0.427595,0.2409302 -0.65257,0.032812 -0.126604,-0.1171176 -0.160298,-0.1911708 -0.160298,-0.35231 0,-0.1159956 0.03552,-0.2407907 0.08231,-0.289246 0.07545,-0.078118 0.08231,-0.071947 0.08231,0.07414 0,0.1951439 0.127946,0.3961207 0.25218,0.3961207 0.0506,0 0.134542,-0.048655 0.186532,-0.1081412 C 22.070974,5.3248524 21.770969,4.960018 21.3291,4.8827262 20.50345,4.7383055 19.956059,5.3202486 19.790437,6.5185154 c -0.04293,0.3105971 -0.0447,0.2987969 -0.02352,-0.1563552 z M 18.23815,6.188646 C 18.52937,5.6645918 18.638178,4.9131401 18.479701,4.5204501 18.302148,4.0804914 17.722555,3.7319557 17.303757,3.8132987 c -0.263824,0.05124 -0.367228,0.2760859 -0.221718,0.4821136 0.09873,0.1397965 0.320616,0.068631 0.44469,-0.1425846 0.08251,-0.1404766 0.104741,-0.1534312 0.132882,-0.077506 0.04466,0.1205177 -0.06774,0.3933343 -0.202251,0.4908757 -0.312235,0.226425 -0.753172,-0.040462 -0.753172,-0.4558696 0,-0.2914273 0.146925,-0.4995681 0.432284,-0.6123983 0.190595,-0.075364 0.268958,-0.079631 0.510061,-0.027813 0.743632,0.1598233 1.227866,0.9350505 1.064443,1.704086 -0.06783,0.3191994 -0.306569,0.8592172 -0.473022,1.069966 -0.103291,0.1307861 -0.10329,0.1307182 1.92e-4,-0.055507 z M 13.813873,6.0954318 C 13.668904,5.9191586 13.512307,5.6129441 13.410578,5.3068181 c -0.259957,-0.7822722 -0.0012,-1.4790922 0.679905,-1.831511 0.481957,-0.2493454 0.859266,-0.203379 1.11719,0.1361073 0.197696,0.2602105 0.102473,0.7319248 -0.174085,0.8623845 -0.173729,0.08196 -0.209142,0.080328 -0.410975,-0.018837 -0.170866,-0.083949 -0.285002,-0.265236 -0.285002,-0.4526921 0,-0.1473789 0.06342,-0.1283891 0.160337,0.048043 0.100934,0.1837313 0.259264,0.2356819 0.402256,0.1319931 0.237222,-0.172028 0.04164,-0.4971098 -0.299073,-0.4971098 -0.530531,0 -1.016039,0.4504634 -1.10127,1.0217777 -0.04208,0.2820583 0.08944,0.8623268 0.270892,1.195205 0.161981,0.2971546 0.174423,0.3529152 0.04312,0.1932602 z M 11.99985,4.0708181 C 11.916662,3.9697661 11.61898,3.6945797 11.338332,3.4592734 10.581958,2.8250974 10.519151,2.5977303 10.803445,1.5229362 c 0.100007,-0.378083 0.196499,-0.78330254 0.214427,-0.90048476 0.06675,-0.43634771 0.06505,-0.43545008 0.328215,-0.17194988 0.131501,0.1316702 0.389576,0.35146846 0.5735,0.48845305 0.560274,0.41728659 0.865275,0.75680359 0.952245,1.06001049 0.106395,0.3709291 0.100799,0.4268341 -0.108205,1.0809213 C 12.661929,3.3981559 12.575111,3.7604215 12.5707,3.8849208 12.5663,4.0094167 12.55571,4.1112899 12.54719,4.1112967 12.53869,4.1113035 12.49613,4.023165 12.45265,3.9154302 12.38909,3.7579359 12.38067,3.6024734 12.40965,3.1222028 12.43412,2.716679 12.42654,2.4647308 12.38602,2.337632 12.321614,2.1355655 11.932116,1.7256521 11.672408,1.586607 11.481711,1.4845181 11.467697,1.5012977 11.327974,1.9991725 c -0.135773,0.4838085 -0.08412,0.6783641 0.332968,1.2541871 0.309685,0.4275447 0.571543,0.9323439 0.510446,0.9840141 -0.01116,0.00952 -0.08836,-0.065504 -0.171538,-0.1665556 z m -1.450666,-0.00866 C 10.300288,3.9451343 9.901257,3.5883701 9.9423263,3.5195701 10.02808,3.3759144 10.530133,3.52535 11.064055,3.8532694 c 0.25827,0.1586673 0.334485,0.229606 0.28296,0.2633983 -0.122658,0.080447 -0.576757,0.049421 -0.797831,-0.054521 z m 9.293292,0.0051 c 0,-0.1797107 0.10966,-0.3688109 0.484741,-0.8358923 0.362253,-0.4511077 0.422092,-0.6155178 0.374575,-1.0291476 -0.03262,-0.2839213 -0.213214,-0.754153 -0.28964,-0.754153 -0.08732,0 -0.589029,0.4493413 -0.711157,0.6369284 -0.106114,0.1629854 -0.11595,0.2403691 -0.118077,0.9289506 -0.0015,0.4878427 -0.02547,0.8071629 -0.06836,0.9109451 L 19.448518,4.0846773 19.413948,3.79172 C 19.394934,3.6305789 19.309935,3.2611509 19.22507,2.9707473 18.948215,2.0233765 19.038222,1.7063496 19.75208,1.1144797 19.929131,0.96767899 20.235606,0.69227319 20.433134,0.50245561 l 0.359144,-0.34512041 0.06298,0.15264903 c 0.03464,0.0839663 0.06402,0.19504527 0.06529,0.24685482 0.0012,0.0518011 0.08663,0.36340973 0.189673,0.69244405 0.103044,0.3290361 0.197881,0.7540477 0.210748,0.9444706 0.02062,0.3051552 0.0057,0.3809714 -0.125362,0.6391792 -0.116249,0.2289379 -0.232573,0.3550268 -0.532294,0.576979 -0.488503,0.3617522 -0.626689,0.4834736 -0.734128,0.6466528 l -0.08671,0.1317041 z m 1.05467,0.00595 c -0.250788,-0.052294 -0.243178,-0.077489 0.09419,-0.311799 0.378589,-0.2629494 0.531292,-0.3368956 0.815363,-0.3948373 0.32384,-0.066047 0.351389,0.01899 0.09011,0.278182 C 21.570323,3.96863 21.18587,4.1334072 20.897147,4.0732061 Z M 13.183421,3.272322 c 0.04506,-0.1098582 0.140291,-0.349175 0.211626,-0.5318114 0.122233,-0.3129519 0.40345,-0.6533358 0.539768,-0.6533358 0.08203,0 0.01469,0.4357289 -0.113845,0.7365574 C 13.700096,3.106642 13.549926,3.2894265 13.349805,3.3972294 13.1277,3.5168802 13.093612,3.4912772 13.183421,3.2723255 Z M 18.68491,3.4100445 C 18.386248,3.2394445 18.140765,2.8814562 18.06998,2.5132881 18.05026,2.410757 18.02273,2.2849147 18.00878,2.2336474 c -0.03611,-0.1327752 0.07203,-0.1156895 0.273151,0.043131 0.115914,0.091532 0.248552,0.3000551 0.403573,0.6344583 0.127002,0.2739623 0.230912,0.5122217 0.230912,0.5294654 0,0.049421 -0.118879,0.033679 -0.231513,-0.030669 z"
       id="path1" /></g></svg>
