<?xml version="1.0" encoding="UTF-8" standalone="no"?>
<!-- Created with Inkscape (http://www.inkscape.org/) -->

<svg
   width="512"
   height="512"
   viewBox="0 0 512 512"
   version="1.1"
   id="svg1"
   xml:space="preserve"
   inkscape:version="1.4.2 (f4327f4, 2025-05-13)"
   xmlns:inkscape="http://www.inkscape.org/namespaces/inkscape"
   xmlns:sodipodi="http://sodipodi.sourceforge.net/DTD/sodipodi-0.dtd"
   xmlns:xlink="http://www.w3.org/1999/xlink"
   xmlns="http://www.w3.org/2000/svg"
   xmlns:svg="http://www.w3.org/2000/svg"><sodipodi:namedview
     id="namedview1"
     pagecolor="#ffffff"
     bordercolor="#000000"
     borderopacity="0.25"
     inkscape:showpageshadow="2"
     inkscape:pageopacity="0.0"
     inkscape:pagecheckerboard="0"
     inkscape:deskcolor="#d1d1d1"
     inkscape:document-units="px"
     inkscape:zoom="0.75488281"
     inkscape:cx="92.06727"
     inkscape:cy="86.768435"
     inkscape:window-width="1920"
     inkscape:window-height="991"
     inkscape:window-x="-9"
     inkscape:window-y="-9"
     inkscape:window-maximized="1"
     inkscape:current-layer="layer1" /><defs
     id="defs1"><linearGradient
       id="linearGradient1"
       inkscape:collect="always"><stop
         style="stop-color:#ff8c38;stop-opacity:1;"
         offset="0"
         id="stop1" /><stop
         style="stop-color:#e8a325;stop-opacity:1;"
         offset="1"
         id="stop2" /></linearGradient><radialGradient
       inkscape:collect="always"
       xlink:href="#linearGradient1"
       id="radialGradient2"
       cx="259.44098"
       cy="265.47592"
       fx="259.44098"
       fy="265.47592"
       r="243.25177"
       gradientTransform="matrix(1,0,0,0.6900442,0,82.285796)"
       gradientUnits="userSpaceOnUse"
       spreadMethod="pad" /></defs><g
     inkscape:label="Layer 1"
     inkscape:groupmode="layer"
     id="layer1"><path
       style="fill:url(#radialGradient2)"
       d="m 239.7155,431.24574 c -6.2656,-3.97353 -9.24855,-12.31467 -6.1577,-17.21862 1.79988,-2.8557 4.5011,-4.62202 6.2295,-4.07345 1.84507,0.58561 2.10192,2.07196 1.24913,7.22844 -0.66643,4.02964 -0.59393,4.65622 0.85487,7.38722 1.75265,3.30378 3.80171,4.55415 7.46319,4.55415 2.96486,0 5.85013,-2.57849 5.85013,-5.22811 0,-1.03099 0.29997,-1.62686 0.69582,-1.38221 1.03295,0.63839 0.84319,3.61115 -0.38169,5.97982 -2.6456,5.11603 -10.04451,6.40484 -15.80325,2.75276 z m 28.22168,0.6892 c -2.49523,-1.52143 -4.38268,-4.64746 -4.38268,-7.25869 0,-2.59596 1.26823,-2.87252 1.52053,-0.33159 0.28011,2.82098 3.01271,4.91798 6.40861,4.91798 5.41544,0 8.59633,-4.61135 7.72919,-11.20505 -0.69587,-5.29139 -0.59972,-6.3784 0.67713,-7.65525 0.98509,-0.98509 1.28771,-0.98932 2.97622,-0.0416 6.32945,3.55263 6.57974,11.82045 0.56479,18.65648 -3.66629,4.16675 -11.13775,5.57374 -15.49379,2.9177 z M 200.58247,421.8427 c -3.61305,-1.3135 -7.70122,-5.71796 -8.67949,-9.351 -1.98567,-7.3742 3.1782,-14.77699 9.58279,-13.73767 2.39092,0.388 5.70702,2.81143 5.70702,4.17074 0,0.3827 -0.74977,-0.009 -1.66615,-0.86945 -1.78519,-1.6771 -2.05082,-1.525 -2.80061,1.60362 -0.60359,2.51861 0.68296,5.791 2.50399,6.36897 3.22629,1.02398 5.22142,-4.10103 3.09166,-7.94171 -1.40887,-2.54066 -6.47607,-5.5698 -11.87692,-7.09994 -15.68689,-4.44434 -18.48903,-5.95872 -22.234,-12.01607 -2.96036,-4.78827 -3.25281,-9.70952 -0.8668,-14.58634 2.43708,-4.98121 5.96728,-7.04702 11.28834,-6.60576 4.19649,0.34801 6.2128,1.71577 7.69632,5.22079 1.20199,2.83987 1.20495,5.14509 0.009,6.78105 -0.84766,1.15924 -0.90752,1.06971 -0.61543,-0.92045 1.07606,-7.33162 -7.51225,-11.10287 -12.93513,-5.68 -3.43368,3.43368 -3.48541,9.20975 -0.12474,13.92937 2.00212,2.81173 3.12051,2.67362 1.38601,-0.17115 -2.40218,-3.93987 -1.37188,-9.42669 2.24595,-11.96072 2.61185,-1.82941 2.88854,-1.21346 0.61706,1.37362 -4.91304,5.59564 -0.90706,12.84852 7.09661,12.84852 3.82079,0 7.18499,-2.1389 9.33507,-5.93507 2.85871,-5.04733 1.44714,-11.31365 -3.2877,-14.5949 -3.57531,-2.47769 -8.86972,-2.92635 -17.34757,-1.47005 -11.95306,2.05325 -18.86342,1.1982 -26.32328,-3.25708 -5.14248,-3.07127 -7.4676,-6.63584 -7.4676,-11.44835 0,-3.27107 0.25963,-3.99614 1.95232,-5.45212 2.45318,-2.11014 6.1828,-2.24199 8.13712,-0.28767 1.75999,1.76 1.76703,3.57055 0.022,5.66346 l -1.36963,1.64269 0.80531,-2.20564 c 0.63388,-1.73616 0.61106,-2.43969 -0.10722,-3.30516 -1.25877,-1.51674 -3.94376,-1.37699 -5.61288,0.29212 -3.1951,3.19511 -0.5496,8.16305 6.2768,11.78712 3.79575,2.01513 5.38845,2.43855 10.07505,2.67846 3.40632,0.17437 7.8242,-0.14692 11.384,-0.8279 7.92637,-1.51629 15.68164,-1.43573 19.23224,0.19977 9.18564,4.23116 12.52555,15.13395 7.14874,23.33635 -2.06797,3.15473 -6.19223,5.8956 -9.91885,6.59181 -1.76477,0.32969 -3.35453,0.74531 -3.53281,0.92358 -0.17828,0.17828 2.31396,1.02105 5.53829,1.87284 6.84844,1.80916 12.30714,4.89007 15.31989,8.64658 1.89192,2.35898 2.14451,3.19676 2.14451,7.11286 0,5.06408 -1.20816,6.91108 -5.01926,7.6733 -1.88838,0.37767 -2.56943,0.10792 -4.43323,-1.75588 -1.96507,-1.96506 -2.16009,-2.51683 -1.81182,-5.12612 0.21465,-1.60821 0.61539,-3.67469 0.89054,-4.59216 0.46682,-1.55662 0.36512,-1.63517 -1.52122,-1.17504 -3.24158,0.79071 -5.25615,3.28814 -5.67906,7.04023 -0.71236,6.31999 3.48763,10.76315 10.17407,10.76315 3.11333,0 3.91919,-0.31643 6.31261,-2.47874 2.21752,-2.00339 3.36678,-4.08053 5.99294,-10.83139 3.43361,-8.82652 6.18577,-13.15344 10.00213,-15.72529 7.27744,-4.90426 17.86466,-3.49839 24.45334,3.24716 4.62555,4.73568 6.41848,8.90037 6.77765,15.74338 0.3375,6.43024 -0.53835,8.59388 -4.07118,10.05723 -2.96587,1.2285 -5.5783,-0.54186 -5.43252,-3.68146 0.0942,-2.02972 0.13163,-2.06648 0.38922,-0.38279 0.402,2.62759 1.7162,3.53973 3.90243,2.70852 3.36729,-1.28024 4.12384,-5.23047 2.22584,-11.62176 -3.91303,-13.17658 -17.92603,-18.97566 -26.69961,-11.04925 -2.61446,2.362 -3.76881,4.50127 -7.77676,14.41211 -1.19172,2.94685 -3.0792,6.61751 -4.19442,8.15702 -3.59046,4.9565 -10.80423,7.29951 -16.31069,5.29766 z m 110.6737,0.5505 c -2.71669,-0.76744 -6.67692,-3.78049 -8.40895,-6.39777 -0.97622,-1.47517 -3.31989,-6.38183 -5.20815,-10.90368 -3.91991,-9.3871 -6.26194,-12.27627 -11.31085,-13.95325 -10.22918,-3.39759 -21.43048,5.73183 -22.57946,18.40299 -0.3442,3.79582 -0.22134,4.31005 1.42243,5.95382 2.67104,2.67104 4.66805,2.19035 5.53386,-1.33204 0.26672,-1.08508 0.35986,-0.98107 0.42279,0.47217 0.15746,3.63577 -3.51744,5.21254 -6.79619,2.91601 -2.6993,-1.89066 -3.5401,-4.89971 -2.87275,-10.28089 1.62811,-13.12811 11.30828,-22.07374 22.76747,-21.03984 9.705,0.87562 13.59968,5.023 19.36963,20.6264 1.3547,3.66344 2.80261,6.09999 4.85851,8.17593 2.72456,2.75111 3.18973,2.95707 6.67334,2.95465 6.92783,-0.005 10.80836,-4.07954 10.17386,-10.68299 -0.39429,-4.10341 -2.77868,-6.71 -6.13799,-6.71 -2.06443,0 -2.06546,0.002 -1.00494,2.05292 3.6925,7.14051 -3.28728,13.88413 -8.73345,8.43796 -3.8385,-3.8385 -2.42558,-11.03173 3.10096,-15.78713 3.3523,-2.88453 5.57346,-3.898 13.00885,-5.9357 5.68424,-1.55779 6.59179,-2.68264 2.16802,-2.68712 -2.92194,-0.003 -5.73465,-1.52909 -8.98899,-4.87727 -7.73151,-7.95445 -3.72216,-21.85066 7.39433,-25.6284 3.20142,-1.08794 11.25694,-0.97268 16.76989,0.23994 5.91863,1.30187 14.17604,1.30492 18.54707,0.007 8.53422,-2.53439 13.82589,-9.73122 9.9817,-13.57542 -3.0069,-3.00689 -7.1872,-0.94591 -5.75853,2.83908 0.42178,1.11743 0.53122,2.03169 0.24319,2.03169 -0.64648,0 -2.13872,-3.17855 -2.13872,-4.55559 0,-1.7341 2.66953,-3.79429 4.91651,-3.79429 2.8668,0 4.59926,1.02418 5.86155,3.46519 3.12409,6.04132 -1.04859,12.85609 -10.52945,17.19657 -5.394,2.46945 -12.23958,2.84772 -22.7588,1.25758 -11.54904,-1.74581 -16.22088,-0.64898 -20.21898,4.74693 -2.04281,2.75702 -2.04281,9.31785 0,12.07487 3.66385,4.9448 10.00538,6.58788 14.60376,3.78379 4.40075,-2.68357 4.86368,-8.88891 0.91124,-12.21466 -2.28581,-1.92338 -1.23041,-2.48039 1.31784,-0.69553 3.67565,2.57452 4.55721,7.49144 2.21179,12.33635 l -1.41819,2.92953 2.13312,-2.43199 c 4.05591,-4.62418 4.19749,-10.93169 0.33213,-14.79704 -4.91365,-4.91365 -13.35042,-1.45074 -12.71439,5.21867 0.3162,3.31562 -0.61528,3.43029 -1.23039,0.15147 -1.79533,-9.56994 10.61874,-14.62293 17.58785,-7.15892 7.04478,7.54505 3.43858,20.07478 -7.36388,25.58578 -1.46387,0.74681 -5.88491,2.17491 -9.82454,3.17356 -9.64937,2.44599 -13.90071,4.71361 -15.89471,8.47809 -2.20818,4.16882 0.54548,9.50605 3.78759,7.34124 1.49969,-1.00137 2.45488,-3.7393 2.01047,-5.76272 -0.59593,-2.71324 -1.50899,-3.15378 -3.31812,-1.60094 l -1.49808,1.28586 1.0952,-1.73956 c 0.60236,-0.95676 1.84418,-2.12634 2.75961,-2.59908 7.33506,-3.7879 15.00535,6.13194 11.21832,14.50844 -1.6139,3.56977 -3.55458,5.74263 -6.48028,7.25557 -2.27108,1.17442 -7.80064,1.86155 -9.9941,1.24191 z m -61.16458,-12.92674 c -0.21622,-0.86108 -0.89368,-2.19184 -1.50546,-2.95725 -1.07816,-1.34888 -1.08805,-1.3417 -0.32176,0.23355 1.2097,2.48677 0.34391,2.55781 -2.58121,0.21182 -3.3798,-2.71067 -7.8162,-4.2724 -12.13656,-4.2724 -3.8332,0 -4.36712,-0.95638 -1.82603,-3.27087 4.64883,-4.23426 10.95503,-3.83344 16.0203,1.01826 1.70937,1.63729 3.98463,7.16755 3.98463,9.68505 0,1.51478 -1.21147,1.0342 -1.63391,-0.64816 z m 18.33756,0.34792 c 0.009,-2.93122 1.64848,-6.65134 4.03178,-9.15034 4.49579,-4.71404 11.00567,-5.43957 15.42691,-1.71934 3.20724,2.6987 2.77909,3.73623 -1.54512,3.74428 -4.15605,0.008 -10.08447,2.4244 -13.3199,5.42973 l -2.01277,1.86962 0.41256,-1.73956 c 0.39268,-1.65574 0.36394,-1.67448 -0.59657,-0.38887 -0.55502,0.74287 -1.00913,1.76051 -1.00913,2.26142 0,0.50091 -0.31312,0.91075 -0.69582,0.91075 -0.3827,0 -0.69408,-0.54796 -0.69194,-1.21769 z m -54.62604,-16.1779 c -0.23652,-0.38271 -0.0984,-0.69583 0.30685,-0.69583 0.40529,0 0.73689,0.31312 0.73689,0.69583 0,0.3827 -0.13808,0.69582 -0.30685,0.69582 -0.16876,0 -0.50036,-0.31312 -0.73689,-0.69582 z m 91.50081,0 c 0,-0.38271 0.3316,-0.69583 0.73688,-0.69583 0.40529,0 0.54337,0.31312 0.30685,0.69583 -0.23652,0.3827 -0.56812,0.69582 -0.73689,0.69582 -0.16876,0 -0.30684,-0.31312 -0.30684,-0.69582 z m -93.93619,-2.08747 c 0,-0.38271 0.31312,-0.69583 0.69582,-0.69583 0.38271,0 0.69583,0.31312 0.69583,0.69583 0,0.3827 -0.31312,0.69582 -0.69583,0.69582 -0.3827,0 -0.69582,-0.31312 -0.69582,-0.69582 z m 95.67574,0 c 0.23653,-0.38271 0.72469,-0.69583 1.0848,-0.69583 0.36012,0 0.65476,0.31312 0.65476,0.69583 0,0.3827 -0.48816,0.69582 -1.0848,0.69582 -0.59664,0 -0.89128,-0.31312 -0.65476,-0.69582 z m -98.84442,-2.1481 c -0.71706,-1.16023 0.89567,-2.49071 1.85557,-1.53082 0.80293,0.80293 0.3004,2.28727 -0.77436,2.28727 -0.33753,0 -0.82407,-0.3404 -1.08121,-0.75645 z m 101.27981,-0.21284 c 0,-1.1798 1.8818,-2.01389 2.45416,-1.08779 0.22619,0.36599 0.21774,0.97855 -0.0188,1.36126 -0.64298,1.04035 -2.43538,0.83908 -2.43538,-0.27347 z m 3.71004,-2.9117 c -0.57421,-1.49635 1.57555,-3.63657 2.61186,-2.60026 0.55646,0.55646 0.55113,1.16534 -0.0195,2.2316 -0.93083,1.73928 -2.00763,1.89241 -2.59235,0.36866 z m -109.07568,-0.75822 c -0.24484,-0.63805 -0.17414,-1.43111 0.15711,-1.76237 0.9426,-0.9426 2.92246,0.14491 2.92246,1.60526 0,1.65988 -2.45485,1.78512 -3.07957,0.15711 z m 9.04099,-0.19422 c -3.53364,-2.32939 -4.7023,-5.80789 -3.11883,-9.28321 2.00991,-4.41128 9.70698,-5.39362 11.78838,-1.5045 1.25616,2.34715 -0.10913,3.79214 -3.58299,3.79214 -1.90562,0 -2.6981,0.29937 -2.6981,1.01925 0,1.48332 2.62189,2.6504 4.76162,2.11954 3.18013,-0.78898 4.97991,-3.0429 4.97991,-6.23647 0,-4.94959 -3.00361,-7.36818 -10.92807,-8.79954 -4.22226,-0.76265 -8.27107,-3.04464 -9.81175,-5.5301 -1.36515,-2.20226 -1.81253,-7.77858 -0.85649,-10.67542 0.94814,-2.87288 3.62671,-6.33228 5.80615,-7.49868 0.98516,-0.52724 0.62047,0.19647 -1.12886,2.24018 -4.21132,4.91997 -4.8728,10.30672 -1.79975,14.65606 1.59582,2.25859 3.62972,3.09983 10.7168,4.43262 6.01154,1.13051 8.17575,2.33702 10.61131,5.9156 2.06388,3.03247 2.13163,8.32059 0.14772,11.53062 -2.81894,4.56113 -10.6974,6.58375 -14.88705,3.82191 z m 10.05338,-0.62991 c 7.43718,-3.95212 7.2689,-14.45452 -0.28994,-18.09469 -2.52355,-1.21529 -12.18865,-3.1723 -12.77436,-2.58659 -0.12321,0.12321 2.15325,0.87022 5.05879,1.66004 6.97829,1.89691 9.47731,3.43477 10.66887,6.56549 1.21642,3.19605 0.62769,5.67852 -1.9605,8.26672 -2.44885,2.44885 -6.24284,2.7316 -8.352,0.62244 -1.63228,-1.63228 -1.2706,-3.01682 1.06624,-4.08155 0.98776,-0.45006 1.70128,-1.36507 1.70128,-2.18172 0,-2.04215 -4.29912,-1.96197 -6.23531,0.11629 -1.61629,1.73488 -1.91356,5.9087 -0.54897,7.70772 2.44258,3.22018 7.68462,4.1215 11.6659,2.00585 z m 72.5251,0.19646 c -3.58705,-2.14987 -5.04107,-4.74506 -5.04107,-8.9975 0,-6.6029 3.64724,-10.1133 12.18392,-11.72679 9.16394,-1.73205 10.66224,-2.69054 12.16753,-7.78377 1.23033,-4.16289 -0.0342,-8.04765 -3.86719,-11.88066 -2.46463,-2.46463 -2.70132,-2.88628 -1.17424,-2.09183 6.2317,3.24201 8.9071,11.61826 5.71156,17.88203 -1.82479,3.57689 -4.21053,4.98063 -11.16407,6.56877 -7.31359,1.67039 -9.68257,3.67806 -9.68257,8.20583 0,2.64994 0.33302,3.41831 2.14086,4.9395 2.28894,1.92602 4.0933,2.23789 6.25477,1.08111 2.51147,-1.3441 1.62002,-2.75881 -1.73841,-2.75881 -2.56301,0 -3.16612,-0.25773 -3.56828,-1.52483 -0.59697,-1.88089 2.37469,-4.73758 4.92823,-4.73758 2.564,0 6.37061,2.08497 7.22328,3.95637 3.51282,7.7098 -6.25369,13.7352 -14.37432,8.86816 z m 10.28098,0.041 c 2.48961,-1.28743 3.46519,-2.99868 3.46519,-6.07826 0,-3.23789 -2.2331,-5.54023 -5.10277,-5.261 -2.82262,0.27465 -3.35665,2.31156 -0.89956,3.43108 2.41649,1.10103 2.75404,2.46587 1.035,4.18492 -1.158,1.158 -2.02476,1.38045 -4.22756,1.08499 -5.07763,-0.68105 -7.73483,-4.96585 -6.11789,-9.86524 1.06315,-3.22136 3.71384,-4.98494 9.49441,-6.31687 6.84268,-1.57666 6.94555,-2.38489 0.15427,-1.21207 -6.56581,1.13389 -8.72399,2.19629 -10.89352,5.36251 -1.88571,2.75202 -2.07162,7.99078 -0.37544,10.57949 2.97943,4.54717 9.03063,6.38504 13.46787,4.09045 z m -28.84091,-0.73832 c -1.5108,-1.51081 -1.37192,-2.5773 0.57365,-4.40507 2.34368,-2.20177 5.55866,-1.80565 5.85145,0.72096 0.15251,1.31615 -0.31526,2.24783 -1.65944,3.30517 -2.23391,1.75719 -3.30244,1.84215 -4.76566,0.37894 z m -39.6038,-0.87487 c -1.40133,-1.54845 -1.49106,-3.84196 -0.19248,-4.91969 2.12259,-1.7616 7.30518,2.40068 6.28839,5.05039 -0.60713,1.58216 -4.62373,1.49604 -6.09591,-0.1307 z m 10.85138,0.75333 c -1.10553,-0.37196 -1.12585,-2.42557 -0.0348,-3.51663 1.17616,-1.17616 4.00114,-1.03904 4.48337,0.21761 0.72241,1.88258 -2.20536,4.05378 -4.44858,3.29902 z m 19.68047,-0.84658 c -2.28003,-2.5194 -0.0426,-4.49521 3.15349,-2.78473 1.62371,0.86898 1.77323,3.14177 0.24526,3.7281 -1.67444,0.64255 -2.06049,0.53539 -3.39875,-0.94337 z m -13.92108,-6.25783 c -0.66435,-1.07495 0.30611,-3.63324 1.25789,-3.31598 1.05161,0.35054 1.05546,3.43585 0.005,3.78609 -0.44331,0.14777 -1.01148,-0.0638 -1.26261,-0.47011 z m 9.83865,0.20144 c -0.25513,-0.25513 -0.46388,-1.06089 -0.46388,-1.79058 0,-1.89634 2.37668,-1.27397 2.65773,0.69597 0.21414,1.50092 -1.12125,2.16721 -2.19385,1.09461 z m -26.37937,-6.32373 c -2.22441,-1.3792 -4.00603,-4.75428 -4.00232,-7.58193 0.005,-4.16076 4.43401,-8.59263 8.58619,-8.59263 3.37563,0 2.79247,3.52052 -0.89466,5.40097 -3.16881,1.61612 -3.99104,3.06692 -3.12837,5.51991 0.96548,2.74534 3.95442,4.07792 6.64599,2.96304 2.59462,-1.07473 3.06746,-1.98217 4.7557,-9.12686 0.75388,-3.19044 1.93947,-7.3664 2.63465,-9.27992 1.05036,-2.8912 1.57096,-3.49942 3.08071,-3.59927 1.47511,-0.0976 1.75097,0.13144 1.46691,1.21769 -0.19242,0.73582 -0.92856,1.33785 -1.63587,1.33785 -1.91068,0 -2.76349,2.18882 -4.18001,10.72844 -1.2221,7.3676 -1.39376,7.81156 -3.85579,9.97231 -2.96673,2.60369 -6.35215,2.9755 -9.47313,1.0404 z m 35.37535,-0.90163 c -2.50093,-2.19584 -2.57787,-2.42945 -4.45726,-13.53338 -0.38865,-2.29621 -0.91205,-4.80118 -1.16312,-5.56658 -0.31189,-0.95083 -0.12173,-0.84063 0.60033,0.34791 0.58125,0.95676 1.72357,4.63182 2.53849,8.16682 1.65981,7.19998 2.80191,9.03051 6.02227,9.65234 1.78691,0.34504 2.56061,0.0824 4.00098,-1.35793 0.98213,-0.98212 1.78569,-2.55999 1.78569,-3.50636 0,-1.78084 -2.84508,-4.60499 -4.63912,-4.60499 -1.51725,0 -2.36818,-2.93547 -1.20376,-4.15262 1.52433,-1.59334 6.40037,0.36513 8.42953,3.38574 5.47254,8.14644 -4.60094,17.59004 -11.91403,11.16905 z m -9.45986,0.0763 c 0,-0.78799 0.31312,-1.43271 0.69582,-1.43271 0.38271,0 0.69583,0.4512 0.69583,1.00267 0,0.55147 -0.31312,1.19619 -0.69583,1.43271 -0.3827,0.23652 -0.69582,-0.21468 -0.69582,-1.00267 z m -8.34988,-0.38898 c 0,-0.57405 0.31312,-1.04373 0.69582,-1.04373 0.3827,0 0.69582,0.46968 0.69582,1.04373 0,0.57406 -0.31312,1.04374 -0.69582,1.04374 -0.3827,0 -0.69582,-0.46968 -0.69582,-1.04374 z m -0.69583,-4.216 c 0,-0.59664 0.31823,-0.88813 0.70718,-0.64775 0.38894,0.24038 0.52702,0.72854 0.30684,1.0848 -0.59648,0.96514 -1.01402,0.78518 -1.01402,-0.43705 z m 10.11916,0.43705 c -0.22018,-0.35626 -0.0821,-0.84442 0.30685,-1.0848 0.38894,-0.24038 0.70717,0.0511 0.70717,0.64775 0,1.22223 -0.41753,1.40219 -1.01402,0.43705 z m -49.46482,-5.23518 c -3.05001,-3.05 -2.11154,-9.71501 1.87903,-13.34483 4.70186,-4.27682 12.05529,-5.13572 24.5939,-2.87266 l 6.26241,1.13029 -9.89436,-0.40283 c -11.26143,-0.45848 -14.77205,0.341 -17.9188,4.0807 -1.82165,2.16491 -2.42346,6.36228 -1.03522,7.22026 0.39827,0.24614 0.52133,1.08652 0.27345,1.86749 -0.62231,1.96074 1.0566,2.88369 2.63961,1.45109 1.03192,-0.93388 1.23358,-0.95088 1.23358,-0.10397 0,3.06404 -5.30102,3.70704 -8.0336,0.97446 z m 82.62589,0.87295 c -0.45924,-0.45925 -0.83499,-1.26441 -0.83499,-1.78926 0,-0.73826 0.25455,-0.69973 1.1245,0.17022 1.5337,1.5337 2.74309,0.94609 2.51043,-1.21976 -0.10565,-0.98354 0.12919,-1.98681 0.52187,-2.2295 1.37056,-0.84705 0.7717,-5.05451 -1.023,-7.18739 -3.20943,-3.81419 -6.2936,-4.50028 -18.44192,-4.10247 -5.93189,0.19424 -9.8459,0.22856 -8.69779,0.0763 1.14811,-0.15229 5.43198,-0.78576 9.5197,-1.4077 9.22347,-1.40333 13.85161,-0.9336 18.24339,1.85158 4.16275,2.63994 5.97842,5.65111 5.98175,9.92034 0.002,2.61714 -0.36575,3.70515 -1.70533,5.04472 -1.86436,1.86437 -5.73751,2.33405 -7.19861,0.87295 z m -171.87427,-2.73221 c -5.07155,-1.19386 -4.47675,-3.57478 1.91642,-7.67127 3.82543,-2.45118 5.84568,-2.4999 8.14908,-0.1965 1.44583,1.44582 1.70172,2.20554 1.34449,3.99167 -0.24266,1.21329 -0.87162,2.6364 -1.39768,3.16247 -1.24884,1.24883 -6.23041,1.60389 -10.01231,0.71363 z m 259.57271,0.10216 c -1.86662,-0.79671 -3.18513,-3.84185 -2.62676,-6.06658 0.21866,-0.87118 1.18957,-2.10291 2.1576,-2.73719 1.50008,-0.98289 2.17289,-1.02954 4.55507,-0.31582 3.04007,0.91083 8.27508,5.19262 8.27508,6.76831 0,1.95159 -9.19815,3.70124 -12.36099,2.35128 z m -218.30453,-5.23416 c -5.4155,-1.91468 -8.6268,-7.67089 -7.7058,-13.81253 0.61821,-4.12257 3.55236,-7.40869 6.61517,-7.40869 2.79548,0 3.24164,1.2016 2.38021,6.41031 -0.86621,5.23759 -0.0822,7.07044 3.1577,7.38245 5.69189,0.54813 9.13174,-3.64655 9.106,-11.1042 -0.0175,-5.08331 -1.4353,-8.77632 -4.87188,-12.69037 -5.27153,-6.00394 -12.9597,-9.25326 -20.31575,-8.58624 -4.86483,0.44113 -11.51371,3.47513 -20.02562,9.13806 -11.43939,7.61057 -19.09711,10.20734 -25.91943,8.78941 -3.99803,-0.83093 -10.959223,-4.46661 -10.959223,-5.72375 0,-0.44794 0.56837,-0.27523 1.313567,0.39917 2.185166,1.97755 8.213236,3.89769 12.236356,3.89769 5.07904,0 10.49497,-2.13008 16.9653,-6.67245 2.92583,-2.05402 7.98122,-5.51716 11.2342,-7.69587 3.25297,-2.1787 6.21196,-4.22081 6.57553,-4.53801 0.36357,-0.3172 -12.31782,-0.57326 -28.18086,-0.56901 l -28.841888,0.008 2.348555,1.85046 c 4.82063,3.79825 6.250498,10.77253 3.339788,16.29004 -3.60994,6.84296 -12.799827,8.24939 -16.779281,2.56793 -1.844233,-2.63301 -1.082165,-9.59068 1.05046,-9.59068 0.455444,0 0.446987,0.46495 -0.02448,1.3459 -1.153492,2.15532 -0.841379,5.49126 0.653643,6.98628 3.972256,3.97226 10.871916,1.69314 12.629055,-4.17167 1.68519,-5.62466 -2.79942,-11.83643 -8.518546,-11.79929 -3.475794,0.0226 -7.288583,2.04393 -13.129222,6.96048 -6.068342,5.10823 -11.027557,7.58159 -16.29062,8.12479 -5.254773,0.54234 -8.403503,-0.21046 -11.218584,-2.68213 -2.048959,-1.79901 -2.420505,-2.57825 -2.420505,-5.07651 0,-3.52728 1.553825,-5.25444 4.727117,-5.25444 2.208412,0 3.622766,1.47624 3.622766,3.78128 0,1.68415 -1.266864,1.28659 -1.517208,-0.47612 -0.159785,-1.12507 -0.690496,-1.5656 -1.886075,-1.5656 -3.751887,0 -3.705775,5.08112 0.0638,7.03044 2.884367,1.49157 9.781049,0.98844 13.906081,-1.01447 1.651078,-0.80168 5.350363,-3.53664 8.220636,-6.07769 2.870272,-2.54106 6.279233,-5.13229 7.575469,-5.75831 l 2.356792,-1.13821 -2.704704,-0.48177 c -1.487587,-0.26497 -11.472081,-0.53551 -22.187764,-0.60119 -10.715684,-0.0657 -23.553629,-0.32417 -28.528767,-0.57441 l -9.045707,-0.45498 11.133177,-0.53078 c 49.695981,-2.36925 421.944432,-2.36844 465.505982,10e-4 l 9.74153,0.52988 -9.0457,0.45492 c -4.97514,0.25021 -17.49997,0.49408 -27.83295,0.54192 -10.33298,0.0478 -19.95881,0.28064 -21.39074,0.51733 l -2.6035,0.43035 2.97507,1.88673 c 1.63628,1.0377 4.93935,3.63943 7.34014,5.78162 6.34726,5.66355 9.67651,7.11167 16.34985,7.11167 4.89244,0 5.59109,-0.16917 6.78428,-1.64269 1.70878,-2.11026 1.70366,-4.71879 -0.0111,-5.63648 -1.75728,-0.94047 -3.52953,-0.21786 -3.52953,1.43911 0,0.72446 -0.31312,1.3172 -0.69582,1.3172 -0.90337,0 -0.89076,-1.81471 0.0245,-3.52486 0.88178,-1.64761 3.91863,-1.77877 6.08311,-0.26271 1.18102,0.82722 1.54647,1.77438 1.54647,4.0081 0,5.59698 -4.9068,8.56986 -13.14514,7.96421 -5.90791,-0.43432 -10.08159,-2.42751 -16.73373,-7.99137 -5.76717,-4.82369 -9.92148,-7.1516 -12.76245,-7.1516 -5.44767,0 -10.22256,5.56613 -9.245,10.77698 0.68234,3.63719 4.36167,7.31443 7.31858,7.31443 5.56015,0 8.70177,-4.55318 6.27296,-9.09145 -0.47147,-0.88095 -0.47993,-1.3459 -0.0245,-1.3459 1.99932,0 2.99858,6.13461 1.46578,8.99867 -1.17428,2.19417 -4.86791,4.21814 -7.67923,4.20793 -5.70988,-0.0207 -11.15093,-5.94163 -11.1179,-12.09835 0.0204,-3.80978 2.06995,-8.11235 4.94231,-10.37554 l 2.34856,-1.85046 -28.74379,-0.008 c -19.25722,-0.005 -28.59983,0.22521 -28.3076,0.69805 0.2399,0.38817 1.58915,1.29645 2.99832,2.01839 1.40917,0.72195 5.84989,3.724 9.86827,6.67123 9.86857,7.23797 14.49663,9.51296 20.17889,9.91924 5.26727,0.37661 9.23096,-0.53633 12.77728,-2.94292 1.39196,-0.94461 2.53083,-1.45638 2.53083,-1.13725 0,1.04334 -5.13782,4.11912 -8.90708,5.33226 -7.17156,2.30816 -14.21517,0.32913 -26.23201,-7.37036 -4.20973,-2.69729 -10.00246,-6.06538 -12.87273,-7.48466 -4.70626,-2.32712 -5.76526,-2.58044 -10.78527,-2.57994 -4.55916,4.5e-4 -6.27431,0.3323 -9.47712,1.83361 -4.85147,2.27412 -9.01464,5.97371 -11.50489,10.22378 -1.6584,2.83038 -1.90927,4.0141 -1.94227,9.16468 -0.0312,4.8672 0.20853,6.2449 1.35375,7.78043 1.71776,2.30319 3.87956,3.35274 6.90578,3.35274 2.85473,0 4.21484,-1.51803 3.9515,-4.4103 -0.11017,-1.21001 -0.24972,-3.76562 -0.31012,-5.67914 -0.10891,-3.45058 -0.091,-3.48092 2.17738,-3.69908 4.79774,-0.46141 8.37964,6.79505 6.48146,13.13059 -2.92656,9.768 -15.43288,11.98034 -22.99462,4.06771 -3.5662,-3.73169 -4.56433,-6.62853 -4.5314,-13.15131 0.023,-4.55436 0.38106,-6.69045 1.55701,-9.28868 2.48167,-5.48318 6.20376,-9.94733 10.79522,-12.94738 l 4.30606,-2.81359 -21.21681,0.0178 -21.21682,0.0178 4.30083,2.08607 c 6.75553,3.27671 9.96356,7.97224 9.96356,14.58351 0,4.14538 -1.86035,8.24914 -4.6722,10.30645 -2.12465,1.55451 -2.11298,1.56549 3.07705,2.89334 4.1648,1.06555 7.85756,4.72491 7.85756,7.7865 0,1.31341 -0.37574,2.76376 -0.83499,3.223 -1.01152,1.01152 -4.48161,1.10659 -5.07951,0.13917 -0.23652,-0.38271 0.21468,-0.69583 1.00267,-0.69583 0.78799,0 1.43271,-0.31312 1.43271,-0.69582 0,-0.38271 -0.31312,-0.69583 -0.69582,-0.69583 -0.3827,0 -0.69583,-0.44565 -0.69583,-0.99034 0,-1.38676 -3.28031,-5.13353 -5.49884,-6.28077 -1.01968,-0.5273 -4.04598,-1.41241 -6.72511,-1.96692 -6.81299,-1.4101 -8.77151,-2.60462 -16.42822,-10.01972 -7.6376,-7.3966 -11.38941,-9.46883 -17.27218,-9.53992 -7.15837,-0.0865 -13.22065,4.98009 -13.22065,11.04923 0,5.15291 4.74498,7.33742 6.56023,3.02022 0.85719,-2.03865 0.96161,-2.09264 1.3966,-0.72211 1.62342,5.11494 -6.51511,7.60202 -10.07341,3.07837 l -1.48107,-1.88287 -1.373,1.88483 c -3.32738,4.56776 -11.56224,2.01697 -9.94442,-3.08033 0.43499,-1.37053 0.53942,-1.31654 1.3966,0.72211 1.73047,4.11556 6.56023,2.02135 6.56023,-2.84454 0,-6.9138 -7.79764,-12.56064 -15.56044,-11.26845 -4.66231,0.77608 -8.04437,2.92399 -14.69804,9.33455 -6.21841,5.99119 -11.95016,10.0265 -13.70869,9.6513 -1.18135,-0.25206 -7.29331,1.43345 -9.8808,2.72484 -2.66089,1.32802 -5.29703,4.23462 -5.29703,5.84048 0,0.70953 -0.31312,1.29004 -0.69582,1.29004 -0.38271,0 -0.69583,0.31312 -0.69583,0.69583 0,0.3827 0.46968,0.69582 1.04374,0.69582 0.57405,0 1.04373,0.31312 1.04373,0.69583 0,0.97877 -3.72317,0.86926 -4.7316,-0.13917 -0.45924,-0.45924 -0.83499,-1.8996 -0.83499,-3.20079 0,-3.39906 3.46511,-6.64989 8.71501,-8.17608 l 4.09526,-1.19052 -1.80853,-1.47474 c -3.10291,-2.53021 -4.73386,-5.98064 -4.73672,-10.02092 -0.005,-6.75986 3.15117,-11.42673 9.96095,-14.72975 l 4.30083,-2.08607 -21.15654,-0.0178 -21.15654,-0.0178 4.1384,2.67478 c 4.81375,3.11128 7.87083,6.7174 10.51176,12.39962 2.55562,5.49867 2.69725,14.30237 0.30345,18.86157 -2.13193,4.06043 -5.1874,6.81482 -9.00132,8.11436 -3.88541,1.32389 -5.9206,1.33359 -9.56357,0.0456 z m 10.92329,-2.16764 c 4.74246,-2.42667 8.21186,-8.73509 8.21186,-14.93164 0,-4.05518 -2.53629,-11.13998 -5.16375,-14.42429 -2.80433,-3.50539 -6.58762,-6.6413 -10.49228,-8.69689 -3.80629,-2.00381 -16.86378,-2.58164 -20.53453,-0.90872 -1.33521,0.60851 -1.64485,0.87477 -0.68809,0.59169 0.95676,-0.28309 4.71421,-0.5075 8.34988,-0.49869 5.90328,0.0143 7.04407,0.23388 10.66543,2.05292 5.28505,2.65472 10.82435,8.62594 12.58185,13.56289 3.66458,10.29412 -0.4177,19.54317 -8.72193,19.76092 -3.38051,0.0886 -5.1607,-1.59024 -6.17663,-5.8251 -1.09607,-4.56892 -2.89732,-5.15455 -4.79147,-1.55784 -1.04573,1.9857 -0.05,5.97915 2.17481,8.72203 3.0297,3.73522 9.59761,4.70465 14.58485,2.15272 z m 173.41513,1.05583 c 5.22873,-1.45173 8.82495,-7.26087 7.26506,-11.73558 -1.38287,-3.96693 -4.01551,-2.66803 -5.09389,2.51324 -0.66597,3.19977 -2.75604,4.78093 -6.22023,4.70566 -6.0556,-0.13158 -9.46504,-4.67352 -9.46412,-12.60776 10e-4,-8.59863 5.17576,-16.27336 14.02711,-20.80372 5.19742,-2.66018 13.2428,-3.11618 18.63458,-1.05618 4.87243,1.86157 5.35664,1.4454 0.66603,-0.57244 -3.12592,-1.34474 -4.55263,-1.51375 -10.9804,-1.30076 -8.78978,0.29126 -12.94789,1.9425 -18.44674,7.32544 -11.37021,11.13054 -10.22866,28.87761 2.14127,33.28928 3.27868,1.16932 4.04464,1.19422 7.47133,0.24282 z m -136.82074,-17.9759 c 1.41989,-0.74008 5.24315,-4.04667 8.49612,-7.34796 7.68373,-7.79787 12.59665,-10.38253 19.76059,-10.39593 4.01906,-0.008 5.60754,0.33887 8.51206,1.85616 3.36506,1.75786 7.91018,6.41998 7.91018,8.11381 0,0.4233 0.31312,0.76965 0.69582,0.76965 0.38271,0 0.69583,-0.34635 0.69583,-0.76965 0,-1.70322 4.5514,-6.35779 7.91017,-8.08948 2.88608,-1.48798 4.51226,-1.83761 8.47934,-1.82305 7.30223,0.0268 11.45736,2.1886 19.7285,10.26425 7.26633,7.09457 9.85129,8.76781 13.54529,8.76781 2.90292,0 6.34172,-3.0544 7.04529,-6.25775 0.97528,-4.44042 -2.71255,-10.51706 -8.00094,-13.18359 -3.60367,-1.81704 -7.53538,-2.62757 -20.34844,-4.19485 -12.80075,-1.56577 -43.35876,-1.99657 -52.85857,-0.74519 -2.79023,0.36755 -7.92629,0.99557 -11.41347,1.3956 -10.62711,1.21908 -17.12099,4.00726 -20.36716,8.74474 -2.18313,3.18607 -2.57241,6.57068 -1.11014,9.65219 2.1167,4.46062 6.54803,5.73027 11.31953,3.24324 z m 7.51105,18.99107 c -0.66227,-1.72586 1.43385,-4.42481 3.4365,-4.42481 2.03103,0 2.29506,1.65765 0.64032,4.02011 -1.27187,1.81585 -3.45226,2.03229 -4.07682,0.4047 z m 71.65802,-0.1981 c -1.55871,-1.72236 -1.15656,-3.81758 0.78606,-4.09539 1.75517,-0.251 4.08164,2.71503 3.44037,4.38616 -0.56103,1.46204 -2.77821,1.3095 -4.22643,-0.29077 z m -63.4623,-2.48512 c -0.24046,-0.62662 -0.11576,-1.46075 0.27711,-1.85362 1.13426,-1.13426 3.29751,-0.36981 3.29751,1.16529 0,1.76995 -2.94217,2.33649 -3.57462,0.68833 z m 6.40664,0.42472 c -0.52373,-0.84742 1.45775,-2.39249 2.35617,-1.83724 1.23237,0.76164 0.80183,2.45422 -0.62427,2.45422 -0.74282,0 -1.52218,-0.27764 -1.7319,-0.61698 z m 5.51786,-0.0788 c -0.23652,-0.38271 0.0581,-0.69583 0.65476,-0.69583 0.59664,0 1.0848,0.31312 1.0848,0.69583 0,0.3827 -0.29464,0.69582 -0.65476,0.69582 -0.36012,0 -0.84828,-0.31312 -1.0848,-0.69582 z m 33.74744,0 c 0,-0.38271 0.46969,-0.69583 1.04374,-0.69583 0.57405,0 1.04374,0.31312 1.04374,0.69583 0,0.3827 -0.46969,0.69582 -1.04374,0.69582 -0.57405,0 -1.04374,-0.31312 -1.04374,-0.69582 z m 4.17495,-0.27347 c 0,-1.35224 1.8324,-1.91602 2.72638,-0.83884 0.88785,1.06979 0.29546,1.80813 -1.45071,1.80813 -0.70162,0 -1.27567,-0.43618 -1.27567,-0.96929 z m 5.81899,-0.0724 c -0.24045,-0.62662 -0.11575,-1.46075 0.27711,-1.85362 1.13427,-1.13426 3.29751,-0.36981 3.29751,1.16529 0,1.76995 -2.94216,2.33649 -3.57462,0.68833 z m -22.51876,-3.03675 c 0,-1.00629 0.38798,-1.22099 1.73956,-0.96262 0.95676,0.1829 1.73956,0.76572 1.73956,1.29516 0,0.56291 -0.72232,0.96262 -1.73956,0.96262 -1.23248,0 -1.73956,-0.37754 -1.73956,-1.29516 z m -140.55636,0.29324 c 0,-0.16836 2.01545,-4.35096 4.47878,-9.29469 5.8142,-11.66866 9.71798,-15.13302 12.52944,-11.1191 1.56619,2.23605 1.33534,5.32835 -0.70316,9.41909 -2.05852,4.1309 -5.1682,7.09116 -10.04521,9.56253 -3.04764,1.54436 -6.25985,2.27927 -6.25985,1.43217 z m 267.54416,-1.46451 c -6.96244,-3.47172 -12.43759,-11.71923 -11.15975,-16.81054 1.04481,-4.16287 3.17658,-4.75054 6.64519,-1.8319 1.76144,1.48215 7.29901,11.48585 11.00892,19.88776 0.49178,1.11375 -3.17238,0.41113 -6.49436,-1.24532 z m 10.7237,-3.75051 c -1.73144,-1.73144 -2.07224,-2.58252 -1.8946,-4.73141 0.20589,-2.49048 0.34844,-2.63106 2.87914,-2.83934 2.70006,-0.22222 6.03527,1.2916 6.03527,2.73935 0,1.53275 -2.31415,5.5541 -3.58874,6.23624 -1.06768,0.5714 -1.72325,0.30298 -3.43107,-1.40484 z m -287.99525,-1.4094 c -0.77319,-1.51557 -1.40579,-3.19974 -1.40579,-3.74261 0,-1.35538 3.51311,-2.69552 6.35386,-2.42381 2.13257,0.20398 2.36267,0.44716 2.55173,2.69667 0.25846,3.07515 -1.97772,6.22532 -4.4191,6.22532 -1.25072,0 -2.03095,-0.69788 -3.0807,-2.75557 z m 110.62181,-1.33724 c 0,-0.3827 0.31312,-0.88934 0.69582,-1.12586 0.3827,-0.23653 0.69582,-0.11693 0.69582,0.26578 0,0.3827 -0.31312,0.88934 -0.69582,1.12586 -0.3827,0.23653 -0.69582,0.11692 -0.69582,-0.26578 z m 70.974,-0.0821 c 0,-0.3827 0.31312,-0.69582 0.69582,-0.69582 0.38271,0 0.69583,0.31312 0.69583,0.69582 0,0.3827 -0.31312,0.69582 -0.69583,0.69582 -0.3827,0 -0.69582,-0.31312 -0.69582,-0.69582 z m -68.06024,-2.82678 c 0.16743,-0.5023 0.71539,-1.05026 1.21769,-1.21769 0.52187,-0.17396 0.7828,0.087 0.60884,0.60884 -0.16743,0.5023 -0.71539,1.05026 -1.21769,1.21769 -0.52187,0.17396 -0.7828,-0.087 -0.60884,-0.60884 z m 64.90042,-0.003 c -0.25226,-0.40816 -0.29157,-0.9092 -0.0874,-1.11341 0.49843,-0.49843 1.85553,0.3798 1.85553,1.20077 0,0.88924 -1.20127,0.82989 -1.76817,-0.0874 z m -61.55177,-3.63755 c 0,-1.24632 1.93956,-2.95841 2.60154,-2.29644 0.58038,0.58038 -0.63744,2.65826 -1.78147,3.03961 -0.45104,0.15034 -0.82007,-0.18408 -0.82007,-0.74317 z m 57.34124,-0.56204 c -1.31283,-1.45066 -1.30951,-1.46059 0.40692,-1.21769 0.96637,0.13676 1.83302,0.7826 1.96262,1.46259 0.3137,1.6459 -0.75869,1.53507 -2.36954,-0.2449 z M 153.78,329.73768 c -0.67726,-0.42992 -0.70148,-1.06413 -0.10589,-2.77264 0.42472,-1.21836 0.97643,-2.21227 1.22602,-2.20868 0.79607,0.0115 7.64243,4.11116 8.0989,4.84974 0.52801,0.85433 -7.89121,0.97449 -9.21903,0.13158 z m 81.3762,-0.16057 c 0.16743,-0.5023 0.71539,-1.05026 1.21769,-1.21769 0.52187,-0.17396 0.7828,0.087 0.60885,0.60884 -0.16744,0.5023 -0.7154,1.05026 -1.21769,1.21769 -0.52187,0.17396 -0.78281,-0.087 -0.60885,-0.60884 z m 48.20066,-0.003 c -0.25226,-0.40816 -0.29157,-0.9092 -0.0874,-1.11341 0.49843,-0.49843 1.85553,0.3798 1.85553,1.20077 0,0.88925 -1.20128,0.82989 -1.76817,-0.0874 z m 73.75955,0.089 c 0.40525,-0.6557 7.52734,-4.91342 8.21892,-4.91342 0.61088,0 1.90953,4.28737 1.49957,4.9507 -0.20935,0.33874 -2.57248,0.61589 -5.25141,0.61589 -2.85793,0 -4.70394,-0.26992 -4.46708,-0.65317 z m -244.32718,-2.5481 c 0.99543,-0.99543 1.99859,-2.40447 2.22925,-3.1312 0.44041,-1.38761 2.1161,-1.70875 3.69489,-0.70811 1.99786,1.26624 -2.7976,5.64918 -6.18088,5.64918 -1.54115,0 -1.53917,-0.014 0.25674,-1.80987 z m 290.8936,0.26826 c -2.85562,-2.19308 -3.18046,-2.86514 -1.86137,-3.85102 1.70715,-1.27592 2.82922,-1.06584 3.36762,0.6305 0.26189,0.82516 1.26808,2.2342 2.23597,3.13121 l 1.75979,1.63092 h -1.74733 c -0.96103,0 -2.65063,-0.69372 -3.75468,-1.54161 z m -293.79487,-2.31639 c 1.10517,-1.87313 1.37059,-3.21685 1.10348,-5.58664 -0.28511,-2.5295 -0.11263,-3.24823 0.91099,-3.79606 2.18964,-1.17186 2.74582,-0.75414 2.74582,2.06223 0,3.55081 -0.78561,5.51799 -3.14429,7.87331 -2.6428,2.63904 -3.35542,2.39526 -1.616,-0.55284 z m 52.59816,-0.50123 c -3.34865,-1.55167 -6.08845,-3.2062 -6.08845,-3.67675 0,-0.47056 0.60988,-1.59476 1.35529,-2.49824 l 1.3553,-1.64269 5.04908,5.01873 c 2.77699,2.7603 4.90692,5.15405 4.73316,5.31944 -0.17376,0.16539 -3.05572,-0.96883 -6.40438,-2.52049 z m 188.74215,2.45154 c 0,-0.31076 2.21085,-2.74846 4.913,-5.41712 l 4.913,-4.8521 1.34941,1.64269 c 0.74218,0.90348 1.34942,2.02222 1.34942,2.48609 0,0.46387 -2.27013,1.88933 -5.04472,3.16768 -2.7746,1.27835 -5.59269,2.59731 -6.26242,2.93102 -0.66973,0.33371 -1.21769,0.35249 -1.21769,0.0417 z m 58.62003,-0.0595 c -2.42498,-1.53963 -4.34579,-5.34315 -4.34579,-8.60539 0,-3.42034 0.47604,-3.88291 2.74583,-2.66816 1.02362,0.54783 1.1961,1.26656 0.91099,3.79606 -0.26711,2.36979 -0.002,3.71351 1.10348,5.58664 1.43126,2.42581 1.30869,2.98491 -0.41451,1.89085 z M 34.628537,322.824 c 0,-0.67657 0.831321,-2.47702 1.847379,-4.00099 l 1.847379,-2.77086 -1.791431,1.63433 c -0.985287,0.89889 -2.167716,2.54277 -2.62762,3.65307 -0.822311,1.98524 -2.927823,2.7318 -3.786413,1.34257 -1.127299,-1.824 5.003699,-7.43755 8.827589,-8.08254 2.005954,-0.33835 2.149608,-0.26838 1.146009,0.5582 -0.631087,0.51977 -1.563368,2.73408 -2.071735,4.92069 -0.696113,2.99415 -1.228809,3.97565 -2.15773,3.97565 -0.715558,0 -1.233427,-0.51648 -1.233427,-1.23012 z m 447.487883,-2.86982 c -0.65544,-2.95448 -1.32735,-4.30214 -2.40495,-4.82367 -1.47899,-0.7158 -1.47699,-0.72425 0.18303,-0.77083 3.5704,-0.10018 11.39284,6.29277 10.15351,8.29804 -0.87189,1.41075 -2.97291,0.68222 -3.80149,-1.31817 -0.45991,-1.1103 -1.64234,-2.75418 -2.62762,-3.65307 l -1.79143,-1.63433 1.84738,2.77086 c 2.15688,3.23508 2.38554,5.23111 0.59926,5.23111 -0.95614,0 -1.46089,-0.9591 -2.15769,-4.09994 z M 154.1929,224.24041 c -0.12684,-0.10578 -26.25282,-0.39242 -58.057743,-0.63697 -31.804919,-0.24456 -62.6473,-0.67681 -68.538623,-0.96056 l -10.711498,-0.51591 6.262412,-0.45369 c 3.444327,-0.24953 14.433725,-0.48685 24.420886,-0.52737 9.98716,-0.0405 21.029803,-0.2775 24.539205,-0.5266 l 6.380732,-0.45292 -2.27285,-1.37221 c -1.250068,-0.75472 -4.613801,-3.41621 -7.474962,-5.91443 -6.797816,-5.9355 -10.801415,-7.79581 -16.79645,-7.80467 -5.251231,-0.008 -8.269765,1.64094 -8.269765,4.51686 0,2.00579 1.901279,4.04657 3.277834,3.51833 0.55601,-0.21336 1.141877,-0.38793 1.301929,-0.38793 0.160051,0 0.291002,-0.62624 0.291002,-1.39164 0,-0.76541 0.31312,-1.39165 0.695823,-1.39165 1.16389,0 0.777204,2.49396 -0.576657,3.71919 -1.594866,1.44333 -3.533694,1.4673 -5.53093,0.0684 -2.253943,-1.57872 -2.163956,-6.3972 0.166431,-8.91173 2.273276,-2.4529 4.514542,-3.22572 9.354984,-3.22572 7.459472,0 12.147492,2.2326 21.969218,10.46254 6.512745,5.45724 11.358543,6.0604 15.993623,1.99075 5.798311,-5.09099 2.283273,-15.23659 -5.278858,-15.23659 -4.941289,0 -7.725213,4.79417 -5.380324,9.26541 0.791303,1.50886 0.786267,1.51026 -0.695824,0.19432 -1.106949,-0.98285 -1.492896,-2.13087 -1.492896,-4.44069 0,-2.67063 0.354595,-3.44958 2.484927,-5.45874 2.107145,-1.9873 2.990451,-2.34359 5.8101,-2.34359 6.194841,0 11.188034,5.53028 11.188034,12.39147 0,3.55633 -2.613109,8.47554 -5.533372,10.41663 l -2.402167,1.59672 22.233139,-0.14407 c 12.22823,-0.0792 25.29521,-0.27781 29.03775,-0.44127 l 6.80461,-0.2972 -3.9822,-2.39796 c -2.19021,-1.31887 -6.66133,-4.37543 -9.93582,-6.79235 -8.04478,-5.93789 -11.45982,-7.81549 -16.6191,-9.13724 -5.15299,-1.32014 -9.11483,-0.73506 -14.91087,2.20202 -2.403622,1.21801 -3.313587,1.45962 -2.696389,0.71594 0.512372,-0.61737 2.699659,-1.99077 4.860639,-3.05199 3.30974,-1.62536 4.80647,-1.92774 9.49564,-1.91834 4.94034,0.01 6.15369,0.29182 10.78526,2.50594 2.87028,1.37214 8.64873,4.73461 12.841,7.47217 11.84122,7.73231 17.6844,9.44511 25.44191,7.45772 10.7953,-2.76562 18.05616,-11.17755 18.07201,-20.93696 0.009,-5.31259 -1.62837,-8.58099 -5.18596,-10.35421 -1.97709,-0.98544 -3.10406,-1.15862 -4.45289,-0.68427 -2.74256,0.96451 -3.42558,2.97991 -2.63334,7.77023 0.86143,5.20871 0.41527,6.41031 -2.38021,6.41031 -4.72101,0 -7.96475,-6.72448 -6.27349,-13.00533 1.01804,-3.78071 3.18708,-6.38526 6.61361,-7.94151 8.3797,-3.80587 18.28386,1.62774 20.60527,11.30446 2.4403,10.17232 -2.63302,21.26515 -12.88723,28.17793 l -3.46983,2.33916 21.21333,-0.0421 21.21333,-0.0421 -3.76126,-1.82879 c -7.00967,-3.40823 -10.50312,-8.37759 -10.50312,-14.94046 0,-4.15751 1.58913,-7.78601 4.28184,-9.77682 2.38633,-1.76429 2.51837,-2.5919 0.41497,-2.60103 -2.37522,-0.0103 -8.54184,-3.11396 -9.82389,-4.94434 -1.33116,-1.9005 -1.49362,-5.54543 -0.30035,-6.7387 1.00843,-1.00843 4.7316,-1.11793 4.7316,-0.13916 0,0.3827 -0.46968,0.69582 -1.04373,0.69582 -0.57406,0 -1.04374,0.31312 -1.04374,0.69583 0,0.3827 0.31312,0.69582 0.69583,0.69582 0.3827,0 0.69582,0.5672 0.69582,1.26044 0,3.10622 5.72956,6.61796 13.41039,8.21946 5.84459,1.21863 7.36595,2.1963 15.19788,9.76653 7.63076,7.37579 12.00579,9.56106 18.33493,9.15805 6.99125,-0.44517 12.2018,-5.09609 12.2018,-10.89129 0,-4.93491 -4.79953,-6.97243 -6.56023,-2.78497 -0.89576,2.1304 -0.94319,2.15068 -1.43148,0.61221 -0.78002,-2.45761 1.61041,-5.19961 4.76655,-5.4676 2.06562,-0.17538 2.94626,0.17857 4.62768,1.85999 l 2.0766,2.0766 2.03395,-2.03394 c 2.12286,-2.12286 4.65653,-2.5986 7.04156,-1.32218 1.85571,0.99315 2.91768,3.24133 2.36044,4.99703 -0.43499,1.37053 -0.53941,1.31654 -1.3966,-0.72211 -1.81977,-4.32796 -6.56023,-2.10053 -6.56023,3.0825 0,5.95155 5.93781,10.71805 13.35188,10.71805 5.91791,0 9.6228,-2.03652 17.59088,-9.66941 7.32063,-7.01267 9.25751,-8.13653 17.36977,-10.07867 5.38738,-1.28979 9.27006,-3.83308 10.39285,-6.80769 0.4096,-1.08515 0.9892,-1.973 1.288,-1.973 0.2988,0 0.54327,-0.31312 0.54327,-0.69582 0,-0.38271 -0.64472,-0.69583 -1.43271,-0.69583 -0.78799,0 -1.23919,-0.31312 -1.00267,-0.69582 0.5979,-0.96743 4.06799,-0.87236 5.07951,0.13916 0.45925,0.45925 0.83499,1.9096 0.83499,3.223 0,3.90354 -6.13762,8.46684 -11.38786,8.46684 -1.65826,0 -1.39094,1.06518 0.59364,2.36553 4.04236,2.64866 5.76287,10.52211 3.48868,15.96502 -1.44736,3.46401 -5.37977,7.19481 -9.63362,9.13972 l -3.58764,1.6403 21.1849,0.057 21.18489,0.057 -3.09348,-1.97565 c -4.81201,-3.0732 -8.78543,-7.49096 -11.26181,-12.5212 -2.02071,-4.10464 -2.26696,-5.24864 -2.26793,-10.53595 -10e-4,-7.57095 1.90169,-11.77666 6.83784,-15.11124 10.3738,-7.00795 22.82316,0.008 21.04576,11.86064 -0.65574,4.37279 -3.65924,7.58378 -6.81027,7.28074 -2.22717,-0.21419 -2.28523,-0.30212 -2.21277,-3.35117 0.0409,-1.72216 0.17176,-4.3539 0.29075,-5.8483 0.26954,-3.38535 -1.85843,-5.53522 -4.78541,-4.83466 -5.58229,1.33609 -7.75667,4.49038 -7.75667,11.2523 0,7.90181 4.87785,15.02977 13.0325,19.04429 3.99254,1.96553 5.31451,2.26666 9.87886,2.25034 6.76107,-0.0242 11.00735,-1.67202 20.5993,-7.99385 12.57895,-8.2905 19.15242,-10.86893 25.92686,-10.16975 3.86064,0.39845 10.44361,3.15361 11.9916,5.01883 0.47307,0.57001 -1.24456,0.0495 -3.83153,-1.16108 -6.32137,-2.95812 -11.80415,-2.95457 -18.14303,0.0118 -4.18374,1.95781 -6.31672,3.33633 -17.31128,11.18807 -2.65365,1.89509 -5.78486,3.85116 -6.95824,4.3468 -2.0399,0.86167 -1.8894,0.91643 3.43317,1.24909 3.06162,0.19135 16.05613,0.43726 28.87668,0.54647 l 23.31009,0.19856 -2.34856,-1.88278 c -8.49668,-6.8116 -5.22958,-21.18042 5.0801,-22.34247 5.26891,-0.59389 9.58454,2.88399 9.58454,7.72398 0,2.58085 -1.17143,5.31889 -2.2756,5.31889 -0.45545,0 -0.44699,-0.46496 0.0245,-1.34591 1.64389,-3.07163 0.71803,-6.60959 -2.11276,-8.07345 -4.53389,-2.34457 -9.60045,0.0204 -11.15425,5.20647 -1.55875,5.20266 2.17573,10.93256 7.59947,11.66004 3.7502,0.50301 7.30582,-1.276 14.38782,-7.19875 6.72348,-5.62292 10.3159,-7.30894 16.51888,-7.75276 8.18169,-0.5854 13.05562,2.33688 13.05562,7.82779 0,4.30743 -4.51612,6.89005 -7.25645,4.14972 -1.23231,-1.23231 -1.44854,-3.47573 -0.39761,-4.12524 0.39277,-0.24275 0.69582,0.32505 0.69582,1.30369 0,1.13616 0.49117,1.88963 1.42504,2.18602 3.52015,1.11726 4.79275,-4.0687 1.61233,-6.57042 -1.37843,-1.08426 -2.83968,-1.44215 -5.8884,-1.44215 -5.93678,0 -10.80396,2.09053 -16.04208,6.89031 -2.4401,2.23591 -5.9065,4.99751 -7.70311,6.13689 l -3.26657,2.07159 7.7992,0.44942 c 4.28957,0.24717 14.2473,0.45083 22.1283,0.45257 13.99659,0.003 31.51611,0.66218 31.01163,1.16666 -0.86154,0.86153 -94.10359,1.71491 -211.75985,1.93809 -75.07429,0.14241 -136.60249,0.17237 -136.72934,0.0666 z m 137.19454,-5.68242 c 15.86474,-1.73461 21.77876,-4.29492 25.14011,-10.88372 2.93948,-5.76185 -0.53263,-12.37151 -6.4733,-12.32286 -4.04422,0.0331 -4.92025,0.60971 -13.32282,8.76876 -5.88327,5.71276 -8.02651,7.33318 -11.33791,8.57213 -9.13265,3.41696 -18.54411,1.07852 -22.88276,-5.68564 -2.3106,-3.60234 -2.84819,-3.92623 -3.43709,-2.07078 -0.70739,2.22879 -6.03189,7.00432 -9.12769,8.18662 -4.30215,1.64301 -12.0936,1.14079 -16.65981,-1.07384 -2.05553,-0.99695 -6.25757,-4.40074 -10.26943,-8.31859 -7.53816,-7.36151 -9.31766,-8.54248 -12.87191,-8.54248 -3.23594,0 -5.8564,2.05848 -7.09932,5.57682 -0.85901,2.43161 -0.87354,3.28234 -0.094,5.50356 1.81049,5.15845 6.94464,8.97817 14.2632,10.61158 14.63851,3.26711 51.92564,4.11088 74.17268,1.67844 z m -121.22643,-0.94573 c 11.84571,-5.60396 18.34227,-17.89166 15.19084,-28.73222 -2.80979,-9.66532 -13.70114,-13.96119 -20.72252,-8.17357 -3.3344,2.74849 -4.77154,7.5112 -3.05637,10.12887 1.79826,2.74449 3.34417,1.90974 4.76573,-2.57337 1.39948,-4.41348 3.65671,-5.97607 7.5173,-5.20396 5.47871,1.09575 8.45769,5.62661 8.4163,12.80073 -0.088,15.25559 -17.60674,27.05429 -32.40861,21.82689 -4.56764,-1.6131 -4.70267,-1.09525 -0.19254,0.73838 1.98764,0.80809 4.97836,1.19087 9.50982,1.21714 5.92992,0.0344 7.0601,-0.17445 10.98005,-2.02889 z m 200.84055,0.7014 c 4.36786,-1.87228 4.03161,-2.29902 -0.46418,-0.5891 -11.09724,4.22069 -25.7024,-2.13977 -30.7523,-13.39246 -3.72511,-8.30064 -1.88454,-17.58237 4.04452,-20.39589 5.0113,-2.37802 8.36949,-0.76747 10.15304,4.86927 0.79685,2.51839 1.45798,3.44498 2.57123,3.60363 1.18105,0.16832 1.67334,-0.31601 2.32346,-2.28588 0.72802,-2.20593 0.63375,-2.88472 -0.80274,-5.78016 -2.14692,-4.32737 -6.71066,-6.79895 -11.28701,-6.11269 -4.60447,0.69049 -8.97618,3.80623 -10.94111,7.79779 -2.46687,5.01123 -2.35027,12.33156 0.28665,17.99638 2.63819,5.66754 7.39939,10.41573 13.33596,13.29951 4.49297,2.18253 5.34923,2.35652 11.59736,2.35652 5.15947,0 7.49627,-0.32151 9.93512,-1.36692 z M 37.06392,215.87027 c -2.689976,-1.25325 -4.747019,-3.02492 -6.222797,-5.35952 -1.128495,-1.78521 -1.118389,-1.89563 0.240003,-2.62262 1.250523,-0.66926 1.579015,-0.44353 2.779811,1.91023 1.287528,2.52376 3.550894,5.0662 3.550894,3.98872 0,-0.27353 -0.626241,-1.29346 -1.391647,-2.26651 -1.776724,-2.25874 -1.819635,-4.36481 -0.08893,-4.36481 0.980572,0 1.441683,0.73128 1.864686,2.95725 0.309083,1.62648 0.585614,3.39168 0.614512,3.92265 0.0289,0.53097 0.755392,1.2254 1.614432,1.54318 0.85904,0.31778 1.561891,0.74443 1.561891,0.94811 0,0.67803 -2.408671,0.32831 -4.522853,-0.65668 z m 442.8407,0.0423 c 0.92869,-0.51446 1.78737,-1.52101 1.90816,-2.23677 0.1208,-0.71575 0.41285,-2.47557 0.64902,-3.91071 0.31985,-1.94371 0.76497,-2.60933 1.7449,-2.60933 1.74636,0 1.67158,1.69501 -0.20901,4.73787 -0.8385,1.35671 -1.15534,2.23857 -0.70408,1.95968 0.45125,-0.27889 1.63454,-1.89619 2.62952,-3.59401 1.56531,-2.67099 1.99096,-2.9896 3.15895,-2.36451 1.39797,0.74817 1.33874,1.01781 -0.94925,4.32144 -1.52884,2.20748 -5.9714,4.6928 -8.32343,4.6564 l -1.59332,-0.0247 z m -367.74215,-0.70565 c -0.97909,-0.71593 -1.24796,-1.65906 -1.09135,-3.82818 0.14067,-1.94825 -0.25199,-3.65752 -1.21526,-5.29016 -1.55317,-2.63242 -1.22966,-3.00145 1.16242,-1.32597 2.19798,1.53953 3.62997,4.64973 3.62997,7.88411 0,3.21257 -0.66165,3.89403 -2.48578,2.5602 z m 293.34004,-2.22849 c 0,-3.45116 1.92114,-7.39977 4.19139,-8.61477 2.03771,-1.09055 2.1166,-0.84381 0.56891,1.77933 -1.10947,1.88041 -1.37089,3.21421 -1.10037,5.61426 0.32174,2.85448 0.1959,3.20833 -1.34994,3.79606 -0.93762,0.35649 -1.84094,0.64815 -2.00737,0.64815 -0.16644,0 -0.30262,-1.45036 -0.30262,-3.22303 z m -247.98108,-0.57952 c -0.61807,-0.94329 -1.12376,-1.96943 -1.12376,-2.28031 0,-0.76182 11.88325,-6.61965 12.39353,-6.10937 0.41691,0.41691 -8.86899,10.10476 -9.68551,10.10476 -0.25327,0 -0.96619,-0.77178 -1.58426,-1.71508 z m 198.24928,-3.13595 c -2.64762,-2.66806 -4.67248,-4.9924 -4.49968,-5.1652 0.54969,-0.54968 12.48207,5.31738 12.48207,6.13734 0,0.9825 -1.99181,3.87889 -2.66746,3.87889 -0.27559,0 -2.66731,-2.18296 -5.31493,-4.85103 z M 114.98309,206.9818 c -0.25013,-0.86108 -1.28887,-2.26857 -2.30832,-3.12775 -1.84731,-1.55689 -1.84816,-1.56216 -0.25339,-1.5656 2.1873,-0.005 5.50623,1.80224 6.40919,3.48944 0.63431,1.18522 0.47624,1.49299 -1.06841,2.08027 -2.36271,0.8983 -2.25358,0.93271 -2.77907,-0.87636 z m 286.77137,0.66566 c -1.17503,-0.8592 -1.17317,-0.96881 0.041,-2.42114 1.54526,-1.84841 6.24811,-3.89628 6.82056,-2.97003 0.22255,0.36009 -0.25513,1.00779 -1.0615,1.43935 -0.80637,0.43155 -1.78513,1.69975 -2.17503,2.8182 -0.77379,2.2197 -1.73052,2.51889 -3.62499,1.13362 z m -248.08115,-3.40503 c -0.43302,-1.24217 -0.50914,-2.48139 -0.17305,-2.81748 0.32999,-0.32999 2.76078,-0.50631 5.40177,-0.39184 l 4.80179,0.20815 -4.26597,2.60933 c -2.34628,1.43514 -4.42921,2.60934 -4.62874,2.60934 -0.19953,0 -0.71064,-0.99787 -1.1358,-2.2175 z m 206.94858,-0.41047 -4.17494,-2.5907 4.80179,-0.20815 c 2.64098,-0.11447 5.07178,0.0619 5.40176,0.39184 0.62834,0.62834 -0.60529,5.04897 -1.39987,5.01635 -0.24959,-0.0103 -2.33252,-1.18445 -4.62874,-2.60934 z M 134.2489,203.32089 c -1.25361,-1.05484 -3.89465,-5.42289 -6.66371,-11.02119 -2.52288,-5.10059 -4.58705,-9.45551 -4.58705,-9.67761 0,-0.72653 5.15449,0.96014 8.06017,2.63748 6.02033,3.47532 10.70943,11.02511 9.76877,15.72843 -0.88654,4.4327 -3.13504,5.23011 -6.57818,2.33289 z m 246.25549,0.76575 c -3.56466,-4.29515 0.39809,-13.52173 7.85599,-18.29129 3.23528,-2.06907 7.93841,-3.81203 8.37594,-3.10409 0.66054,1.06877 -8.55619,18.7126 -10.73095,20.54254 -2.42713,2.04229 -4.27594,2.32892 -5.50098,0.85284 z M 235.34503,202.2387 c -0.25226,-0.40817 -0.29157,-0.9092 -0.0874,-1.11342 0.49843,-0.49842 1.85553,0.3798 1.85553,1.20078 0,0.88924 -1.20127,0.82989 -1.76817,-0.0874 z m 47.823,0.003 c 0.16743,-0.5023 0.71539,-1.05026 1.21769,-1.21769 0.52187,-0.17396 0.7828,0.087 0.60884,0.60885 -0.16743,0.50229 -0.71539,1.05025 -1.21769,1.21769 -0.52186,0.17395 -0.7828,-0.087 -0.60884,-0.60885 z m -51.81023,-2.83164 c -1.39012,-0.77795 -1.62223,-2.69146 -0.32647,-2.69146 1.05264,0 2.7947,2.58254 2.05178,3.04169 -0.28736,0.1776 -1.06375,0.02 -1.72531,-0.35023 z m 55.8547,0.17323 c 0,-1.44994 0.89586,-2.86469 1.81401,-2.86469 1.45798,0 1.1645,1.93403 -0.42236,2.7833 -0.8255,0.44179 -1.39165,0.4749 -1.39165,0.0814 z m -173.49576,-4.66903 c -1.65219,-0.91013 -1.90055,-1.39213 -1.51848,-2.94704 0.60466,-2.46084 2.26422,-4.96254 3.64299,-5.49162 0.72362,-0.27768 1.81644,0.36183 3.12942,1.83132 1.59092,1.78054 1.97254,2.79824 1.8048,4.81297 -0.19804,2.37863 -0.38081,2.56628 -2.6481,2.71872 -1.33946,0.09 -3.32425,-0.32591 -4.41063,-0.92435 z m 285.80717,0.14864 c -0.7416,-1.93256 0.3485,-5.69611 2.13635,-7.3757 1.60634,-1.50908 1.79973,-1.53655 3.40637,-0.48384 0.93683,0.61383 2.07931,2.25527 2.53883,3.64763 1.07618,3.26086 -0.0216,4.49074 -4.45426,4.99037 -2.53276,0.28548 -3.28061,0.12498 -3.62729,-0.77846 z m -172.38418,-0.20003 c -0.25513,-0.25513 -0.46388,-0.91971 -0.46388,-1.47684 0,-0.82152 0.19726,-0.84926 1.04374,-0.14675 0.57405,0.47643 1.04373,1.14101 1.04373,1.47685 0,0.72054 -0.96277,0.80756 -1.62359,0.14674 z m 64.37818,-0.27543 c 0.16743,-0.5023 0.71539,-1.05026 1.21769,-1.21769 0.52187,-0.17396 0.7828,0.087 0.60885,0.60885 -0.16744,0.50229 -0.7154,1.05026 -1.21769,1.21769 -0.52187,0.17395 -0.78281,-0.087 -0.60885,-0.60885 z m -143.25974,-3.44383 c -0.84104,-0.3387 -2.01524,-1.55579 -2.60933,-2.70464 -3.42067,-6.61483 1.79939,-14.10135 12.66985,-18.17086 3.41431,-1.2782 5.05307,-1.45164 11.29963,-1.19591 4.01838,0.16451 9.97147,0.6916 13.22908,1.17131 7.64263,1.12543 11.11362,0.30097 14.73242,-3.49939 4.65828,-4.89199 4.30203,-11.5838 -0.8652,-16.25208 -2.69009,-2.43034 -4.24184,-2.8829 -8.64197,-2.52042 -6.87709,0.56653 -9.68639,9.3543 -4.33804,13.56979 2.44862,1.92996 1.19004,2.53407 -1.44062,0.69148 -3.6736,-2.57309 -4.60306,-7.80959 -2.21743,-12.49288 l 1.41253,-2.77299 -2.12746,2.43198 c -2.75827,3.15308 -3.76049,6.81835 -2.81972,10.31211 1.72258,6.39715 9.23288,8.93316 13.38051,4.51821 1.23198,-1.31139 1.61434,-2.52036 1.61434,-5.10434 0,-3.27317 0.0315,-3.3259 0.94455,-1.58321 1.10665,2.11213 0.67486,5.83861 -0.96687,8.3442 -1.33699,2.04051 -4.95778,3.69531 -8.08553,3.69531 -8.77327,0 -14.3261,-10.52719 -10.27683,-19.48306 3.04669,-6.73842 7.77557,-9.85128 19.90059,-13.09988 9.07679,-2.4319 11.13872,-3.419 14.03683,-6.71976 3.28498,-3.74138 2.75521,-9.40495 -0.87973,-9.40495 -2.25059,0 -3.50821,1.77076 -3.50821,4.93968 0,3.63859 1.13372,4.68024 3.03,2.78396 0.94253,-0.94253 1.46123,-1.13378 1.46123,-0.53878 0,1.99402 -3.49548,4.29623 -6.52303,4.29623 -3.79263,0 -6.47493,-1.79656 -8.13229,-5.44688 -1.75314,-3.86125 -1.67271,-6.35268 0.34497,-10.68623 3.07126,-6.59643 10.49505,-9.51895 17.44135,-6.86613 4.797,1.83199 8.0008,6.03427 11.46689,15.04061 4.775,12.40745 8.43353,15.97424 16.3554,15.94532 5.26748,-0.0192 8.93526,-1.64424 12.41042,-5.49845 3.35569,-3.72171 5.3736,-8.33962 5.85016,-13.38785 0.33669,-3.56654 0.20097,-4.11249 -1.42709,-5.74055 -2.67104,-2.67104 -4.66805,-2.19035 -5.53386,1.33204 -0.22679,0.92265 -0.36927,0.63778 -0.42279,-0.8453 -0.13563,-3.75885 3.94533,-4.93592 7.25196,-2.09168 5.10074,4.38748 2.6034,17.83324 -4.61301,24.83652 -4.36754,4.23856 -8.42022,5.89652 -14.30029,5.85029 -9.43979,-0.0742 -14.73714,-4.69379 -19.4033,-16.92075 -3.3173,-8.69251 -4.77486,-11.20744 -7.62875,-13.16295 -4.94902,-3.39112 -10.69875,-2.2733 -14.15794,2.75249 -2.31156,3.35842 -1.87607,9.17169 0.86363,11.52828 2.31064,1.98753 5.68934,2.26304 4.95414,0.40397 -3.27461,-8.28038 3.03323,-14.97603 8.73607,-9.27319 1.66805,1.66805 2.03395,2.61924 2.03395,5.28748 0,8.15469 -6.21991,13.48617 -19.48306,16.70016 l -5.21868,1.26462 3.82703,0.78864 c 5.00241,1.03086 7.85968,2.59991 10.11213,5.55302 6.27174,8.22267 3.69131,19.43358 -5.56881,24.1942 -4.19004,2.15409 -9.96106,2.31797 -20.16538,0.57262 -10.13354,-1.73325 -13.84726,-1.52084 -19.86494,1.13618 -6.77868,2.99302 -9.99805,7.37664 -8.34622,11.36452 0.98447,2.37672 3.32498,3.27634 5.49811,2.11331 1.60383,-0.85834 1.83598,-2.20032 0.73616,-4.25537 -0.39617,-0.74025 -0.44643,-1.34591 -0.11169,-1.34591 0.70173,0 2.22364,3.08338 2.22364,4.50509 0,1.35404 -3.37918,3.85342 -5.13856,3.80069 -0.80947,-0.0243 -2.15989,-0.32122 -3.00094,-0.65992 z m 75.63439,0.008 c 0,-0.3827 0.31312,-0.69582 0.69582,-0.69582 0.3827,0 0.69582,0.31312 0.69582,0.69582 0,0.38271 -0.31312,0.69583 -0.69582,0.69583 -0.3827,0 -0.69582,-0.31312 -0.69582,-0.69583 z m 70.974,0 c 0,-0.3827 0.31312,-0.69582 0.69582,-0.69582 0.38271,0 0.69583,0.31312 0.69583,0.69582 0,0.38271 -0.31312,0.69583 -0.69583,0.69583 -0.3827,0 -0.69582,-0.31312 -0.69582,-0.69583 z m 70.32869,-1.13757 c -1.59569,-2.02859 -1.59783,-2.03765 -1.00359,-4.25506 0.61533,-2.29609 1.52243,-1.90832 1.40359,0.60001 -0.19671,4.15219 4.84262,4.63762 6.50406,0.62653 1.70726,-4.12168 -2.19928,-9.10168 -9.15896,-11.67572 -6.03097,-2.23056 -9.25092,-2.38279 -18.3224,-0.86623 -13.85892,2.31693 -18.91763,1.76685 -24.03519,-2.61359 -4.73343,-4.05164 -6.70494,-9.28038 -5.63964,-14.95716 1.25218,-6.67263 6.64832,-11.70526 13.67089,-12.74993 l 3.47911,-0.51755 -5.6246,-1.54058 c -13.54325,-3.70949 -19.07713,-8.54024 -19.07713,-16.6532 0,-2.66824 0.36589,-3.61943 2.03394,-5.28748 2.8051,-2.8051 5.60032,-2.73739 8.06814,0.19545 1.55574,1.84889 1.81694,2.70989 1.53037,5.04472 -0.19004,1.54843 -0.57019,3.36329 -0.84476,4.03302 -0.86659,2.11373 2.92747,1.52605 5.26977,-0.81625 1.68737,-1.68737 2.03351,-2.60627 2.03135,-5.39264 -0.003,-4.39092 -1.92064,-7.48178 -5.81429,-9.37346 -6.44142,-3.12948 -12.5056,0.85204 -16.04968,10.53763 -4.7909,13.09304 -8.54285,17.87911 -15.63148,19.93983 -9.78013,2.84316 -19.70152,-2.31035 -24.59996,-12.77807 -2.71799,-5.80821 -3.06278,-12.9471 -0.77379,-16.02154 3.10096,-4.16504 8.67273,-3.72741 8.51684,0.66893 -0.0527,1.48559 -0.19954,1.79291 -0.42279,0.8847 -0.86581,-3.52239 -2.86282,-4.00308 -5.53386,-1.33204 -1.63146,1.63147 -1.76518,2.17391 -1.43462,5.81946 0.45798,5.05069 2.38691,9.46137 5.78052,13.21769 3.68586,4.0798 6.98479,5.60498 12.12345,5.60498 8.10424,0 11.61648,-3.08494 15.79819,-13.87614 4.55386,-11.75159 7.79286,-15.91752 13.58939,-17.47836 10.9924,-2.95995 21.07572,7.69911 16.6812,17.63365 -2.90535,6.56802 -10.45027,7.99047 -13.97551,2.6348 l -1.114,-1.69243 1.89807,1.24367 c 1.8874,1.23666 1.90204,1.23321 2.60447,-0.6143 0.92729,-2.43896 0.8993,-2.85508 -0.35521,-5.28103 -1.89871,-3.67169 -5.89664,-1.97978 -5.89664,2.49542 0,2.83022 3.11969,6.72795 6.89236,8.6113 1.37569,0.68676 5.75813,2.09516 9.73874,3.12978 11.3717,2.95568 16.32878,6.18612 19.30728,12.58219 4.37886,9.40322 -1.05901,19.8415 -10.3323,19.83344 -6.90125,-0.006 -11.67712,-6.94581 -8.60214,-12.49976 0.8929,-1.61273 0.92917,-1.5262 0.59667,1.42368 -0.301,2.67046 -0.0795,3.46696 1.47886,5.31902 2.25283,2.67733 5.04312,3.38239 8.18712,2.06875 3.23491,-1.35163 4.57477,-2.84807 5.44555,-6.08193 0.9679,-3.5945 -0.006,-7.22267 -2.7935,-10.40944 l -2.12747,-2.43198 1.41254,2.77299 c 2.38562,4.68329 1.45616,9.91979 -2.21744,12.49288 -2.75582,1.93026 -3.25594,1.15282 -0.8233,-1.27982 5.31098,-5.31098 1.24814,-12.94232 -6.89036,-12.94232 -5.26077,0 -9.997,4.25692 -10.71815,9.63346 -0.58249,4.34278 1.2293,8.41903 4.75941,10.708 3.81861,2.47603 7.41068,2.9224 14.53327,1.80599 3.24517,-0.50866 9.34463,-0.92144 13.55437,-0.91731 6.48442,0.006 8.18571,0.25059 11.13317,1.59811 8.65026,3.95473 12.63546,8.8046 11.98402,14.58419 -0.66726,5.91992 -6.93001,8.74048 -10.19395,4.59105 z m -157.19904,-2.7057 c -4.41063,-3.7113 -6.1338,-10.617 -3.95215,-15.83844 1.36097,-3.25726 3.924,-5.1668 8.65101,-6.44526 2.14024,-0.57885 5.10381,-1.38009 6.58571,-1.78053 4.03262,-1.0897 6.00806,-3.41019 5.98129,-7.026 -0.0122,-1.64389 -0.40357,-3.4857 -0.86978,-4.09292 -2.05136,-2.67183 -6.57303,-3.58396 -8.17827,-1.64977 -1.21343,1.4621 -0.21122,2.26667 3.15568,2.53335 5.79088,0.45868 2.98584,5.848 -2.97586,5.7175 -2.64289,-0.0579 -3.508,-0.43992 -5.14532,-2.2724 -4.75041,-5.31663 -0.60454,-11.92244 7.48263,-11.92244 11.06611,0 14.9456,14.76521 5.35168,20.36836 -1.23221,0.71965 -4.80505,1.75619 -7.93965,2.30341 -7.03436,1.22804 -9.77371,3.08146 -10.99349,7.43807 -1.17113,4.18287 -0.0556,8.05446 3.35341,11.63804 2.96906,3.12113 2.67907,3.70984 -0.50689,1.02903 z m 14.95494,-23.01963 c 4.47929,-2.12384 6.12859,-5.08626 5.64334,-10.13639 -0.35002,-3.64273 -2.10506,-6.16172 -5.53716,-7.94744 -3.77688,-1.96511 -10.00238,-0.6511 -11.66897,2.46295 -2.19058,4.09313 0.54909,9.42729 4.60371,8.96351 2.45516,-0.28084 3.22407,-2.98207 1.04565,-3.67347 -4.27851,-1.35795 -2.76711,-5.2515 2.03853,-5.2515 5.18023,0 8.59451,4.96648 6.91427,10.05764 -0.97946,2.96781 -3.74009,4.75064 -9.75202,6.29791 -5.88155,1.51371 -6.23357,1.98506 -1.04374,1.39754 2.29622,-0.25995 5.78659,-1.23679 7.75639,-2.17075 z m 88.83444,21.95385 c 3.35797,-3.92304 4.35654,-7.52583 3.21548,-11.60129 -1.14203,-4.07892 -3.9327,-6.12495 -9.69715,-7.10963 -6.35119,-1.08491 -9.88072,-2.51208 -12.20032,-4.93322 -1.68126,-1.75485 -2.03849,-2.77772 -2.24359,-6.42401 -0.19428,-3.45387 0.0458,-4.79854 1.17912,-6.60462 2.14232,-3.41398 5.29395,-5.03271 9.80455,-5.03576 3.27527,-0.002 4.17421,0.29725 6.05849,2.01827 1.21691,1.11148 2.41238,2.81702 2.65661,3.79008 1.57851,6.28929 -6.3567,11.37797 -11.21972,7.19497 -1.41111,-1.21378 -1.74925,-1.97904 -1.38356,-3.1312 0.38832,-1.2235 1.0166,-1.52483 3.1793,-1.52483 2.99293,0 4.02857,-0.92791 2.75217,-2.46587 -1.37611,-1.65811 -4.88833,-1.23256 -7.06882,0.85649 -1.56078,1.49532 -1.95159,2.48446 -1.95159,4.9395 0,4.43401 2.44292,6.51199 9.47118,8.05633 2.97234,0.65313 6.45071,1.83424 7.7297,2.6247 5.9904,3.70227 6.69746,13.5806 1.37919,19.26882 -2.89831,3.09992 -4.30376,3.16869 -1.66104,0.0813 z m -2.68944,-19.39085 c -0.36356,-0.35305 -2.68243,-1.16111 -5.15303,-1.79569 -6.29526,-1.61696 -8.33031,-2.83836 -9.53562,-5.72308 -2.17592,-5.20771 1.22382,-10.62657 6.66702,-10.62657 4.5745,0 6.48843,4.27727 2.3758,5.30948 -2.62972,0.66002 -1.9494,3.32312 0.92007,3.60161 4.03178,0.39129 6.59539,-4.83258 4.39202,-8.94963 -1.66305,-3.10742 -7.06443,-4.29504 -11.30886,-2.48652 -3.76299,1.60339 -5.56821,4.14055 -5.87727,8.26026 -0.51413,6.85305 2.7897,10.12521 12.08927,11.97338 6.08828,1.20997 6.23937,1.22212 5.4306,0.43676 z m -85.24619,20.56683 c -6.56442,-1.77017 -10.39476,-6.2133 -10.39476,-12.05775 0,-2.77146 0.33887,-3.768 1.72365,-5.06894 2.6916,-2.52862 8.01788,-1.75558 8.01788,1.16369 0,0.83247 -0.19603,0.81221 -1.1245,-0.11626 -1.5337,-1.5337 -2.74309,-0.94608 -2.51043,1.21976 0.10565,0.98354 -0.12919,1.98682 -0.52187,2.22951 -1.18711,0.73367 -0.8026,4.54266 0.66689,6.60637 0.75947,1.06657 2.85542,2.63236 4.65768,3.47952 3.06274,1.43966 3.98401,1.51781 14.10122,1.19628 5.95342,-0.18921 9.57191,-0.21254 8.0411,-0.0519 -1.53081,0.16068 -5.57827,0.75504 -8.99436,1.3208 -7.32459,1.21307 -9.41182,1.22512 -13.6625,0.0789 z m 59.88342,0.14345 c -1.72216,-0.35962 -5.16649,-0.92721 -7.65406,-1.26133 -3.23062,-0.43391 -1.50558,-0.49877 6.03769,-0.227 9.9013,0.35673 10.75901,0.28441 13.73981,-1.15857 1.7486,-0.84648 3.80673,-2.33674 4.57362,-3.31169 1.49181,-1.89653 1.88382,-6.0711 0.64215,-6.83849 -0.41371,-0.25568 -0.5725,-1.18088 -0.35286,-2.05599 0.49951,-1.99019 -1.19815,-2.81269 -2.70183,-1.30901 -0.84805,0.84806 -1.06387,0.87029 -1.06387,0.1096 0,-1.65254 1.57874,-2.62425 4.26361,-2.62425 3.47225,0 5.47792,2.46729 5.47792,6.73871 0,9.23096 -10.29476,14.5832 -22.96218,11.93802 z m -28.88888,-3.18618 c -1.61122,-0.27181 -2.34788,-2.07342 -5.17867,-12.66526 -2.08843,-7.81417 -3.48577,-9.78353 -6.94183,-9.78353 -2.34162,0 -4.91497,2.60831 -4.91497,4.98173 0,1.90661 1.34145,3.32871 4.34889,4.61034 2.32886,0.99245 2.68935,3.98439 0.56144,4.65976 -1.91762,0.60863 -6.4201,-1.89652 -7.86758,-4.37748 -4.31757,-7.40023 4.01422,-15.81125 11.36248,-11.47052 2.64339,1.56149 3.85024,4.28509 4.73391,10.68342 1.04367,7.55682 2.19721,10.69801 4.02423,10.95837 0.82841,0.11805 1.67556,0.65598 1.88255,1.1954 0.45209,1.17812 -0.12637,1.52563 -2.01045,1.20777 z m 8.71,-0.97475 c 0,-0.84201 0.49932,-1.29515 1.42715,-1.29515 1.88824,0 3.11519,-3.02908 4.08988,-10.09705 1.05431,-7.64527 1.77848,-9.48654 4.4441,-11.29953 6.22807,-4.23594 13.79765,0.76756 12.77878,8.44677 -0.42621,3.21241 -3.42195,6.30743 -6.82952,7.05585 -2.50531,0.55026 -3.38557,-0.0177 -3.38557,-2.18459 0,-1.3467 0.58281,-1.97665 2.60934,-2.82043 3.04231,-1.26671 3.62791,-1.99542 3.64242,-4.5326 0.0127,-2.21071 -2.83716,-4.74731 -5.33349,-4.74731 -2.82526,0 -4.82026,2.75973 -6.08008,8.41071 -1.9802,8.88227 -3.96234,13.70841 -5.7723,14.0544 -1.19624,0.22868 -1.59071,-0.0171 -1.59071,-0.99107 z m -33.13512,-1.60974 c -0.54198,-1.4124 0.26498,-2.46871 1.88596,-2.46871 1.69408,0 2.5799,2.0047 1.25618,2.84287 -1.44457,0.91469 -2.70516,0.76458 -3.14214,-0.37416 z m 55.65388,-0.0313 c -0.24045,-0.62662 -0.11575,-1.46075 0.27711,-1.85362 1.13427,-1.13427 3.29751,-0.36981 3.29751,1.16529 0,1.76995 -2.94216,2.33649 -3.57462,0.68833 z M 131.00011,181.5995 c -3.30491,-0.81922 -9.25426,-6.38018 -8.36506,-7.81894 1.22586,-1.98349 10.26415,-2.75814 12.65358,-1.08451 1.66157,1.16381 2.58584,4.00263 1.95269,5.99753 -0.3477,1.09549 -3.87551,3.62795 -4.64106,3.3316 -0.11468,-0.0444 -0.83475,-0.23595 -1.60015,-0.42568 z m 91.8153,-1.1865 c -0.87977,-1.3427 -0.94439,-2.00091 -0.31238,-3.18183 0.71719,-1.34008 0.94438,-1.39098 2.27251,-0.50914 2.033,1.34986 2.89922,2.89456 2.3808,4.24555 -0.64806,1.68882 -3.07408,1.37888 -4.34093,-0.55458 z m 70.42756,1.22901 c -0.86457,-0.86457 -0.46965,-2.79433 0.8086,-3.95112 2.82407,-2.55575 5.38388,-0.48304 3.31084,2.68082 -1.07945,1.64745 -3.11469,2.27505 -4.11944,1.2703 z m 91.00529,-1.24404 c -2.21126,-2.21126 -2.17619,-4.8453 0.0947,-7.11622 1.67562,-1.67563 2.11667,-1.77334 6.25857,-1.38656 7.93001,0.74051 9.04324,2.38315 4.26731,6.29667 -5.15929,4.22765 -8.00745,4.81926 -10.62061,2.20611 z m -147.13506,-0.0316 c 0,-0.57986 0.61851,-1.04374 1.39165,-1.04374 0.77314,0 1.39165,0.46388 1.39165,1.04374 0,0.57985 -0.61851,1.04373 -1.39165,1.04373 -0.77314,0 -1.39165,-0.46388 -1.39165,-1.04373 z m 43.14107,0 c 0,-0.78477 0.48835,-1.07117 1.5656,-0.91818 0.86108,0.1223 1.5656,0.53547 1.5656,0.91818 0,0.3827 -0.70452,0.79588 -1.5656,0.91817 -1.07725,0.153 -1.5656,-0.13341 -1.5656,-0.91817 z m -38.2703,-0.34791 c 0,-0.38271 0.29464,-0.69583 0.65476,-0.69583 0.36011,0 0.84827,0.31312 1.0848,0.69583 0.23652,0.3827 -0.0581,0.69582 -0.65476,0.69582 -0.59664,0 -1.0848,-0.31312 -1.0848,-0.69582 z m 34.09535,0 c 0,-0.38271 0.46969,-0.69583 1.04374,-0.69583 0.57405,0 1.04374,0.31312 1.04374,0.69583 0,0.3827 -0.46969,0.69582 -1.04374,0.69582 -0.57405,0 -1.04374,-0.31312 -1.04374,-0.69582 z m -21.57053,-14.30545 c 0,-0.59664 0.31823,-0.88813 0.70718,-0.64775 0.38894,0.24038 0.52702,0.72855 0.30684,1.0848 -0.59648,0.96514 -1.01402,0.78518 -1.01402,-0.43705 z m 10.49229,-0.0169 c 0.0334,-0.8106 0.19827,-0.97548 0.42039,-0.4204 0.20101,0.5023 0.17629,1.10245 -0.0549,1.33367 -0.23122,0.23121 -0.39567,-0.17976 -0.36546,-0.91327 z m -9.79646,-4.46487 c 0,-0.76541 0.31312,-1.39165 0.69582,-1.39165 0.3827,0 0.69582,0.62624 0.69582,1.39165 0,0.7654 -0.31312,1.39165 -0.69582,1.39165 -0.3827,0 -0.69582,-0.62625 -0.69582,-1.39165 z m 8.34988,0.34791 c 0,-0.57405 0.31312,-1.04373 0.69582,-1.04373 0.38271,0 0.69583,0.46968 0.69583,1.04373 0,0.57406 -0.31312,1.04374 -0.69583,1.04374 -0.3827,0 -0.69582,-0.46968 -0.69582,-1.04374 z m -9.27765,-4.98674 c -0.25513,-0.25513 -0.46388,-1.06089 -0.46388,-1.79057 0,-1.89635 2.37668,-1.27398 2.65773,0.69596 0.21414,1.50092 -1.12125,2.16721 -2.19385,1.09461 z m 9.3951,-1.0327 c 0.12803,-0.9002 0.79679,-1.72839 1.50466,-1.86337 0.98649,-0.1881 1.22216,0.12292 1.04374,1.37743 -0.12804,0.90019 -0.7968,1.72839 -1.50467,1.86337 -0.98648,0.1881 -1.22216,-0.12292 -1.04373,-1.37743 z m -26.98734,-3.68144 c -0.65723,-1.71271 0.004,-3.31498 1.97409,-4.78457 1.5891,-1.18529 2.17623,-1.28342 3.65308,-0.61052 2.21823,1.01069 2.23474,2.50724 0.0517,4.69025 -1.88082,1.88082 -5.07548,2.27732 -5.6789,0.70484 z m 40.83686,-0.83031 c -1.89066,-2.40359 -1.82038,-3.59069 0.26891,-4.54264 1.36882,-0.62368 2.06248,-0.54934 3.46807,0.37163 1.81293,1.18788 2.95107,3.97524 2.15146,5.26903 -0.89835,1.45357 -4.39411,0.80171 -5.88844,-1.09802 z m -28.91223,-0.68644 c -1.46317,-1.46317 -1.08462,-3.33887 0.72638,-3.59925 1.74132,-0.25037 4.10306,2.19006 3.53984,3.65779 -0.53701,1.39944 -2.83983,1.36784 -4.26622,-0.0585 z m 19.29416,0.66736 c -1.24772,-0.50347 -1.07221,-1.92359 0.4027,-3.25836 2.6035,-2.35614 5.22553,-0.713 3.62738,2.27317 -0.74174,1.38596 -2.17099,1.73535 -4.03008,0.98519 z m 45.77699,-4.02999 c -0.48296,-0.58193 -0.69116,-1.54522 -0.46267,-2.14065 0.56083,-1.46151 3.39591,-0.0143 3.0874,1.57604 -0.3007,1.54999 -1.57877,1.82492 -2.62473,0.56461 z m -109.96672,-0.70338 c 0,-0.56059 0.63089,-1.35689 1.40197,-1.76956 1.09573,-0.58642 1.48919,-0.52304 1.80122,0.29011 0.21959,0.57223 0.19646,1.36853 -0.0514,1.76956 -0.68069,1.10138 -3.1518,0.87393 -3.1518,-0.29011 z m 4.54374,-3.1219 c -0.6005,-0.97162 0.16466,-2.12126 1.41183,-2.12126 1.27759,0 1.28769,0.98471 0.0209,2.03606 -0.67116,0.55702 -1.12446,0.58397 -1.43271,0.0852 z m 101.69983,0.21265 c -0.95596,-0.95595 -0.46011,-2.43243 0.73931,-2.20144 0.66973,0.12898 1.21769,0.6738 1.21769,1.21073 0,1.0986 -1.22764,1.72008 -1.957,0.99071 z m -98.58951,-3.72555 c 0,-0.38271 0.31312,-0.69583 0.69582,-0.69583 0.38271,0 0.69583,0.31312 0.69583,0.69583 0,0.3827 -0.31312,0.69582 -0.69583,0.69582 -0.3827,0 -0.69582,-0.31312 -0.69582,-0.69582 z m 96.02366,0 c 0,-0.38271 0.31312,-0.69583 0.69582,-0.69583 0.3827,0 0.69582,0.31312 0.69582,0.69583 0,0.3827 -0.31312,0.69582 -0.69582,0.69582 -0.3827,0 -0.69582,-0.31312 -0.69582,-0.69582 z m -93.93619,-2.08747 c 0,-0.38271 0.31312,-0.69583 0.69583,-0.69583 0.3827,0 0.69582,0.31312 0.69582,0.69583 0,0.3827 -0.31312,0.69582 -0.69582,0.69582 -0.38271,0 -0.69583,-0.31312 -0.69583,-0.69582 z m 91.84872,-0.0411 c 0,-0.40529 0.31312,-0.54337 0.69582,-0.30684 0.3827,0.23652 0.69582,0.56812 0.69582,0.73688 0,0.16877 -0.31312,0.30685 -0.69582,0.30685 -0.3827,0 -0.69582,-0.3316 -0.69582,-0.73689 z m -69.23445,-3.21205 c -2.02914,-0.53625 -5.9145,-3.62419 -5.9145,-4.70063 0,-0.62984 1.29463,-1.01834 4.06005,-1.21837 4.24149,-0.30681 10.37674,-2.83298 13.14582,-5.41277 1.67117,-1.55693 2.64307,-1.87817 1.86283,-0.61572 -0.30761,0.49772 -0.19087,0.61445 0.30685,0.30684 0.44183,-0.27306 0.80333,-0.94768 0.80333,-1.49915 0,-0.55147 0.35409,-1.00267 0.78687,-1.00267 1.08672,0 0.31648,4.34524 -1.33809,7.54871 -2.37681,4.6018 -9.07094,7.82057 -13.71316,6.59376 z m 41.5486,-0.31561 c -4.44585,-1.28215 -9.1928,-7.83492 -9.1928,-12.6899 0,-1.68062 1.1627,-1.3801 1.65838,0.42864 0.31009,1.13152 0.58795,1.31989 1.00217,0.67938 0.43664,-0.6752 0.89229,-0.53302 1.91353,0.59707 2.33921,2.58857 7.97474,4.97419 12.63399,5.34819 2.70988,0.21752 4.36246,0.66352 4.36246,1.17735 0,1.34066 -3.07049,3.83301 -5.62453,4.5655 -2.7743,0.79565 -3.67504,0.78149 -6.7532,-0.10623 z m -42.38409,-14.69645 c -4.41935,-4.85204 -3.98878,-10.87663 1.19965,-16.78592 3.12472,-3.558869 5.47272,-4.610659 10.29271,-4.610659 4.57457,0 7.00322,1.34554 8.84009,4.897649 1.16717,2.25706 1.41089,6.55317 0.33401,5.88762 -0.3827,-0.23653 -0.69582,-1.02035 -0.69582,-1.74182 0,-0.72148 -0.74957,-2.18321 -1.66571,-3.24829 -3.2187,-3.741959 -9.88427,-2.03583 -12.02046,3.07678 -0.83426,1.99668 -0.90978,3.42458 -0.37435,7.07807 0.40758,2.7811 0.42131,5.05455 0.035,5.79448 -0.90798,1.73914 -4.22077,1.54527 -5.94512,-0.34791 z m 43.73768,0.34791 c -0.38678,-0.74084 -0.37033,-3.02903 0.042,-5.84318 0.56708,-3.87021 0.48667,-5.02816 -0.49242,-7.09145 -1.48606,-3.13164 -3.98885,-4.77356 -7.39042,-4.84838 -3.1508,-0.0693 -6.18468,2.31359 -6.18468,4.85761 0,0.89005 -0.35435,1.61827 -0.78744,1.61827 -0.52473,0 -0.65513,-0.98651 -0.39085,-2.95684 0.91415,-6.815509 9.6816,-10.040599 16.28307,-5.989709 6.062,3.719859 9.55029,12.013479 7.07462,16.820309 -2.23423,4.33803 -6.69986,6.21838 -8.15389,3.43337 z"
       id="path1" /></g></svg>
