<?xml version="1.0" encoding="UTF-8" standalone="no"?>
<!-- Created with Inkscape (http://www.inkscape.org/) -->

<svg
   width="210mm"
   height="297mm"
   viewBox="0 0 210 297"
   version="1.1"
   id="svg1"
   xml:space="preserve"
   inkscape:version="1.4.2 (f4327f4, 2025-05-13)"
   xmlns:inkscape="http://www.inkscape.org/namespaces/inkscape"
   xmlns:sodipodi="http://sodipodi.sourceforge.net/DTD/sodipodi-0.dtd"
   xmlns="http://www.w3.org/2000/svg"
   xmlns:svg="http://www.w3.org/2000/svg"><sodipodi:namedview
     id="namedview1"
     pagecolor="#ffffff"
     bordercolor="#000000"
     borderopacity="0.25"
     inkscape:showpageshadow="2"
     inkscape:pageopacity="0.0"
     inkscape:pagecheckerboard="0"
     inkscape:deskcolor="#d1d1d1"
     inkscape:document-units="mm"
     inkscape:zoom="0.68862935"
     inkscape:cx="456.70432"
     inkscape:cy="445.08704"
     inkscape:window-width="1920"
     inkscape:window-height="991"
     inkscape:window-x="-9"
     inkscape:window-y="-9"
     inkscape:window-maximized="1"
     inkscape:current-layer="layer1" /><defs
     id="defs1" /><g
     inkscape:label="Layer 1"
     inkscape:groupmode="layer"
     id="layer1"><path
       style="fill:#aa8800"
       d="m 79.118143,205.20154 c -0.249515,-0.91885 -0.850426,-2.72684 -1.335356,-4.01775 -1.266351,-3.3711 -1.537072,-5.14613 -1.038959,-6.81208 0.48157,-1.61062 1.204404,-2.47852 3.91163,-4.69666 1.137736,-0.93219 2.292466,-2.07 2.566065,-2.52846 0.348249,-0.58356 0.497749,-0.68977 0.498438,-0.35413 0.0018,0.88085 -0.783567,2.41265 -2.224283,4.33825 -1.626853,2.17438 -1.987328,2.98672 -1.987328,4.47851 0,1.05677 1.15704,4.4264 1.620382,4.71901 0.135339,0.0855 0.905135,-0.35305 1.710657,-0.97449 1.063773,-0.82068 1.630638,-1.50808 2.071348,-2.51181 0.567725,-1.293 0.591364,-1.55499 0.367421,-4.07221 -0.236846,-2.66225 -0.12019,-4.73397 0.310546,-5.5151 0.157571,-0.28575 0.224863,-0.15086 0.230532,0.46212 0.0044,0.47612 0.481386,2.3526 1.05996,4.16996 0.579983,1.82178 1.052491,3.83952 1.053149,4.49724 0.002,1.98326 -0.774907,3.1301 -4.69876,6.93627 l -3.661778,3.55196 z m 48.125247,-2.76985 c -1.03831,-0.8751 -2.57471,-2.0148 -3.41422,-2.53268 -4.1823,-2.58002 -5.08735,-5.06995 -3.62535,-9.97394 0.3717,-1.2468 0.69752,-2.83024 0.72404,-3.51875 0.0554,-1.43691 0.26868,-1.44863 0.72373,-0.0397 0.21051,0.65176 0.26514,1.82556 0.16063,3.45128 -0.18566,2.8881 0.0767,4.09633 1.16437,5.36213 1.00121,1.16519 3.64439,2.96935 3.90312,2.66416 0.62378,-0.7358 1.12502,-2.94492 1.02659,-4.52446 -0.11229,-1.80188 -0.007,-1.61014 -2.73813,-4.98894 -1.23292,-1.52533 -2.21744,-3.2194 -2.21744,-3.81556 0,-0.18679 0.17741,-0.0808 0.39425,0.23554 0.21684,0.31633 1.66821,1.53823 3.22527,2.71534 2.93974,2.22239 3.95106,3.17275 3.67568,3.45413 -0.0887,0.0907 0.004,0.33352 0.20536,0.53963 0.52022,0.53156 0.73113,2.44346 0.42646,3.86568 -0.14264,0.66585 -0.51282,2.54233 -0.82263,4.16996 -0.3098,1.62763 -0.64441,3.31212 -0.74358,3.74332 l -0.1803,0.78398 z m -34.731665,-6.54251 c -0.450561,-0.28073 -1.056175,-0.85533 -1.345809,-1.27688 -0.698906,-1.01723 -2.787038,-4.93642 -2.63011,-4.93642 0.06781,0 0.522814,0.17204 1.011125,0.38231 1.201029,0.51716 2.581028,1.94272 3.145738,3.24959 0.443637,1.02668 0.934073,3.09496 0.733381,3.09284 -0.05232,-5.6e-4 -0.463764,-0.2307 -0.914325,-0.51144 z m 21.751995,-1.38769 c 0.003,-2.39001 0.95616,-4.41967 2.61078,-5.55904 0.4886,-0.33644 0.98226,-0.61171 1.09702,-0.61171 0.25701,0 -0.80717,3.25161 -1.5425,4.71317 -0.29635,0.58903 -0.90511,1.42654 -1.35279,1.86113 l -0.81398,0.79016 z m -41.87143,-3.73554 c 0.407829,-0.77865 2.632198,-2.72829 3.569126,-3.1283 0.996332,-0.42538 3.283647,-0.52124 3.283647,-0.13762 0,0.27534 -2.864344,2.41499 -4.080951,3.04846 -0.434424,0.22619 -1.288975,0.46918 -1.899003,0.53996 -0.975881,0.11324 -1.080747,0.0745 -0.872819,-0.3225 z m 20.60158,-2.05259 c -3.881368,-1.97635 -4.885416,-6.75879 -2.44512,-11.64649 0.742547,-1.48726 0.910375,-1.41748 0.251477,0.10456 -1.821233,4.20699 -0.773104,8.41792 2.48057,9.96585 1.872176,0.89068 3.567147,0.88256 4.397957,-0.0211 0.51878,-0.56426 0.57994,-0.79855 0.36866,-1.41241 -0.21032,-0.61109 -0.40852,-0.73592 -1.16845,-0.73592 -0.774162,0 -0.976022,0.13382 -1.310102,0.86852 -0.498629,1.09659 -0.789859,1.11591 -0.789859,0.0524 0,-1.17566 1.246319,-2.40057 2.442531,-2.40057 1.83018,0 3.070156,2.24687 2.19468,3.97679 -1.00948,1.9947 -3.866122,2.54998 -6.422344,1.24837 z m 15.871,0.43409 c -0.28962,-0.12391 -0.79172,-0.48278 -1.11579,-0.79748 -1.6709,-1.62263 -0.6542,-4.86177 1.52602,-4.86177 1.10182,0 2.35588,1.19857 2.34728,2.24341 l -0.007,0.85043 -0.45375,-0.75078 c -0.80993,-1.34014 -2.47259,-1.27357 -2.63702,0.10559 -0.14043,1.17781 0.52932,1.72632 2.05124,1.67992 1.81272,-0.0553 3.53539,-1.14271 4.60096,-2.90436 0.69459,-1.14832 0.79552,-1.56162 0.78668,-3.22124 -0.008,-1.57428 -0.15914,-2.2292 -0.87074,-3.78291 -0.47332,-1.03346 -1.06115,-2.12094 -1.30629,-2.41663 -0.40201,-0.48492 -0.40278,-0.50378 -0.008,-0.19243 0.63374,0.4996 2.16922,3.22283 2.67877,4.75089 0.54588,1.63702 0.56096,3.62308 0.0372,4.9039 -1.32418,3.23833 -5.16301,5.44886 -7.62974,4.39346 z m -19.219964,-0.53884 c -2.488547,-1.22257 -3.571048,-3.11415 -3.595625,-6.28304 l -0.01081,-1.39315 -0.539162,1.07612 c -0.965832,1.92771 -1.809446,2.80673 -3.519058,3.66672 -1.429286,0.71899 -1.864233,0.81989 -2.90553,0.67405 -0.67354,-0.0943 -1.403858,-0.32269 -1.62293,-0.50745 -0.329561,-0.27795 -0.09414,-0.36299 1.363943,-0.49266 3.199895,-0.28458 5.146558,-2.48266 5.694422,-6.42985 0.400196,-2.88329 -0.01281,-5.58764 -1.767386,-11.57292 -1.316042,-4.48932 -0.847096,-8.11599 1.30661,-10.10488 l 0.856352,-0.79082 -0.710073,0.80709 c -1.07337,1.22002 -1.55273,2.6563 -1.556279,4.66298 -0.0033,1.85425 0.265511,2.89005 2.001368,7.71238 1.101781,3.06083 1.713064,5.959 1.713064,8.12187 v 1.48332 l 0.796936,-1.54805 c 1.302418,-2.52993 2.427488,-3.89857 6.164586,-7.49913 3.85269,-3.71193 4.76493,-5.08584 5.1449,-7.7486 l 0.20239,-1.41836 0.0328,1.22906 c 0.0755,2.82622 -1.00211,4.88557 -4.623346,8.83512 -4.734173,5.16339 -6.151225,7.6413 -6.349183,11.10241 -0.09941,1.73804 -0.02622,2.25949 0.461675,3.28933 0.63175,1.33348 1.827221,2.50579 2.97065,2.91308 0.40017,0.14254 0.727582,0.36839 0.727582,0.50188 0,0.40514 -1.122673,0.26142 -2.237941,-0.2865 z m 25.417354,-0.45048 c 0.006,-0.12702 0.38559,-0.47307 0.84447,-0.769 0.45888,-0.29593 1.19481,-1.06347 1.6354,-1.70565 0.72458,-1.05609 0.80107,-1.36575 0.80107,-3.24273 0,-1.82657 -0.10703,-2.29057 -0.89352,-3.8736 -1.18036,-2.37577 -3.08131,-4.47548 -6.82359,-7.53703 -4.85582,-3.97254 -5.86876,-5.436 -5.99452,-8.66074 -0.0714,-1.83106 -0.0681,-1.84223 0.12014,-0.40354 0.41617,3.18109 1.65906,4.77006 6.11954,7.82358 3.5677,2.44233 5.81875,4.49003 7.2179,6.56584 1.07047,1.58818 1.3766,1.76497 0.88616,0.51177 -0.62172,-1.58864 -0.39151,-6.12162 0.53792,-10.5922 1.23601,-5.9452 1.01568,-8.28272 -1.00207,-10.63119 -0.57518,-0.66946 -0.52221,-0.64653 0.31064,0.13452 1.06345,0.99728 1.55074,1.88027 2.00432,3.6319 0.397,1.53312 0.35368,2.759 -0.27273,7.71799 -0.77908,6.16765 -0.37267,9.7563 1.40819,12.43423 1.33588,2.0088 3.82086,3.1091 5.92879,2.62515 1.32632,-0.3045 1.45742,0.03 0.26028,0.66407 -1.13282,0.60001 -3.49085,0.60739 -4.6854,0.0146 -1.05607,-0.52402 -2.24009,-1.57569 -3.02147,-2.68374 l -0.5289,-0.75001 0.004,2.23611 c 0.005,2.72444 -0.73759,4.48386 -2.37995,5.63958 -1.08521,0.76366 -2.49415,1.24723 -2.4767,0.85004 z m 16.97188,-0.81885 c -0.82866,-0.19191 -5.1341,-2.30447 -5.1341,-2.51916 0,-0.5507 2.46299,-0.67904 4.00016,-0.20844 1.32925,0.40693 3.55787,2.35678 3.0614,2.67843 -0.36504,0.23651 -1.04379,0.25382 -1.92746,0.0492 z m -58.449751,-2.99751 c -2.83994,-1.38488 -3.448157,-4.20368 -1.282602,-5.94426 1.405538,-1.12971 3.398502,-0.22804 3.688852,1.66893 0.08403,0.549 -0.01582,1.06293 -0.272795,1.40404 -0.397044,0.52705 -0.405513,0.52414 -0.413715,-0.14191 -0.01166,-0.94657 -0.714468,-1.87581 -1.418725,-1.87581 -0.790041,0 -1.22252,0.4881 -1.22252,1.37974 0,1.42383 1.711631,2.45393 4.077497,2.45393 3.441937,0 5.771604,-2.44811 6.460597,-6.78907 0.229847,-1.44813 0.233183,-1.43533 0.13961,0.53555 -0.158181,3.33169 -1.52144,5.78558 -3.908864,7.03605 -1.577701,0.82635 -4.438501,0.95983 -5.847335,0.27281 z m 33.964041,-1.64148 c -1.97416,-0.48681 -3.11556,-1.84015 -3.11556,-3.69405 0,-2.72673 3.50071,-4.28891 4.932,-2.2009 0.49912,0.72814 0.54503,1.60649 0.10735,2.05372 -0.24334,0.24865 -0.38884,0.1395 -0.64551,-0.48425 -0.23438,-0.56959 -0.5123,-0.80526 -0.94962,-0.80526 -1.22364,0 -1.69806,1.38563 -0.76868,2.24506 1.57977,1.46086 3.85873,-0.8616 3.32497,-3.38843 -0.34939,-1.654 -1.22696,-2.97171 -3.87116,-5.81269 -1.76201,-1.89313 -2.87571,-3.34639 -3.32234,-4.33529 -1.44654,-3.20282 -0.50035,-7.43042 1.93897,-8.66337 0.28961,-0.14638 0.15524,0.0441 -0.29861,0.42335 -1.71138,1.43001 -2.18064,4.55784 -1.05452,7.02888 0.41585,0.91249 1.2385,1.91905 2.52857,3.09384 5.82902,5.30815 6.59153,6.3773 6.59153,9.24234 0,1.86276 -0.4456,2.99417 -1.61415,4.09842 -0.76334,0.72133 -2.33353,1.50829 -2.8352,1.42095 -0.087,-0.0152 -0.51362,-0.11519 -0.94804,-0.22232 z m -12.637777,-0.67924 c -0.57924,-0.36024 -1.34935,-1.10687 -1.71137,-1.65918 -0.575782,-0.87843 -0.658218,-1.29601 -0.658218,-3.33417 0,-2.19779 0.05228,-2.41506 0.921505,-3.8298 0.506823,-0.82491 1.750863,-2.43286 2.764512,-3.57323 3.062792,-3.44565 3.812878,-4.86558 3.816198,-7.22408 0.003,-1.83054 -0.536486,-3.08892 -1.823216,-4.25612 -0.96748,-0.87761 -1.04842,-1.01045 -0.41325,-0.67828 1.9609,1.0255 2.887666,2.85525 2.892266,5.71028 0.004,2.62637 -0.57794,4.05217 -2.982506,7.30459 -2.737301,3.70245 -3.436091,5.88662 -2.564931,8.01708 0.424499,1.03813 1.095089,1.49268 2.202121,1.49268 0.80807,0 1.63784,-0.70517 1.63784,-1.39189 0,-0.51224 -0.82998,-1.29841 -1.37075,-1.29841 -0.51412,0 -0.92192,0.49866 -1.03943,1.27099 -0.150722,0.99059 -0.854582,0.27005 -0.854582,-0.87483 0,-1.276 0.858682,-1.99602 2.390332,-2.00435 0.89196,-0.005 1.27821,0.16554 2.040466,0.90013 0.8007,0.77162 0.94011,1.08108 0.93927,2.08498 -0.003,3.22807 -3.410466,5.06993 -6.186257,3.34361 z m 30.793837,-1.32184 c -2.07969,-0.98955 -3.38399,-2.86395 -4.18167,-6.00944 -0.56238,-2.21766 -0.49351,-3.04906 0.0823,-0.99378 1.48251,5.29134 5.27084,7.59506 9.1998,5.59447 1.58124,-0.80515 2.21804,-1.76917 1.84259,-2.78943 -0.44268,-1.20297 -1.13044,-1.37423 -2.04032,-0.50806 -0.47723,0.4543 -0.57443,0.76621 -0.46112,1.47966 0.17694,1.11413 -0.17392,1.18054 -0.60599,0.11469 -0.92651,-2.28559 1.47385,-4.42923 3.42277,-3.0567 1.39679,0.9837 1.77759,2.23524 1.15999,3.81242 -1.03021,2.6309 -5.31853,3.83113 -8.41838,2.35617 z m -88.0588,-1.0959 c 0,-0.0652 0.288497,-0.94288 0.641105,-1.95047 0.352609,-1.00759 0.892876,-2.84912 1.200595,-4.09228 1.319724,-5.33161 3.182373,-7.02122 7.740268,-7.02122 1.921387,0 4.312768,-0.44424 4.875821,-0.90577 0.291433,-0.23889 0.344021,-0.21753 0.242989,0.0987 -0.22858,0.71542 -1.68693,1.50565 -4.4011,2.38483 -2.019833,0.65426 -2.842033,1.06548 -3.450149,1.72559 -0.868072,0.94228 -1.672498,2.8716 -1.977399,4.74255 l -0.193217,1.18562 2.176193,-0.17147 c 2.725593,-0.21477 3.830978,-0.77052 4.861173,-2.44402 2.605277,-4.23216 3.3086,-5.26151 3.765928,-5.5116 0.473457,-0.25891 0.463147,-0.16083 -0.144739,1.37697 -0.359978,0.91065 -0.881485,2.49268 -1.158905,3.51561 -1.194325,4.40387 -2.470359,5.56762 -6.696568,6.10732 -1.291343,0.16491 -3.371951,0.47496 -4.623574,0.68899 -2.435601,0.4165 -2.858421,0.45653 -2.858421,0.27067 z m 16.830234,-0.62135 c -0.01108,-0.11098 -0.08094,-0.4439 -0.155246,-0.73983 -0.369949,-1.47337 -0.388796,-2.56296 -0.08215,-4.74901 l 0.335063,-2.3886 0.685277,1.01302 c 0.566211,0.83701 0.685277,1.31686 0.685277,2.76172 0,1.7199 -0.732873,4.30447 -1.220562,4.30447 -0.125134,0 -0.236582,-0.0908 -0.247662,-0.20177 z m 21.214762,-1.19886 c -2.244664,-0.80149 -3.407437,-3.54338 -2.371088,-5.59117 0.576292,-1.13873 1.403684,-1.61715 2.796758,-1.61715 2.162269,0 3.514402,1.89285 2.45556,3.43753 -0.638534,0.93151 -1.102895,0.75288 -1.068251,-0.41094 0.02723,-0.9147 -0.03903,-1.01696 -0.70993,-1.09556 -1.432489,-0.16784 -2.029912,1.29185 -0.971405,2.37345 1.094373,1.11824 3.220707,0.3292 4.083099,-1.51516 0.706253,-1.51043 0.782748,-3.479 0.261395,-6.72684 -0.276817,-1.72446 -0.41105,-3.62464 -0.337419,-4.77643 0.246479,-3.8556 2.535993,-6.6332 5.776211,-7.00759 l 1.143131,-0.13209 -1.244669,0.28747 c -1.530865,0.35356 -3.40166,1.95645 -3.96624,3.39825 -0.924829,2.36179 -0.81621,4.03397 0.58942,9.07407 0.999224,3.58288 0.565637,6.97803 -1.116855,8.74541 -1.552328,1.63064 -3.509084,2.20327 -5.319717,1.55675 z m -14.279332,-2.10854 c -2.117889,-1.09879 -3.697929,-4.2297 -3.405926,-6.74899 0.194215,-1.67561 0.80245,-2.97347 1.993602,-4.25399 1.038182,-1.11607 3.110835,-2.70574 3.527809,-2.70574 0.144808,0 -0.203034,0.34517 -0.772983,0.76704 -2.245795,1.66233 -3.503485,3.87103 -3.512836,6.16911 -0.0067,1.64717 0.400918,2.7848 1.455928,4.06338 0.967052,1.17199 2.230748,1.73132 3.125869,1.38358 0.775832,-0.30141 1.154481,-1.43903 0.675327,-2.02897 -0.375499,-0.46231 -1.642773,-0.52693 -2.384056,-0.12155 -0.664416,0.36334 -0.650543,-0.0221 0.02756,-0.76583 0.38057,-0.4174 0.845434,-0.58879 1.597032,-0.58879 1.413604,0 1.977332,0.35055 2.332603,1.45051 0.871472,2.69818 -1.983243,4.76894 -4.659934,3.38024 z m 65.093756,-0.91552 c -0.14481,-0.056 -0.59611,-0.17697 -1.00289,-0.26891 -1.11507,-0.25203 -2.94159,-2.13103 -3.60632,-3.70994 -0.62689,-1.48902 -0.63003,-1.78801 -0.10188,-9.6892 0.17198,-2.57295 0.15913,-2.65723 -0.66625,-4.3704 -0.90669,-1.8819 -2.06012,-2.98697 -3.40443,-3.2617 -0.46154,-0.0943 -0.90587,-0.28178 -0.9874,-0.41656 -0.0849,-0.14033 0.17063,-0.1691 0.59788,-0.0673 2.4115,0.57451 4.12435,2.02838 5.18804,4.40365 0.46819,1.0455 0.56914,1.9315 0.6912,6.06683 0.13145,4.45333 0.19542,4.95061 0.79599,6.18729 0.68259,1.4056 2.03653,2.55908 2.99575,2.5522 1.62613,-0.0116 2.70138,-1.70219 1.72028,-2.70468 -0.60427,-0.61745 -0.98771,-0.64097 -1.6837,-0.10327 -0.44639,0.34486 -0.47643,0.5088 -0.22033,1.20208 0.26068,0.7057 0.2393,0.80275 -0.17689,0.80275 -0.56318,0 -1.32385,-1.09208 -1.32385,-1.90064 0,-0.31594 0.40283,-0.98605 0.89518,-1.48913 1.00794,-1.02993 2.25143,-1.21355 3.55468,-0.52491 2.35196,1.24278 2.20396,5.22318 -0.24927,6.70395 -0.69801,0.42131 -2.52517,0.7775 -3.01579,0.5879 z m 24.00984,-1.0491 c -0.77006,-1.20089 -1.49961,-3.383 -1.47876,-4.42301 0.0233,-1.15991 0.57597,-2.8821 0.92497,-2.8821 0.13188,0 0.49913,0.90797 0.81609,2.01772 0.57357,2.00817 0.74684,4.52108 0.37789,5.48045 -0.17808,0.46305 -0.22939,0.44758 -0.64019,-0.19306 z m -93.629613,-1.82901 c -0.866761,-0.82512 -1.586897,-2.59936 -1.593624,-3.9263 -0.0067,-1.31345 0.730321,-3.47436 1.546553,-4.53466 0.638484,-0.8294 0.527504,-1.21398 -0.168464,-0.58377 -0.649024,0.58769 -2.796953,1.28216 -3.960123,1.28037 -2.188775,-0.003 -4.103797,-1.06132 -4.950888,-2.73514 l -0.399473,-0.78934 1.338224,0.94061 c 2.368717,1.66493 4.869407,1.55786 7.333232,-0.31399 2.473317,-1.87906 4.190942,-4.80754 6.110177,-10.4176 1.376617,-4.02395 1.855383,-4.99054 3.222583,-6.50613 1.19706,-1.32698 2.464366,-2.08818 3.876616,-2.32845 l 0.921505,-0.15678 -0.930556,0.32572 c -1.610165,0.5636 -2.796382,1.43919 -3.632909,2.68155 -1.048487,1.55716 -1.410183,2.53456 -2.562922,6.92569 -1.0262,3.90911 -2.066838,6.39567 -3.453415,8.2518 -0.480254,0.64289 -0.873189,1.2343 -0.873189,1.31425 0,0.0799 0.740495,-0.2706 1.645544,-0.77898 2.518339,-1.41459 4.771428,-2.00358 9.412517,-2.46056 4.880642,-0.48056 8.054816,-1.96162 8.953052,-4.17745 0.183082,-0.45164 0.385768,-0.76712 0.450413,-0.70106 0.167735,0.17139 -0.400236,1.21041 -1.309672,2.39585 -1.139136,1.48485 -4.069518,2.92115 -6.728787,3.29804 -1.793137,0.25414 -5.46559,1.15706 -7.288968,1.79208 -5.865022,2.04258 -8.606565,6.53894 -6.502247,10.66421 0.629059,1.2332 0.470534,1.42128 -0.455179,0.54004 z m 84.054613,0.18773 c -1.80564,-0.8095 -2.37572,-3.1841 -1.04517,-4.35355 0.94142,-0.82744 2.46857,-0.86107 3.29682,-0.0726 0.7009,0.66722 0.57672,0.95274 -0.22394,0.51489 -0.83449,-0.45634 -2.08211,-0.0904 -2.26768,0.66507 -0.2489,1.0133 0.30476,1.75231 1.31283,1.75231 1.82379,0 3.58062,-2.54368 3.58062,-5.18431 0,-2.28997 -0.97067,-3.96958 -3.23171,-5.59209 -2.12353,-1.52382 -2.10556,-1.68722 0.0561,-0.50995 2.83148,1.54208 4.21935,3.45248 4.4403,6.11208 0.35181,4.23467 -2.97788,7.98634 -5.91814,6.66815 z m 21.50386,0.12328 c -2.82376,-0.0897 -5.43698,-0.29673 -5.80716,-0.4601 -1.91399,-0.8447 -2.76068,-2.08293 -4.19443,-6.1341 -0.47129,-1.3317 -1.07953,-2.6712 -1.35162,-2.97667 -0.71456,-0.8022 -0.60806,-1.0231 0.245,-0.50819 0.40685,0.24557 1.20658,1.11794 1.77719,1.93859 3.26033,4.68904 3.29603,4.71538 6.59006,4.86259 1.38512,0.0619 2.62788,6.7e-4 2.76171,-0.13607 0.39647,-0.40513 -0.78776,-3.61942 -1.7002,-4.61474 -1.08573,-1.18435 -1.31895,-1.29784 -4.20377,-2.04559 -2.48593,-0.64436 -4.45199,-1.49287 -4.80273,-2.07275 -0.1309,-0.21642 -0.0749,-0.24131 0.1796,-0.0798 0.20338,0.12904 2.26546,0.3081 4.58238,0.39791 3.16067,0.12252 4.41967,0.2741 5.04186,0.607 1.33058,0.71192 2.66059,2.54048 3.53714,4.86302 0.44834,1.18794 1.2784,3.10132 1.84458,4.25195 1.07727,2.18932 1.15483,2.40575 0.83195,2.32155 -0.1086,-0.0283 -2.50781,-0.12488 -5.33156,-0.21456 z m -95.882393,-1.18671 c -2.416654,-0.88191 -3.543518,-4.11629 -2.35263,-6.75264 0.635685,-1.40726 2.154548,-2.91742 3.662869,-3.64188 0.664508,-0.31917 2.753418,-0.93632 4.642021,-1.37144 4.064943,-0.93655 5.695992,-1.77607 6.97615,-3.59072 0.732864,-1.03885 0.934254,-1.61604 1.068973,-3.06372 0.15843,-1.70248 0.175538,-1.7381 0.375599,-0.78213 0.415759,1.98666 -0.74272,4.79577 -2.705317,6.55991 -0.968299,0.87039 -3.008467,1.83105 -5.611634,2.64239 -4.192078,1.30655 -6.273456,3.11128 -6.273456,5.43961 0,1.39126 0.681811,2.24697 1.790352,2.24697 0.877036,0 1.369094,-0.43511 1.369094,-1.21064 0,-1.10237 -1.182561,-1.62023 -1.843011,-0.80709 -0.475751,0.58575 -0.789861,0.49535 -0.789861,-0.22733 0,-0.70443 0.610445,-1.36073 1.53331,-1.64848 1.431241,-0.44625 3.205859,1.27062 3.205859,3.10155 0,1.20853 -0.971234,2.58011 -2.177447,3.07501 -1.190468,0.48843 -1.604288,0.49285 -2.870871,0.0306 z m 24.869309,-3.00667 c -0.780589,-0.4071 -1.35815,-1.31332 -1.042548,-1.63581 0.07322,-0.0748 0.372451,-0.005 0.664949,0.15479 0.292498,0.15996 1.009398,0.29083 1.593111,0.29083 2.884584,0 5.491936,-5.53484 3.593414,-7.62806 -0.3551,-0.39152 -0.54509,-0.71186 -0.4222,-0.71186 0.12289,0 0.60521,0.4443 1.071812,0.98732 0.82858,0.96428 0.84564,1.03564 0.73107,3.05801 -0.13338,2.35418 -0.92782,4.09255 -2.339821,5.11991 -1.06538,0.77517 -2.75586,0.93539 -3.849787,0.36487 z m 17.384564,-0.36843 c -1.35407,-0.62816 -2.58323,-2.29372 -3.1419,-4.25741 -0.51064,-1.79483 -0.311,-3.06316 0.63854,-4.05674 0.39046,-0.40857 0.55676,-0.53929 0.36956,-0.2905 -0.52112,0.69259 -0.67541,2.23685 -0.33026,3.30547 0.39037,1.20865 2.37686,3.49144 3.42387,3.93459 0.91937,0.38912 2.43952,0.17732 2.91321,-0.40589 0.4338,-0.53409 0.78601,-0.5003 0.77532,0.0744 -0.0195,1.05095 -1.59857,2.22768 -2.97036,2.21359 -0.31639,-0.003 -1.07148,-0.23611 -1.67798,-0.51748 z m 26.05437,0.12453 c -0.9494,-0.42174 -1.91153,-1.82434 -1.91303,-2.78884 -0.002,-1.05924 0.76853,-2.366 1.69493,-2.87578 0.76791,-0.42257 0.98432,-0.43846 1.72147,-0.12646 0.46374,0.19627 0.93694,0.61 1.05156,0.91939 0.25337,0.68393 0.0714,1.07976 -0.34561,0.75187 -1.00778,-0.79236 -2.01704,-0.34376 -2.01704,0.89653 0,0.68293 0.66564,1.20088 1.5433,1.20088 0.7323,0 1.61615,-1.24868 1.61615,-2.28325 0,-2.2789 -2.70919,-4.09515 -7.2404,-4.85399 -1.44808,-0.24251 -3.2759,-0.67123 -4.06182,-0.95272 -1.73424,-0.62114 -3.62198,-2.19259 -4.44805,-3.70278 -0.7029,-1.285 -1.01155,-3.63462 -0.60665,-4.61806 0.23766,-0.57724 0.2561,-0.51843 0.13012,0.41484 -0.23658,1.75251 0.31216,3.25722 1.70795,4.68346 1.60317,1.63813 3.03276,2.13537 7.01516,2.44002 4.11099,0.31448 4.7061,0.44403 6.5361,1.42288 3.18272,1.7024 4.38267,4.67734 3.00806,7.45768 -1.07208,2.16844 -3.23029,2.97467 -5.3922,2.01433 z m 12.74119,-0.74452 c 0.53318,-1.03317 0.58798,-3.15149 0.11829,-4.57294 -0.44076,-1.33388 -2.33438,-3.23337 -4.04771,-4.06024 -2.20809,-1.06566 -4.27917,-1.51313 -8.3562,-1.80543 -2.09972,-0.15053 -4.58778,-0.39718 -5.52903,-0.5481 -2.11156,-0.33858 -4.58872,-1.66214 -5.49419,-2.93557 l -0.66952,-0.9416 0.90974,0.84534 c 0.50035,0.46494 1.44288,1.12738 2.09452,1.47209 1.10891,0.58661 1.58952,0.63844 7.50369,0.80925 3.47539,0.10037 6.73356,0.30559 7.24039,0.45605 1.21681,0.36122 2.37858,0.75037 3.0278,1.01422 0.29168,0.11853 -0.0337,-0.36091 -0.72933,-1.07475 -2.09854,-2.15341 -3.24854,-4.13196 -5.33099,-9.17182 -1.72433,-4.17313 -3.24009,-6.07473 -5.59105,-7.01424 l -0.98641,-0.3942 0.90344,0.14261 c 2.24102,0.35375 4.54716,2.63407 6.31164,6.24096 2.27289,4.64619 4.5286,8.02995 6.3188,9.47874 1.54189,1.24783 3.67526,2.16754 5.02787,2.16754 1.45449,0 3.64731,-0.99725 4.43082,-2.01504 0.5644,-0.73317 0.57163,-0.73467 0.57163,-0.11877 0,0.39438 -0.47304,1.0897 -1.2862,1.89057 -0.98788,0.97297 -1.59622,1.33471 -2.62288,1.5597 -1.37857,0.30209 -3.47171,0.067 -4.52319,-0.50799 -0.78203,-0.42766 -0.62457,0.0714 0.30367,0.9624 2.35921,2.26464 2.74325,6.27837 0.81565,8.52477 -0.65968,0.76877 -0.89638,0.5365 -0.41125,-0.40355 z m -62.61773,-0.39239 c -1.967532,-1.2473 -2.51569,-4.65387 -1.186831,-7.37566 0.821411,-1.68243 1.647928,-2.37844 3.015478,-2.53936 0.959622,-0.11291 0.963396,-0.10986 0.180378,0.14551 -0.439863,0.14346 -1.140547,0.6243 -1.557074,1.06854 -0.671945,0.71666 -0.770783,1.04531 -0.87672,2.91522 -0.100427,1.77265 -0.03068,2.2852 0.438963,3.22585 0.630381,1.2626 1.278303,1.71267 2.776575,1.92869 0.986201,0.1422 1.01332,0.17151 0.57359,0.62006 -0.592673,0.60455 -2.418765,0.6106 -3.364359,0.0111 z m 30.3881,-1.47005 c -0.84719,-0.43584 -0.73569,-0.66841 0.41019,-0.85564 2.45851,-0.40171 3.36077,-3.70773 1.92011,-7.03561 -0.51587,-1.19163 -1.13837,-1.69292 -2.52776,-2.03553 l -0.78986,-0.19478 0.88171,-0.0275 c 1.81552,-0.0567 3.25772,1.20532 4.25474,3.7232 0.83069,2.09785 0.26539,4.92645 -1.20305,6.01969 -0.82828,0.61664 -2.17586,0.80244 -2.94608,0.4062 z m -23.382229,-0.61753 c -0.474905,-0.36703 -0.430043,-0.39559 0.633906,-0.40354 0.932771,-0.007 1.284996,-0.16171 1.900436,-0.83492 0.41551,-0.45449 0.82818,-1.27167 0.917059,-1.81595 0.25588,-1.56697 0.33868,-1.62119 0.36098,-0.23639 0.0254,1.57578 -0.522829,2.73477 -1.550319,3.27769 -0.970871,0.51301 -1.610452,0.51672 -2.262062,0.0131 z m 16.997519,-0.33865 c -0.52226,-0.27033 -1.12095,-0.88495 -1.38185,-1.41859 -0.48155,-0.98498 -0.62298,-2.82539 -0.23591,-3.06983 0.12389,-0.0782 0.16914,0.1577 0.10056,0.52429 -0.39297,2.10051 2.16731,4.29293 3.90409,3.34316 0.56665,-0.30988 0.69802,0.0525 0.17869,0.49295 -0.65825,0.55821 -1.63985,0.60719 -2.56558,0.12802 z m -65.432078,-0.30753 c -0.726911,-0.095 -1.719271,-0.42997 -2.205245,-0.74437 l -0.88359,-0.57165 1.020453,-0.35774 c 1.404583,-0.49241 3.989274,-0.43702 5.010638,0.10737 0.878606,0.4683 1.670489,1.17442 1.670489,1.48957 0,0.24763 -2.932075,0.29646 -4.612745,0.0768 z m 42.713483,-0.6783 c -0.908556,-0.86038 -1.13565,-2.2149 -0.593592,-3.54053 0.443522,-1.08464 1.125885,-2.0038 1.48759,-2.0038 0.11545,0 -0.08063,0.32034 -0.435737,0.71186 -1.254704,1.38338 -0.642489,4.52141 0.945414,4.84592 0.994028,0.20314 1.012394,0.6299 0.02711,0.6299 -0.427488,0 -1.044283,-0.27734 -1.430783,-0.64335 z m 28.945525,-1.42773 c 1.47829,-0.75292 1.87436,-2.92047 0.85053,-4.65466 l -0.55591,-0.9416 0.68089,0.64488 c 1.96354,1.85968 1.22008,5.44947 -1.11652,5.39108 -0.68685,-0.0172 -0.68651,-0.0182 0.14101,-0.4397 z m -65.745203,-0.86039 c -2.594468,-0.85806 -4.723794,-3.31683 -4.723794,-5.45466 0,-0.99 0.609261,-2.21528 1.373516,-2.76226 1.333346,-0.95428 3.625752,-0.19624 3.998744,1.32229 0.213602,0.86963 -0.425564,2.42989 -1.159925,2.83148 -0.74719,0.4086 -0.990917,0.13501 -0.436938,-0.49048 0.240459,-0.2715 0.437198,-0.8733 0.437198,-1.33733 0,-1.03678 -0.706905,-1.52189 -1.671598,-1.14711 -1.784444,0.69324 -0.821426,3.65342 1.722351,5.29426 2.490987,1.60679 5.741698,0.92665 8.371728,-1.7516 0.81527,-0.83022 1.687717,-1.81215 1.938772,-2.18206 0.399621,-0.58882 0.397658,-0.56025 -0.01576,0.22945 -0.802481,1.53288 -3.362516,4.17832 -4.714799,4.8721 -1.36931,0.70252 -3.882011,0.98518 -5.119495,0.57592 z m 90.059583,-2.71815 c -0.21721,-0.14343 -0.27645,-0.26079 -0.13164,-0.26079 0.14481,0 0.441,0.11736 0.65822,0.26079 0.21721,0.14344 0.27645,0.26079 0.13164,0.26079 -0.14481,0 -0.44101,-0.11735 -0.65822,-0.26079 z m 15.76642,-0.47922 c 0.75683,-1.445 2.96369,-2.4662 5.34684,-2.47419 0.96891,-0.003 1.8301,0.10726 1.91376,0.24558 0.35311,0.58381 -1.64896,1.65125 -3.84367,2.04932 -3.94864,0.71621 -3.69107,0.70269 -3.41693,0.17929 z m -84.352825,-0.96975 c -0.43448,-0.19348 -0.922967,-0.52167 -1.085528,-0.7293 -0.516672,-0.65992 -0.97752,-2.3096 -0.786955,-2.81703 0.161945,-0.43123 0.240792,-0.39518 0.661418,0.30239 1.294385,2.14662 2.87096,2.49975 5.424813,1.21507 2.602607,-1.3092 3.644752,-3.17946 2.737196,-4.91223 -0.200197,-0.38223 -0.202437,-0.49782 -0.0073,-0.37456 0.155264,0.0981 0.418245,0.64192 0.584403,1.2086 0.396293,1.35156 -0.02406,2.6821 -1.306694,4.13603 -1.727407,1.95811 -4.370239,2.7954 -6.221396,1.97103 z m 26.197179,-0.31646 c -0.36202,-0.0631 -1.487572,-0.25172 -2.501231,-0.41923 -9.404977,-1.55428 -18.381534,-9.20829 -21.850237,-18.63097 -1.402992,-3.81121 -1.799947,-6.16232 -1.799947,-10.66083 0,-4.49851 0.396955,-6.84962 1.799947,-10.66082 2.830205,-7.68821 9.289283,-14.28642 16.820769,-17.183091 3.720963,-1.43112 6.025637,-1.8372 10.426855,-1.8372 4.40249,0 6.70341,0.40562 10.43327,1.83921 11.57219,4.447841 19.35452,16.605141 18.69499,29.204701 -0.41422,7.91321 -3.48544,14.76596 -9.04927,20.19144 -4.07427,3.97296 -8.93357,6.58155 -14.28043,7.66607 -1.97302,0.40019 -7.442346,0.70888 -8.694716,0.49072 z m 8.030256,-1.06395 c 11.6805,-2.26273 20.69628,-11.44817 22.90282,-23.33384 0.55791,-3.00519 0.50999,-8.08782 -0.10495,-11.13251 -2.33607,-11.56624 -11.33024,-20.61907 -22.6691,-22.816931 -2.77048,-0.53701 -7.755256,-0.53701 -10.525747,0 -9.864616,1.9121 -17.916033,8.898801 -21.515515,18.670321 -2.228048,6.04848 -2.217151,13.91287 0.02772,20.00703 1.857042,5.04131 4.747271,9.21553 8.625866,12.45794 3.407533,2.84862 7.986134,5.08814 12.332487,6.03217 2.850453,0.61912 8.044129,0.67417 10.926419,0.11582 z m -11.772784,-3.97075 c -0.389965,-1.51273 -0.77946,-2.99254 -0.865545,-3.28848 -0.125148,-0.43022 0.01753,-0.59749 0.711875,-0.83458 0.477616,-0.16309 1.063867,-0.38325 1.302767,-0.48925 0.33482,-0.14854 0.50545,0.0273 0.74446,0.76733 0.348989,1.0805 0.535809,1.14653 1.471521,0.52006 0.36144,-0.24199 0.68788,-0.39332 0.72542,-0.33629 0.0375,0.057 0.40683,0.57311 0.82063,1.14684 0.68238,0.9461 0.71054,1.06705 0.30263,1.30031 -0.55144,0.31533 -2.03731,1.58456 -3.448731,2.94593 l -1.056,1.01854 z m 11.173524,1.59772 c -0.4445,-0.63245 -1.3477,-1.76307 -2.00711,-2.51249 l -1.19892,-1.36258 0.94525,-0.99453 0.94525,-0.99452 0.57943,0.55622 c 0.74977,0.71973 1.05341,0.70106 1.64251,-0.101 l 0.48271,-0.65722 1.09509,0.67013 1.0951,0.67013 -1.16092,2.53847 c -0.6385,1.39617 -1.16092,2.65438 -1.16092,2.79603 0,0.68549 -0.52731,0.43026 -1.25747,-0.60864 z m -20.858645,-3.7863 c 0,-0.0421 0.235102,-1.21483 0.522449,-2.60598 0.287347,-1.39115 0.524306,-2.87742 0.526574,-3.30282 0.0039,-0.72223 0.05862,-0.76232 0.826898,-0.60532 0.452525,0.0925 1.037769,0.16815 1.300542,0.16815 0.362038,0 0.497565,0.24438 0.559486,1.00886 0.07964,0.98322 0.105978,1.0067 1.036542,0.92385 0.951977,-0.0848 0.955382,-0.0812 1.140635,1.18107 0.192481,1.31155 -0.02472,1.71559 -0.927102,1.72463 -0.22625,0.002 -1.440662,0.35963 -2.698694,0.79415 -1.258032,0.43452 -2.28733,0.75555 -2.28733,0.71341 z m 29.088895,-1.33111 -2.63721,-1.38296 0.39286,-1.21064 c 0.21608,-0.66584 0.41256,-1.24799 0.43663,-1.29365 0.0241,-0.0457 0.46159,0.0954 0.97226,0.31339 1.02374,0.43708 1.23276,0.3566 1.23876,-0.47698 0.007,-0.97512 0.31509,-1.16951 1.57569,-0.99424 l 1.18479,0.16473 v 3.16081 c 0,1.9473 -0.10108,3.14962 -0.26329,3.13166 -0.1448,-0.016 -1.45003,-0.65149 -2.90049,-1.41212 z m -14.739746,-2.06409 c -4.883649,-0.52595 -8.71361,-2.5841 -12.169416,-6.53961 -3.038834,-3.47824 -4.58366,-7.70894 -4.58366,-12.55294 0,-4.81947 1.563184,-9.09894 4.584048,-12.54954 2.008835,-2.29461 3.425879,-3.41799 5.950392,-4.71724 8.160332,-4.19974 18.698182,-1.28662 23.809592,6.58199 3.47989,5.35702 4.13388,12.59045 1.65595,18.31569 -3.32784,7.68896 -11.13088,12.33572 -19.246906,11.46165 z m 6.989916,-2.41712 c 3.56078,-1.22571 6.43399,-3.27364 8.47622,-6.04161 2.29771,-3.11424 3.28707,-5.83417 3.52551,-9.69221 0.31122,-5.03575 -1.38833,-9.50304 -5.01536,-13.18293 -3.24263,-3.28989 -6.62315,-4.86718 -11.03,-5.14641 -3.102916,-0.1966 -5.546038,0.31989 -8.55679,1.80896 -3.184643,1.57507 -6.119633,4.57408 -7.661088,7.82818 -1.457289,3.07642 -1.962754,5.57282 -1.770345,8.74342 0.321551,5.29865 2.826859,9.96211 7.06418,13.14949 1.748632,1.31534 4.826896,2.6935 6.838767,3.06176 2.15723,0.39486 6.212086,0.13116 8.128906,-0.52865 z m -6.858266,-3.66199 c -4.874201,-0.95848 -8.652399,-4.20901 -10.304287,-8.8652 -0.428745,-1.2085 -0.564962,-2.20868 -0.564962,-4.14824 0,-1.93956 0.136217,-2.93973 0.564962,-4.14824 1.430688,-4.03268 4.441916,-7.01925 8.461275,-8.39198 2.045102,-0.69846 5.660818,-0.63732 7.745708,0.13097 7.68584,2.83227 11.02438,11.76422 7.05162,18.86596 -1.53236,2.73925 -4.10243,4.88908 -7.10892,5.94652 -1.50377,0.5289 -4.609926,0.85316 -5.845396,0.61021 z m 5.524396,-3.93732 c 1.02762,-0.39231 1.92171,-1.03383 3.05547,-2.19232 2.04727,-2.09192 2.81271,-3.96526 2.81271,-6.8838 0,-2.91854 -0.76544,-4.79188 -2.81271,-6.88379 -2.04727,-2.09192 -3.88062,-2.87406 -6.73686,-2.87406 -2.856246,0 -4.689597,0.78214 -6.736864,2.87406 -2.047265,2.09191 -2.81271,3.96525 -2.81271,6.88379 0,2.66854 0.742061,4.64076 2.475182,6.57843 2.788564,3.11768 6.732716,4.03359 10.755782,2.49769 z m -22.152707,5.31969 c -0.07094,-0.0725 -1.230239,-0.24821 -2.576226,-0.3905 -1.345987,-0.14229 -2.503168,-0.31585 -2.571514,-0.38569 -0.06835,-0.0698 0.340847,-0.77182 0.909316,-1.55996 0.56847,-0.78814 1.371639,-1.99536 1.784821,-2.6827 l 0.751239,-1.24972 1.135076,0.56349 c 1.263883,0.62744 1.295874,0.70333 0.750647,1.78068 -0.40831,0.8068 -0.313654,1.0943 0.362489,1.10098 0.954639,0.009 1.159401,0.40174 0.788575,1.51084 -0.1914,0.57245 -0.323713,1.13162 -0.29403,1.2426 0.05926,0.22155 -0.833304,0.28159 -1.040393,0.07 z m 38.415317,-0.33799 c -2.46453,-0.0753 -2.83071,-0.14616 -2.83324,-0.54818 -0.002,-0.25394 -0.0763,-0.91569 -0.16609,-1.47056 l -0.16319,-1.00886 h 1.10534 c 0.92613,0 1.0845,-0.0763 0.97684,-0.47081 -0.0707,-0.25894 -0.19787,-0.71984 -0.28265,-1.02423 -0.13157,-0.47231 0.0378,-0.61615 1.15509,-0.98125 l 1.30926,-0.42782 0.53377,1.45776 c 0.29358,0.80176 0.8307,2.05648 1.1936,2.78825 0.73759,1.4873 0.8146,1.91332 0.33072,1.82931 -0.18101,-0.0314 -1.60276,-0.0961 -3.15945,-0.14361 z m -42.698868,-8.80203 c -0.423714,-0.35393 -1.581912,-1.09806 -2.573775,-1.65362 l -1.803385,-1.0101 0.862408,-0.53364 c 0.474324,-0.2935 1.72093,-1.10658 2.770235,-1.80684 l 1.907828,-1.27321 0.841435,1.08557 0.841436,1.08557 -0.747745,0.65721 -0.747745,0.65721 0.683075,0.69797 0.683074,0.69798 -0.797885,1.02938 c -0.438836,0.56616 -0.876788,1.02503 -0.973226,1.01971 -0.09644,-0.005 -0.522016,-0.29926 -0.94573,-0.65319 z m 43.169898,-0.87304 c -0.36767,-0.67219 -0.6685,-1.23992 -0.6685,-1.26161 0,-0.0217 0.41045,-0.26532 0.91211,-0.54137 l 0.9121,-0.50191 -0.61276,-0.80004 -0.61276,-0.80004 0.93913,-0.87942 0.93913,-0.87942 1.72351,1.55663 c 0.94793,0.85614 2.07692,1.8585 2.50887,2.22746 l 0.78537,0.67084 -1.1803,0.32215 c -0.64916,0.17718 -2.03464,0.72416 -3.07885,1.21552 l -1.89855,0.89337 z m -43.228769,-9.29254 c -0.387321,-0.62885 -1.169462,-1.78836 -1.73809,-2.57669 -0.568627,-0.78832 -0.993709,-1.46796 -0.944626,-1.51031 0.04908,-0.0423 1.155555,-0.22225 2.458827,-0.39978 1.303271,-0.17753 2.737369,-0.38675 3.186884,-0.46493 0.758924,-0.132 0.827843,-0.0779 0.964927,0.75698 0.08119,0.49451 0.226848,1.10359 0.323673,1.3535 0.139352,0.35967 -0.04832,0.51611 -0.900435,0.75057 l -1.076478,0.29618 0.396259,0.783 c 0.217943,0.43064 0.39626,0.84707 0.39626,0.9254 0,0.14325 -1.965009,1.22946 -2.22415,1.22946 -0.07636,0 -0.455729,-0.51452 -0.843051,-1.14338 z m 43.373829,0.58565 c -0.34898,-0.29691 -0.81173,-0.64117 -1.02833,-0.76502 -0.33553,-0.19187 -0.30327,-0.35513 0.21803,-1.1032 0.65519,-0.94018 0.65724,-0.93484 -0.67307,-1.75308 -0.42141,-0.2592 -0.41289,-0.35671 0.12533,-1.43472 0.43577,-0.87281 0.68648,-1.11383 1.02173,-0.98221 0.24434,0.0959 1.39209,0.47659 2.55056,0.84591 1.15846,0.36932 2.30783,0.75487 2.55415,0.85676 0.36334,0.15031 0.0254,0.62949 -1.79066,2.53928 -1.23118,1.2947 -2.26207,2.34998 -2.29086,2.34506 -0.0288,-0.005 -0.33789,-0.25188 -0.68688,-0.54878 z m -39.888185,-7.17526 c -0.08534,-0.0872 -0.155156,-0.47372 -0.155156,-0.85894 0,-0.38522 -0.236959,-1.57415 -0.526575,-2.64206 -0.780124,-2.87657 -0.819291,-2.80311 1.182548,-2.21814 0.940017,0.27468 2.368865,0.58365 3.175217,0.68659 1.132483,0.14458 1.432551,0.2765 1.318681,0.57971 -0.08108,0.21589 -0.147415,0.86908 -0.147415,1.45153 v 1.059 l -1.116881,-0.0721 c -1.114014,-0.072 -1.116667,-0.0699 -1.033241,0.80284 0.05287,0.55309 -0.04476,0.9158 -0.265376,0.98593 -0.734384,0.23343 -2.283513,0.3772 -2.431802,0.22567 z m 35.457275,-1.21053 c -0.81171,-0.26617 -0.845,-0.3297 -0.69039,-1.31769 l 0.16245,-1.03803 h -0.95516 -0.95515 v -1.33296 c 0,-1.49551 -0.18284,-1.39384 3.15945,-1.75688 0.79644,-0.0865 1.82509,-0.22553 2.2859,-0.30893 0.75152,-0.13603 0.82293,-0.0935 0.69333,0.41293 -0.0795,0.31051 -0.24915,0.56457 -0.37707,0.56457 -0.12792,0 -0.2061,0.0908 -0.17374,0.20177 0.0324,0.11098 -0.27437,1.26108 -0.68164,2.55578 -0.79307,2.52121 -0.83446,2.55507 -2.46798,2.01944 z m -27.713816,-5.26125 c -0.651636,-0.21807 -1.210049,-0.41581 -1.240917,-0.43943 -0.03087,-0.0236 0.108684,-0.68132 0.310117,-1.46157 0.201434,-0.78025 0.447831,-2.19712 0.54755,-3.14859 0.09972,-0.95147 0.243175,-1.72995 0.318791,-1.72995 0.07562,0 0.920789,0.64725 1.87816,1.43833 0.957372,0.79108 2.11507,1.65819 2.572663,1.92691 l 0.831987,0.48858 -0.669947,1.09967 c -0.368471,0.60483 -0.702235,1.13887 -0.741698,1.18677 -0.03946,0.0479 -0.449209,-0.11235 -0.910547,-0.35612 -0.955399,-0.50483 -0.919162,-0.51998 -1.372352,0.57373 l -0.339015,0.81816 z m 19.906956,-1.1412 c -0.1354,-0.86521 -0.26763,-1.08036 -0.58699,-0.95514 -1.33055,0.52172 -1.61103,0.47842 -1.88325,-0.29072 -0.14806,-0.41832 -0.35038,-0.96485 -0.44961,-1.21453 -0.13776,-0.34663 0.0893,-0.59408 0.9604,-1.04672 0.62745,-0.32603 1.81557,-1.06 2.64027,-1.63103 0.8247,-0.57104 1.54709,-1.03826 1.60531,-1.03826 0.0582,0 0.1793,1.31138 0.26904,2.91418 0.0897,1.6028 0.2328,3.09956 0.31789,3.32614 0.11758,0.31308 -0.096,0.45292 -0.88979,0.58262 -0.57448,0.0939 -1.21641,0.23807 -1.42651,0.32045 -0.28189,0.11053 -0.4278,-0.14289 -0.55676,-0.96699 z m -8.478176,-1.73741 c -0.51931,-0.80985 -0.82176,-0.83887 -1.54155,-0.14792 -0.54407,0.52228 -0.55123,0.52064 -1.57949,-0.36146 l -1.032942,-0.88613 0.5963,-0.64739 c 0.327962,-0.35607 1.149572,-1.52318 1.825812,-2.59358 0.67623,-1.0704 1.28875,-1.942981 1.36115,-1.939061 0.0724,0.004 0.487076,0.757741 0.921506,1.675151 0.43442,0.91741 1.11119,2.19992 1.50393,2.85002 l 0.71408,1.182 -1.04091,0.77047 c -0.57249,0.42376 -1.09843,0.77048 -1.16875,0.77048 -0.0703,0 -0.32193,-0.30266 -0.559136,-0.67258 z M 52.324197,154.9864 c -1.420343,-0.9204 -2.125767,-2.13071 -2.125767,-3.64723 0,-2.07824 1.57655,-3.89892 3.376134,-3.89892 1.702977,0 3.379876,1.82338 3.092009,3.36211 -0.168834,0.90246 -1.032381,1.74744 -1.78583,1.74744 -0.701257,0 -0.881726,-0.46328 -0.273388,-0.70182 0.950238,-0.37259 0.446657,-2.2575 -0.603124,-2.2575 -0.660481,0 -1.351172,0.84637 -1.351172,1.65572 0,1.77004 2.529135,2.42951 4.584393,1.19538 1.363433,-0.81871 1.820712,-1.46714 3.718099,-5.27237 2.485736,-4.98516 4.883144,-6.99477 8.344576,-6.99477 1.129349,0 2.836182,0.57652 2.836182,0.95798 0,0.0754 -0.207338,0.0277 -0.460752,-0.10601 -1.890862,-0.99758 -4.462196,-0.36953 -6.339135,1.54835 -1.287816,1.3159 -1.724616,2.18844 -3.479034,6.94959 -1.037708,2.81614 -2.415131,4.62106 -4.232956,5.54667 -1.953268,0.99459 -3.677307,0.96706 -5.300235,-0.0846 z m 96.136333,0.12731 c -1.76444,-0.66359 -3.97899,-2.39466 -5.51365,-4.3099 -0.3545,-0.44241 0.0332,-0.16659 0.86148,0.61294 2.77318,2.60984 6.10071,3.6558 8.44152,2.65348 2.88736,-1.23634 4.6969,-5.08597 2.94274,-6.26041 -1.52666,-1.02212 -2.74103,0.98655 -1.41535,2.34113 0.63627,0.65015 0.52216,0.912 -0.28355,0.6507 -0.66796,-0.21662 -1.57902,-1.6396 -1.58042,-2.46842 -5.4e-4,-0.32157 0.30575,-0.95716 0.68064,-1.41241 0.58448,-0.70976 0.85652,-0.82651 1.90883,-0.81917 1.88444,0.0131 2.98246,1.23104 2.98246,3.30808 0,3.98129 -5.07553,7.18924 -9.0247,5.70398 z m -19.78139,-0.43144 c -2.08538,-0.50798 -4.50827,-2.69803 -4.81139,-4.34901 -0.13338,-0.72653 0.18524,-2.35696 0.46062,-2.35696 0.0408,0 0.0341,0.51588 -0.015,1.14641 -0.0682,0.87581 0.0512,1.3288 0.50564,1.91915 0.82102,1.06653 3.09335,2.046 4.74661,2.046 1.71675,0 2.73217,-0.61785 3.26915,-1.98917 0.32316,-0.82527 0.47709,-0.98492 0.66188,-0.68647 0.50177,0.81039 0.26714,2.09758 -0.55722,3.05695 -0.44334,0.51596 -1.00612,0.99538 -1.25062,1.0654 -1.11972,0.32065 -2.10181,0.36885 -3.00967,0.1477 z m -56.375681,-1.34491 c -0.381548,-0.30667 -0.693724,-0.75149 -0.693724,-0.98849 0,-0.34245 0.134179,-0.30211 0.653526,0.19643 0.990247,0.95058 2.650492,0.90616 3.750466,-0.10034 0.467289,-0.42758 0.922404,-1.01175 1.011367,-1.29817 0.08896,-0.28641 0.210707,-0.47072 0.270542,-0.40958 0.314399,0.32126 -0.581893,1.85394 -1.439138,2.46097 -1.214094,0.85972 -2.589543,0.9136 -3.553039,0.13918 z m 42.962581,-0.16425 c 0.19006,-0.0777 0.41714,-0.0682 0.50463,0.0212 0.0875,0.0894 -0.068,0.15298 -0.34556,0.1413 -0.30672,-0.0129 -0.36911,-0.0767 -0.15907,-0.16254 z m -49.212222,-1.50642 c -1.086035,-0.74548 -1.710178,-2.3455 -1.455677,-3.73169 0.402473,-2.19216 2.709703,-4.59614 4.892032,-5.09717 1.122138,-0.25763 2.631244,0.15643 3.041342,0.83445 0.107912,0.17841 -0.114061,0.11666 -0.493271,-0.13723 -2.385586,-1.59718 -6.534981,2.95432 -5.656634,6.20482 0.138214,0.51149 0.596318,1.19063 1.018007,1.50919 1.420285,1.07297 0.172856,1.46006 -1.345799,0.41763 z M 127.0231,151.4743 c -0.97463,-0.49297 -2.19894,-2.00459 -1.88412,-2.32627 0.0733,-0.0749 0.21476,0.12625 0.31438,0.44697 0.20797,0.66952 2.00398,1.59495 3.11248,1.60375 0.47691,0.004 1.02076,-0.2766 1.5139,-0.78049 0.51243,-0.52361 0.76961,-0.65255 0.76961,-0.38586 0,0.74567 -0.51194,1.38343 -1.35017,1.68202 -1.11263,0.39632 -1.24273,0.3837 -2.47608,-0.24012 z m -47.19259,-1.82795 -0.599345,-0.99748 0.665167,0.75484 c 0.365842,0.41515 0.665167,0.86914 0.665167,1.00886 0,0.3956 -0.08885,0.30247 -0.730989,-0.76622 z m 65.13061,0.82694 c -2.11791,-0.55368 -4.39911,-3.0879 -6.33354,-7.03604 -1.01485,-2.07129 -2.91645,-4.39023 -4.12287,-5.0277 -2.18901,-1.15667 -4.72673,-0.95406 -6.28824,0.50204 l -0.9215,0.85931 0.90252,-1.0038 c 1.14596,-1.27454 2.27608,-1.65186 4.46629,-1.4912 3.0669,0.22496 4.71303,1.41311 7.32027,5.28364 2.15722,3.20247 2.80576,3.93744 4.23325,4.79742 2.26422,1.36406 4.66722,0.64602 4.66722,-1.3946 0,-0.73773 -0.15352,-1.11843 -0.56304,-1.39627 -0.50637,-0.34355 -0.63583,-0.31803 -1.28606,0.25348 -0.62727,0.55132 -0.68223,0.71336 -0.41503,1.22353 0.1694,0.32343 0.49142,0.58805 0.71561,0.58805 0.65642,0 0.25407,0.66488 -0.45512,0.75207 -1.45239,0.17856 -2.37966,-1.99425 -1.53736,-3.60242 0.37349,-0.7131 1.99522,-1.72315 2.76668,-1.72315 0.96522,0 2.26396,0.91826 2.92235,2.06622 2.0316,3.54227 -1.73634,7.48273 -6.07143,6.34942 z m -76.504134,-1.145 c -0.79709,-0.81447 -0.912875,-1.73751 -0.361986,-2.88574 0.498308,-1.03864 1.942798,-2.23346 2.697987,-2.23166 0.241429,5.8e-4 0.05486,0.22962 -0.436273,0.5356 -1.025251,0.63874 -1.90408,2.0186 -1.905441,2.99176 -5.41e-4,0.38695 0.244574,1.02253 0.5447,1.4124 0.63469,0.82448 0.225897,0.95921 -0.538987,0.17764 z m 65.562844,-0.53793 c -0.24361,-0.15385 -0.19638,-0.30245 0.18365,-0.57784 1.71994,-1.24635 1.43979,-3.83057 -0.65409,-6.03359 -1.59741,-1.68067 -3.39798,-2.16111 -4.7396,-1.26466 -0.38753,0.25894 -0.6128,0.31861 -0.50062,0.1326 0.11219,-0.18601 0.57153,-0.53241 1.02075,-0.76977 1.8552,-0.98029 4.95578,0.19662 6.71026,2.54706 0.71389,0.95639 0.86477,1.39577 0.86477,2.51826 0,0.8962 -0.18192,1.66052 -0.53365,2.24204 -0.55991,0.9257 -1.79345,1.5583 -2.35147,1.2059 z m -1.47405,-2.4881 c 1.08395,-1.5813 -0.26219,-4.09708 -2.42134,-4.5252 l -0.98646,-0.19559 0.92561,-0.0309 c 1.25052,-0.0418 2.61664,0.75584 3.20082,1.86886 0.62409,1.18906 0.60755,1.89881 -0.0646,2.77194 -0.66042,0.8579 -1.23259,0.95495 -0.65404,0.11093 z m -91.740644,-6.59904 c -1.394879,-0.71202 -2.176311,-2.44933 -2.029055,-4.51107 0.221652,-3.10334 2.099657,-5.64345 4.775535,-6.45919 1.538947,-0.46915 3.980169,-0.47399 5.810353,-0.0115 1.288119,0.3255 1.267063,0.32993 -0.978871,0.20582 -3.904556,-0.21575 -6.265659,0.9006 -7.463129,3.52862 -1.4568,3.19715 -0.0011,7.14779 2.112323,5.7328 0.367951,-0.24635 0.669003,-0.67846 0.669003,-0.96024 0,-0.61218 -1.18161,-1.6275 -1.894055,-1.6275 -0.278634,0 -0.433382,-0.12106 -0.343886,-0.26903 0.0895,-0.14797 0.579519,-0.26903 1.08894,-0.26903 0.672667,0 1.1369,0.21527 1.695828,0.78639 1.311172,1.33977 0.86319,3.16836 -0.967711,3.95005 -1.127542,0.48139 -1.361764,0.47229 -2.475275,-0.0961 z m 7.535095,-0.0663 c -0.417148,-0.133 -1.050421,-0.52044 -1.407274,-0.86099 -2.208934,-2.10801 -1.737072,-5.47801 1.033152,-7.37867 2.291619,-1.57228 4.914347,-1.4188 8.503398,0.49762 5.245168,2.80073 5.140441,2.7595 7.260046,2.85849 1.533019,0.0716 2.225694,-0.0176 2.906008,-0.37433 1.365214,-0.7158 2.165026,-1.42686 2.659375,-2.36428 0.247345,-0.46903 0.454683,-0.72221 0.460753,-0.56262 0.0061,0.15959 -0.342358,0.83533 -0.774283,1.50164 -1.113202,1.71728 -2.972353,2.70066 -5.384244,2.84792 -2.042084,0.12469 -3.225695,-0.18746 -7.290864,-1.92276 -1.248898,-0.53312 -2.790354,-1.04208 -3.425458,-1.13103 -1.51148,-0.21169 -3.288355,0.29506 -4.07473,1.16208 -1.219653,1.34473 -0.595818,3.57419 1.000109,3.57419 0.561909,0 1.06595,-0.89521 0.95454,-1.69532 -0.06563,-0.47131 -0.256144,-0.59091 -0.938037,-0.58884 -0.470626,0.001 -0.855684,-0.12568 -0.855684,-0.28248 0,-0.54059 0.63436,-0.93075 1.513309,-0.93075 2.372635,0 2.999407,3.55224 0.896716,5.08214 -0.952113,0.69275 -2.019408,0.89237 -3.036832,0.56799 z m 102.323709,-0.18769 c -1.44106,-0.28977 -2.76473,-2.64043 -2.31044,-4.103 0.42196,-1.35848 2.40844,-2.15827 3.24287,-1.30563 0.48484,0.49541 0.37871,0.75328 -0.31003,0.75328 -0.82764,0 -1.31552,0.63854 -1.11418,1.45824 0.21228,0.86421 1.06475,1.12456 1.88469,0.57559 0.9351,-0.62606 0.91133,-2.34569 -0.045,-3.25126 -1.48477,-1.40605 -4.29453,-1.26191 -7.64052,0.39197 -3.50349,1.73173 -4.93118,2.17096 -7.04689,2.16798 -2.30481,-0.003 -4.15512,-0.79872 -5.37483,-2.31072 -1.19982,-1.48733 -1.0319,-1.63803 0.3041,-0.27289 0.8558,0.87447 1.48847,1.25116 2.53029,1.50654 2.6088,0.63949 4.23201,0.14678 8.6563,-2.62754 2.64124,-1.65624 4.3494,-2.27239 6.2359,-2.24936 3.28176,0.04 5.6588,2.20514 5.6588,5.15423 0,2.52257 -2.33866,4.58159 -4.67111,4.11257 z m 6.20233,-0.85485 c -0.65643,-0.59932 -0.84667,-0.99057 -0.84667,-1.74134 0,-1.57952 1.77897,-3.02191 2.92136,-2.36865 0.35251,0.20157 0.2639,0.32279 -0.51042,0.69825 -1.07786,0.52263 -1.35907,1.21922 -0.81351,2.0151 0.55033,0.80285 1.8011,0.73852 2.35225,-0.12099 0.58961,-0.91949 0.76145,-2.80498 0.37066,-4.06692 -1.11598,-3.60366 -4.13475,-5.04988 -9.08584,-4.3528 -1.05396,0.14839 -0.92272,0.079 0.65822,-0.34815 2.40738,-0.6504 4.48626,-0.52166 6.45608,0.39982 3.00043,1.40361 4.65681,5.74652 3.29114,8.62916 -0.99092,2.0916 -3.23443,2.67972 -4.79327,1.25652 z M 31.853372,135.69486 c 0,-0.94612 0.960954,-2.35275 2.730078,-3.99625 1.032596,-0.95927 1.966307,-1.74484 2.074913,-1.74571 0.376925,-0.003 0.194686,1.37057 -0.318102,2.39764 -0.937707,1.87814 -4.486889,4.52354 -4.486889,3.34432 z m 135.241768,-1.1999 c -2.11249,-1.13884 -3.72439,-3.27658 -3.54792,-4.70533 0.0782,-0.63303 0.15524,-0.59797 1.96608,0.89479 1.80045,1.48419 3.2494,3.28067 3.2494,4.02877 0,0.48351 -0.48316,0.42029 -1.66756,-0.21823 z m -32.42813,-0.91282 -0.78986,-0.38036 0.78986,0.19072 c 1.43217,0.34581 3.39396,0.1547 4.79318,-0.46694 0.75374,-0.33487 2.88637,-1.74475 4.73917,-3.13308 3.62239,-2.71431 5.88723,-3.98654 8.338,-4.68371 l 1.54655,-0.43995 -1.94148,-0.34574 c -2.46255,-0.43853 -5.24313,-1.65575 -8.26037,-3.61607 -5.62058,-3.65171 -8.413,-4.18189 -11.35105,-2.15517 -0.71908,0.49604 -0.8872,0.55049 -0.5653,0.1831 0.93082,-1.06236 2.65035,-1.69704 4.59775,-1.69704 2.24162,0 3.6502,0.47186 7.88009,2.63977 5.10723,2.61758 8.26369,3.44696 11.28643,2.96559 2.72779,-0.43439 4.92292,-2.50304 5.28675,-4.98212 0.12097,-0.82426 0.25094,-1.09857 0.40377,-0.85214 0.42069,0.67834 0.23069,2.5104 -0.40503,3.90555 -0.7342,1.61126 -2.78213,3.21971 -4.45118,3.49595 -1.09301,0.1809 -0.85039,0.61545 0.35049,0.62776 1.1271,0.0116 3.27772,1.22252 4.26568,2.4019 1.06584,1.27235 1.61014,3.0252 1.30336,4.19729 -0.19932,0.76156 -0.21819,0.74223 -0.67122,-0.68756 -0.87204,-2.75223 -3.10946,-4.28861 -6.25235,-4.29333 -3.10529,-0.005 -5.84691,1.0973 -10.88512,4.37517 -1.59112,1.03519 -3.63759,2.16856 -4.54771,2.5186 -1.8898,0.72683 -4.22643,0.82603 -5.46041,0.23181 z m -72.991179,-0.14798 c -1.466509,-0.29576 -2.865374,-0.94343 -5.884234,-2.72441 -4.845725,-2.85873 -7.298354,-3.72177 -10.548583,-3.71185 -3.068342,0.009 -4.944813,1.13026 -6.048471,3.61301 -0.266277,0.599 -0.488556,1.45229 -0.493954,1.89619 -0.0076,0.62109 -0.06863,0.71409 -0.265038,0.40354 -0.356643,-0.5639 -0.325631,-2.51724 0.05426,-3.41747 0.624155,-1.47907 1.817309,-2.74494 3.231692,-3.42864 0.781337,-0.37769 1.664907,-0.68672 1.963491,-0.68672 0.298583,0 0.542878,-0.12106 0.542878,-0.26902 0,-0.14797 -0.215853,-0.26903 -0.479673,-0.26903 -1.800237,0 -4.275844,-1.70089 -5.280346,-3.62792 -0.587842,-1.12771 -0.771459,-3.46988 -0.295586,-3.7704 0.146025,-0.0922 0.265863,0.1104 0.26907,0.45493 0.01663,1.78621 1.940999,4.20372 3.911786,4.91422 3.286958,1.185 7.53056,0.049 13.775107,-3.68752 4.162764,-2.49086 6.280195,-3.0339 9.050502,-2.32111 0.645818,0.16616 1.23821,0.40792 1.316428,0.53724 0.07822,0.12932 -0.168467,0.11443 -0.54819,-0.0331 -0.895953,-0.34807 -3.154065,-0.34086 -4.404775,0.0141 -1.133405,0.32164 -3.731536,1.84457 -6.384265,3.74224 -2.456591,1.75736 -4.739625,2.8899 -7.049361,3.49697 -1.912262,0.5026 -1.935149,0.63799 -0.158637,0.93847 2.227224,0.37671 5.512261,2.11854 10.214733,5.41617 3.041339,2.13275 5.881154,2.78427 8.121964,1.86337 0.872109,-0.35841 0.922766,-0.35814 0.464458,0.002 -1.099919,0.8655 -2.886112,1.09577 -5.075253,0.65428 z m 72.705559,-0.90592 c -0.79217,-0.35243 -1.95232,-1.59449 -1.95232,-2.09015 0,-0.13626 0.27612,0.0803 0.61361,0.48117 0.49619,0.58945 0.89656,0.7529 2.09237,0.85423 3.52405,0.29861 6.61791,-2.26289 5.76231,-4.7708 -0.35131,-1.02974 0.0241,-1.27935 0.74125,-0.49282 0.70964,0.77832 0.8991,1.58148 0.66887,2.83546 -0.22988,1.2521 -1.83808,2.88705 -3.2277,3.28137 -1.36157,0.38637 -3.71971,0.33695 -4.69839,-0.0985 z m -73.039855,-0.3001 c -1.708242,-0.60623 -3.159446,-2.2939 -3.159446,-3.67426 0,-1.36397 0.638483,-2.6156 1.343609,-2.63389 0.08735,-0.002 0.104224,0.57643 0.0375,1.286 -0.1054,1.12084 -0.02374,1.4086 0.622347,2.19318 1.010214,1.22676 2.774358,1.98443 4.623788,1.98583 1.744792,0.001 2.706206,-0.5234 3.28012,-1.79028 0.386891,-0.85403 0.386893,-0.85403 0.228575,-0.0791 -0.219096,1.07247 -0.900601,1.95653 -1.88574,2.44622 -1.273518,0.63303 -3.699691,0.75993 -5.090753,0.26627 z m -33.04254,-1.4772 c -1.262014,-0.1917 -2.43374,-0.79604 -4.229539,-2.18145 -0.73506,-0.56708 -2.297339,-1.61502 -3.471733,-2.32877 l -2.13526,-1.29771 1.495533,-0.90446 c 0.822543,-0.49745 2.621086,-1.65124 3.996761,-2.56399 3.074087,-2.03961 3.841938,-2.3586 5.637788,-2.34211 1.673804,0.0154 2.573365,0.44884 4.890142,2.35642 1.500054,1.23511 2.852465,2.08601 4.216152,2.65269 0.217211,0.0903 -0.256705,0.11403 -1.053149,0.0528 -0.891288,-0.0685 -2.277484,-0.48444 -3.605159,-1.08176 -2.688178,-1.20942 -3.393792,-1.35559 -4.746715,-0.98334 -1.162866,0.31995 -4.28591,2.32063 -4.28591,2.74563 0,0.36005 1.241315,1.46537 2.501228,2.22721 1.770803,1.07077 2.712503,1.09516 5.595701,0.14493 1.411411,-0.46516 3.277076,-0.90394 4.145924,-0.97506 l 1.579723,-0.12932 -1.385763,0.68297 c -0.762169,0.37563 -2.197618,1.21961 -3.189887,1.8755 -3.118658,2.06145 -3.963939,2.35237 -5.955837,2.04979 z M 134.3379,130.63883 c -0.47063,-0.21588 -0.85568,-0.46314 -0.85568,-0.54948 0,-0.0863 0.22917,-0.0316 0.50926,0.12153 0.77033,0.42126 1.77057,0.33622 2.88627,-0.24538 0.94495,-0.4926 1.41965,-1.21803 1.68167,-2.56996 0.0881,-0.45433 0.13597,-0.42212 0.30788,0.20699 0.24859,0.90971 -0.24173,2.24224 -1.01541,2.75957 -0.87708,0.58647 -2.55131,0.71832 -3.51399,0.27673 z m -71.021711,-0.44775 c -1.175629,-0.69935 -1.711367,-1.41576 -1.711367,-2.2885 0,-0.48336 0.11848,-0.95365 0.263288,-1.0451 0.152283,-0.0962 0.263287,0.16092 0.263287,0.6098 0,1.85672 3.073426,3.17869 4.746408,2.04157 l 0.650979,-0.44247 -0.570426,0.61432 c -0.664075,0.71517 -2.795763,1.01389 -3.642169,0.51038 z M 169.06072,129.6421 c -0.48772,-0.14338 -2.08719,-1.0866 -3.55437,-2.09604 -1.46719,-1.00945 -3.02305,-1.96123 -3.45747,-2.11508 -0.75967,-0.26902 -0.74168,-0.28053 0.47067,-0.30096 0.85003,-0.0143 2.0376,0.28541 3.64662,0.92037 1.32888,0.5244 2.86249,0.9416 3.46133,0.9416 1.33428,0 2.85549,-0.74058 4.40094,-2.14254 l 1.18479,-1.07478 -0.9215,-0.79628 c -2.55053,-2.20393 -4.27542,-2.41566 -7.89125,-0.96865 -1.37162,0.54891 -3.14881,1.05524 -3.94931,1.12519 l -1.45544,0.12717 1.0901,-0.52996 c 0.59956,-0.29148 2.41003,-1.4498 4.02326,-2.57404 2.88429,-2.01003 2.96043,-2.04399 4.57057,-2.03818 1.85084,0.007 2.98294,0.44776 5.34311,2.08172 0.85802,0.59402 2.41902,1.51893 3.46888,2.05537 1.04986,0.53643 1.90883,1.08337 1.90883,1.21542 0,0.13204 -0.50353,0.54244 -1.11897,0.912 -0.61543,0.36955 -2.34825,1.59151 -3.8507,2.71546 -3.47687,2.60097 -5.17625,3.18715 -7.37009,2.54221 z m -28.582,-6.21475 c 0.18777,-1.52303 -0.50214,-2.62704 -2.1515,-3.44289 -2.61622,-1.29412 -5.54156,-0.88631 -6.29134,0.87704 -0.30121,0.70838 -0.37811,0.76804 -0.38637,0.29974 -0.0138,-0.78339 1.20985,-2.22649 2.27271,-2.68026 1.30481,-0.55708 4.10983,-0.46855 5.48852,0.17322 2.18332,1.01631 3.14738,3.90057 1.8089,5.41183 -0.69185,0.78116 -0.89444,0.60652 -0.74092,-0.63868 z m -81.987449,0.25169 c -0.419511,-0.45629 -0.572469,-0.95926 -0.572469,-1.88243 0,-1.06494 0.144367,-1.42306 0.933463,-2.31554 1.5003,-1.69688 4.082192,-2.32569 6.504439,-1.58414 1.117319,0.34206 2.567011,1.61823 2.567011,2.25975 0,0.2245 -0.322758,0.0181 -0.768415,-0.4915 -0.731001,-0.83581 -0.855987,-0.87746 -2.56705,-0.85529 -3.43704,0.0445 -5.487888,1.68293 -5.274674,4.21392 0.121485,1.44209 -0.0057,1.54343 -0.822305,0.65523 z m 79.466829,-0.52068 c 0,-1.76386 -2.92123,-3.01598 -4.8223,-2.06696 -0.49108,0.24515 -0.47894,0.20672 0.0831,-0.26305 1.26176,-1.05457 3.83039,-0.65288 4.92826,0.7707 0.38995,0.50565 0.43729,1.80077 0.0742,2.03007 -0.14721,0.093 -0.26329,-0.11458 -0.26329,-0.47076 z m -76.419099,0.18013 c -0.432897,-0.44413 -0.183728,-1.9327 0.438312,-2.61853 1.201956,-1.32522 3.667744,-1.33058 4.867604,-0.0106 l 0.683867,0.75234 -0.675187,-0.59773 c -0.788952,-0.69844 -2.189935,-0.78681 -3.513723,-0.22163 -1.024827,0.43754 -1.256233,0.754 -1.456634,1.99201 -0.08073,0.4987 -0.235633,0.81556 -0.344239,0.70413 z M 43.832938,121.628 c -0.434423,-0.10855 -1.263778,-0.44757 -1.84301,-0.75337 -3.944922,-2.08273 -4.816448,-8.60927 -1.395332,-10.44914 2.719602,-1.4626 5.560983,2.27624 3.182621,4.18786 -0.704764,0.56646 -2.297449,0.73475 -2.57715,0.27231 -0.0895,-0.14796 0.08662,-0.26903 0.39136,-0.26903 0.641605,0 1.846581,-1.12907 1.846581,-1.73026 0,-0.22526 -0.301052,-0.61113 -0.669004,-0.85748 -2.101018,-1.40666 -3.570008,2.5339 -2.125928,5.7028 0.738941,1.62153 1.530442,2.31217 3.540822,3.08959 1.226642,0.47435 1.890139,0.55611 3.729992,0.45959 2.213582,-0.11612 2.223612,-0.11377 0.921505,0.21526 -1.468087,0.37097 -3.799548,0.43243 -5.002457,0.13187 z m 106.104732,-0.52702 c -0.46364,-0.10433 0.18882,-0.17793 1.57972,-0.1782 3.10039,-6.1e-4 4.741,-0.56414 6.1322,-2.10633 1.29535,-1.43594 1.7258,-2.7318 1.58204,-4.7627 -0.12535,-1.77067 -0.89833,-2.9345 -1.94901,-2.9345 -0.7105,0 -1.42099,0.66133 -1.42099,1.32267 0,0.66874 0.9091,1.43488 1.70264,1.43488 0.79876,0 0.8797,0.36555 0.13445,0.60724 -1.48381,0.48121 -3.15353,-0.80626 -3.15353,-2.4316 0,-1.25636 1.46778,-2.54737 2.89616,-2.54737 1.28042,0 2.71422,1.17732 3.17636,2.60815 0.4021,1.24496 0.18682,4.00394 -0.40621,5.20586 -0.7503,1.52068 -2.24678,2.90974 -3.75662,3.48696 -1.42874,0.54622 -4.73546,0.69587 -6.51721,0.29494 z M 34.683187,118.30872 c -1.31465,-1.25178 -2.222666,-2.37192 -2.551476,-3.14752 -0.280763,-0.66227 -0.464431,-1.25118 -0.40815,-1.30869 0.05628,-0.0575 0.612048,0.14774 1.23504,0.4561 2.23266,1.10511 4.018688,3.49647 3.847499,5.15154 l -0.08192,0.79196 z m 14.77057,1.31513 c -2.495995,-0.68698 -3.93107,-2.30212 -4.120616,-4.63764 -0.198692,-2.44823 1.336192,-4.38993 3.600433,-4.55473 1.286422,-0.0936 2.100351,0.3257 2.855899,1.4713 0.917556,1.39126 0.66099,3.2492 -0.569233,4.12214 -0.440899,0.31285 -1.853383,0.23779 -2.200544,-0.11694 -0.561394,-0.57364 -0.355915,-0.93512 0.461845,-0.81248 0.670759,0.10059 0.802901,0.0144 0.960275,-0.6263 0.228727,-0.93119 -0.151261,-1.57748 -0.988496,-1.68125 -1.255326,-0.15559 -2.029873,1.60024 -1.311204,2.97238 0.583704,1.11444 1.816679,1.65864 3.721081,1.64237 1.448772,-0.0124 2.236556,-0.23579 5.1341,-1.456 2.783066,-1.17201 3.775365,-1.46141 5.309599,-1.54851 2.984801,-0.16946 5.336476,0.92346 6.553687,3.04577 0.867239,1.51211 0.81926,1.86284 -0.06435,0.47039 -1.057643,-1.6667 -2.904301,-2.59944 -5.148601,-2.60054 -1.690091,-8.2e-4 -1.966712,0.0981 -5.792318,2.07038 -3.601777,1.85693 -5.608321,2.62272 -6.781981,2.5883 -0.217212,-0.006 -0.946023,-0.16326 -1.619579,-0.34864 z m 80.605723,-0.14521 c 0,-0.80564 1.36315,-2.69068 2.50422,-3.46298 2.51549,-1.70253 5.04915,-1.76191 9.17194,-0.21496 3.7719,1.41528 4.11104,1.50623 5.6169,1.50623 1.84175,0 3.10243,-0.55787 3.76317,-1.66525 0.67118,-1.12488 0.66889,-1.58347 -0.0124,-2.46843 -0.93718,-1.21741 -2.35048,-0.80555 -2.35048,0.68497 0,0.55768 0.15515,0.78795 0.60937,0.90444 0.33516,0.0859 0.72021,0.13445 0.85569,0.10778 0.60936,-0.11998 0.68738,0.0553 0.24631,0.55328 -0.74625,0.84258 -2.0485,0.71127 -2.87275,-0.28967 -1.1743,-1.426 -0.80387,-3.32143 0.87505,-4.47753 1.08094,-0.74433 1.90825,-0.76519 3.37452,-0.0851 3.08442,1.4307 2.93522,6.04814 -0.26391,8.16774 -2.26998,1.50398 -5.03111,1.23235 -9.36234,-0.92104 -4.44044,-2.20768 -6.15166,-2.55741 -8.45333,-1.72762 -1.49677,0.53961 -2.40383,1.31102 -3.1096,2.64454 -0.32582,0.61563 -0.5924,0.95023 -0.5924,0.74357 z m 32.97169,-1.19135 c 0.0847,-0.76795 0.43371,-1.6959 0.89192,-2.37152 0.74669,-1.10098 3.39063,-3.13843 3.68384,-2.83882 0.62262,0.6362 -1.39473,3.74555 -3.61068,5.56518 l -1.10425,0.90675 z m -95.790689,-0.24053 -0.501559,-0.60532 0.592396,0.5125 c 0.556707,0.48162 0.712256,0.69814 0.501559,0.69814 -0.04996,0 -0.316539,-0.2724 -0.592396,-0.60532 z m 0.242596,-4.51246 c -2.540749,-0.52657 -4.471202,-2.23805 -6.694804,-5.93539 -0.863408,-1.43565 -1.97786,-3.05235 -2.47656,-3.59266 -2.455599,-2.66048 -6.185229,-2.58391 -6.185229,0.12698 0,1.27188 0.552656,1.79396 1.529632,1.44498 0.925632,-0.33063 1.120564,-1.53913 0.32967,-2.04383 -0.298576,-0.19053 -0.542866,-0.43836 -0.542866,-0.55073 0,-0.44224 1.514729,-0.17167 2.086593,0.37272 1.248978,1.18898 0.189158,3.9417 -1.704573,4.42736 -1.673699,0.42923 -3.786373,-0.93919 -4.228413,-2.73883 -0.690118,-2.80962 1.721795,-5.630991 4.777413,-5.588461 3.133855,0.0436 5.174608,1.879211 7.553955,6.794521 1.722729,3.55885 3.103202,5.39179 4.679796,6.21365 2.060957,1.07436 3.976208,1.01566 5.69251,-0.17446 0.555368,-0.3851 0.84073,-0.49371 0.636491,-0.24225 -0.974719,1.20008 -3.506118,1.89002 -5.453615,1.4864 z m 62.445373,-0.15624 c -0.5789,-0.21647 -1.22665,-0.57149 -1.43946,-0.78893 -0.24312,-0.24843 -0.002,-0.1951 0.64746,0.1435 2.19513,1.14355 5.26346,0.3036 7.05589,-1.93153 0.52577,-0.65563 1.32887,-2.03262 1.78468,-3.05999 2.22709,-5.0198 2.63652,-5.79192 3.58529,-6.7614 2.65335,-2.711211 6.38105,-2.920161 8.48174,-0.47542 2.24106,2.60809 0.6953,6.57952 -2.56088,6.57952 -2.43329,0 -3.991,-3.15397 -2.24917,-4.55398 1.25231,-1.00655 2.36539,-0.61938 1.2516,0.43535 -0.62354,0.59049 -0.6476,0.69153 -0.29465,1.23743 0.44815,0.69315 1.37393,0.9092 1.9182,0.44764 0.39826,-0.33774 0.51139,-1.79269 0.17894,-2.30145 -0.70202,-1.0743 -2.8337,-1.19781 -4.40752,-0.25537 -1.27403,0.76291 -2.01559,1.69771 -3.42523,4.3178 -1.78424,3.31635 -2.92665,4.84347 -4.3836,5.85979 -2.11165,1.47302 -4.17174,1.84426 -6.14329,1.10704 z m -62.069908,-1.83515 c -1.395412,-0.50885 -3.117703,-1.932 -4.074838,-3.36707 -0.449934,-0.6746 -1.639358,-2.98197 -2.643166,-5.12748 -1.003807,-2.14551 -2.36097,-4.636631 -3.015918,-5.535821 -3.510126,-4.81912 -8.115132,-6.05558 -11.198057,-3.00672 -0.934322,0.924 -1.186947,0.543 -0.405706,-0.61186 0.68388,-1.01094 0.972662,-1.26273 2.194895,-1.91368 1.366639,-0.72787 3.816738,-0.78729 5.351718,-0.12979 0.560714,0.24018 1.067006,0.43669 1.125093,0.43669 0.05809,0 -0.367016,-0.61096 -0.944672,-1.35769 -1.156857,-1.49545 -1.591137,-2.73375 -1.593364,-4.54328 -0.0015,-1.21662 0.766421,-3.20728 1.466147,-3.80066 0.612583,-0.51949 0.718741,-0.11491 0.225553,0.85961 -0.641163,1.26692 -0.582487,3.39531 0.135375,4.91055 1.499269,3.16463 5.572741,5.15871 11.86239,5.80698 5.677057,0.58513 7.276859,0.98796 9.184791,2.31271 0.914934,0.63527 2.403851,2.61384 2.395513,3.18332 -0.0024,0.16269 -0.270379,-0.18417 -0.595548,-0.7708 -1.237791,-2.23307 -4.168948,-3.36286 -8.746816,-3.3714 -5.105729,-0.01 -7.293984,-0.40008 -11.321348,-2.02064 -0.362271,-0.14577 -0.226582,0.11528 0.434869,0.83663 1.5674,1.70934 3.029555,4.27688 4.17377,7.329131 2.002098,5.34069 2.432916,6.2443 3.620733,7.59425 1.324912,1.50577 2.219161,2.06278 3.836131,2.38948 0.915141,0.1849 0.966801,0.22497 0.308994,0.23968 -0.434424,0.01 -1.233866,-0.14424 -1.776539,-0.34214 z m 63.802638,0.13309 c 2.82342,-0.56397 4.69619,-2.98092 6.16549,-7.95698 0.3929,-1.33064 1.07477,-3.32733 1.51526,-4.437071 0.80769,-2.03484 2.94944,-5.64962 3.34739,-5.64962 0.11819,0 0.28449,-0.18531 0.36954,-0.4118 0.11383,-0.30308 -0.13937,-0.24012 -0.95915,0.23851 -2.37586,1.38714 -5.63814,2.10899 -11.11872,2.46026 -4.35503,0.27913 -5.64526,0.72699 -7.49969,2.60323 -1.09566,1.10855 -1.12582,1.12149 -0.64459,0.2765 0.6389,-1.12183 2.79667,-2.65147 4.46325,-3.16398 0.70543,-0.21693 2.53312,-0.58081 4.06154,-0.80861 6.03626,-0.89968 9.37206,-2.0882 11.67535,-4.15986 2.27899,-2.0498 2.99626,-5.06373 1.78327,-7.49324 -0.60516,-1.21209 -0.43743,-1.41542 0.46161,-0.55957 0.98636,0.93898 1.41538,2.36154 1.31154,4.34885 -0.0836,1.60025 -0.21851,1.98864 -1.19045,3.42786 l -1.09615,1.62313 1.10413,-0.57832 c 1.6935,-0.88702 4.54191,-0.9982 6.08013,-0.23732 1.26891,0.62767 2.52769,1.93111 2.52769,2.61738 0,0.28973 -0.26943,0.16906 -0.91431,-0.40951 -0.50287,-0.45115 -1.36185,-0.94727 -1.90883,-1.10249 -4.69492,-1.33222 -8.74384,2.36463 -12.06297,11.014041 -1.29346,3.37068 -1.72433,4.21502 -2.97788,5.83547 -1.17381,1.51737 -3.32829,2.79274 -4.63294,2.74254 -0.78934,-0.0304 -0.7868,-0.0344 0.13949,-0.2194 z m -62.457145,-0.74652 c -0.381884,-0.06 -1.325463,-0.49587 -2.096843,-0.96855 -2.470112,-1.51359 -3.687109,-4.39786 -2.685819,-6.36536 0.530877,-1.04315 1.975738,-2.03233 2.60701,-1.78481 0.341549,0.13393 0.283925,0.30111 -0.333173,0.96664 -1.455338,1.56955 -1.224302,3.55518 0.663265,5.7004 1.837978,2.08886 3.462459,2.52849 4.904941,1.32743 0.492618,-0.41018 0.501117,-0.40714 0.150819,0.0539 -0.437885,0.57627 -1.686865,1.27718 -2.173683,1.21984 -0.188201,-0.0222 -0.654634,-0.0894 -1.036517,-0.14946 z m 60.188095,-0.0662 c -0.29465,-0.12203 -0.70933,-0.4415 -0.92151,-0.70993 -0.36984,-0.46788 -0.35887,-0.46912 0.26519,-0.0301 1.79253,1.26104 4.49316,-0.36258 5.8618,-3.5241 0.65637,-1.5162 0.45671,-2.69345 -0.64315,-3.79222 -0.94684,-0.9459 -0.86076,-1.23364 0.29167,-0.97501 1.67256,0.37537 2.75246,2.70468 2.1719,4.6847 -0.84126,2.86912 -4.75193,5.2885 -7.0259,4.34666 z m -59.625405,-1.55412 c -0.659547,-0.25626 -1.692506,-1.16004 -2.031146,-1.77713 -0.489085,-0.89124 -0.413948,-2.44722 0.143045,-2.96229 0.716691,-0.66274 0.850192,-0.54405 0.458557,0.40769 -0.637228,1.54857 0.556444,3.71115 2.341159,4.24149 0.725836,0.21568 0.738917,0.23792 0.141533,0.24067 -0.362019,0.002 -0.835936,-0.066 -1.053148,-0.15043 z m 60.709165,-0.0415 c 0.7926,-0.36124 1.88106,-1.77395 2.08005,-2.69969 0.17026,-0.79214 -0.18776,-1.84806 -0.75868,-2.2376 -0.18403,-0.12555 -0.13652,-0.19915 0.13025,-0.20177 0.5015,-0.005 1.1619,0.71171 1.40353,1.52305 0.38099,1.27927 -1.11512,3.40044 -2.61334,3.70515 -0.62648,0.12742 -0.6765,0.10898 -0.24181,-0.0891 z m -84.799941,-5.66887 c -1.054699,-0.44577 -1.78288,-1.55918 -1.89378,-2.89566 -0.196225,-2.364731 1.937704,-5.048491 4.762502,-5.989601 1.305708,-0.43502 3.809975,-0.21645 5.045792,0.44039 1.147257,0.60976 3.181251,2.33105 4.063092,3.43844 0.492039,0.61788 0.32733,0.52895 -0.658218,-0.35542 -2.855661,-2.56247 -5.936501,-3.34949 -8.427742,-2.15293 -1.752481,0.84173 -3.286577,2.9583 -3.286577,4.534441 0,1.13314 1.427714,1.96833 2.347644,1.37334 0.510258,-0.33002 0.470179,-1.78608 -0.06582,-2.391271 -0.579563,-0.65438 -0.55368,-0.83695 0.09411,-0.66386 0.77165,0.2062 1.573371,1.369241 1.573371,2.282461 0,1.07286 -0.396049,1.74645 -1.311166,2.23 -0.846591,0.44734 -1.444522,0.48723 -2.24321,0.14967 z m 77.116021,-0.69955 c -0.2494,-1.01538 0.0513,-2.45123 0.68604,-3.275771 1.60621,-2.0865 4.38467,-3.38345 6.23293,-2.90945 1.70284,0.43671 2.95277,2.11409 2.61129,3.504311 -0.17928,0.72991 -0.68302,0.9353 -0.68302,0.27849 0,-0.21961 -0.34594,-0.794661 -0.76874,-1.277891 -0.69332,-0.79238 -0.9089,-0.87727 -2.19713,-0.86515 -2.94868,0.0277 -5.94311,2.346231 -5.62895,4.358291 0.16207,1.03795 -0.0118,1.16685 -0.25242,0.18717 z m -45.811177,-1.05487 c 0,-1.31201 -0.787265,-2.292551 -2.582077,-3.215991 -2.655164,-1.36609 -4.943469,-0.97259 -5.896972,1.01405 -0.631125,1.314961 -1.208745,0.530701 -0.79397,-1.07801 0.474994,-1.84226 3.001779,-2.94026 5.132833,-2.23043 1.342304,0.44711 3.077154,1.68242 3.780801,2.69215 0.64703,0.92849 0.960837,2.664871 0.600509,3.322781 -0.181992,0.3323 -0.241124,0.20856 -0.241124,-0.50455 z m 75.552497,0.54615 c -0.90714,-0.40333 -1.55971,-1.83248 -1.24711,-2.731231 0.25791,-0.74151 1.1827,-1.72249 1.62382,-1.72249 0.31782,0 0.31038,0.10751 -0.0459,0.66311 -0.8151,1.27114 -0.40841,2.565241 0.80617,2.565241 0.85801,0 1.50235,-1.11501 1.29548,-2.241781 -0.21973,-1.19682 -1.73246,-2.95833 -3.13726,-3.65322 -2.46903,-1.2213 -5.26231,-0.51028 -8.13878,2.0717 -1.48108,1.32945 -0.84763,0.42698 0.98149,-1.39832 2.07091,-2.06659 5.23767,-2.87128 7.69143,-1.95445 1.23776,0.46248 3.1623,2.20795 3.76461,3.41432 1.00651,2.01596 0.46294,4.285251 -1.19615,4.993581 -1.08795,0.46449 -1.34011,0.46381 -2.3978,-0.007 z m -73.360946,-1.02143 c 0.211946,-1.921391 -0.100662,-2.983141 -1.282106,-4.354611 -1.741068,-2.02109 -3.109666,-2.55502 -7.940504,-3.09777 -5.669115,-0.63694 -8.423217,-2.69893 -8.780113,-6.57365 -0.254509,-2.76312 2.063815,-5.26902 4.516153,-4.88155 2.999408,0.4739 4.258317,3.50679 2.315648,5.57872 -0.528294,0.56345 -0.952065,0.74956 -1.706689,0.74956 -1.045149,0 -2.057039,-0.72006 -2.057039,-1.46378 0,-0.55657 0.44387,-0.75866 0.622366,-0.28336 0.180938,0.4818 1.25157,0.53181 1.694561,0.0792 0.17377,-0.17756 0.315945,-0.57707 0.315945,-0.8878 0,-0.80022 -0.498496,-1.21063 -1.470456,-1.21063 -1.491379,0 -2.182515,2.01085 -1.294336,3.76586 0.827716,1.63554 2.691078,2.62281 6.571748,3.48193 5.043714,1.11659 6.913602,2.31127 8.446677,5.3966 0.533289,1.07325 0.651309,3.627971 0.204391,4.424351 -0.236944,0.42221 -0.267155,0.28241 -0.156246,-0.72303 z m 44.831536,0.96844 c 0,-0.14435 0.18425,-0.49745 0.40945,-0.78467 0.38608,-0.49241 0.39156,-0.48382 0.096,0.15035 -0.38382,0.82351 -0.50543,0.97613 -0.50543,0.63432 z m -3.65505,-1.19171 c -0.10091,-4.007731 2.85709,-6.943971 8.3643,-8.302791 3.75334,-0.92607 5.42616,-1.8432 6.38232,-3.49912 1.10655,-1.91636 0.4783,-4.0515 -1.19213,-4.0515 -1.14706,0 -1.64848,0.59518 -1.31678,1.56299 0.16244,0.47396 0.47341,0.75587 0.90098,0.8168 0.3591,0.0512 0.80719,0.22256 0.99575,0.38087 0.26951,0.22626 0.17549,0.3961 -0.43951,0.79399 -0.71817,0.46462 -0.85923,0.47333 -1.71933,0.10612 -1.02086,-0.43585 -1.99911,-1.81131 -2.00067,-2.81302 -0.003,-2.02958 2.16309,-3.76945 4.26549,-3.42593 3.72875,0.60925 4.86237,5.30559 2.06462,8.55332 -1.26279,1.4659 -3.33718,2.45781 -6.06781,2.90146 -4.84072,0.78647 -6.36163,1.34351 -7.981,2.92309 -1.1903,1.16104 -1.72051,2.21042 -2.01125,3.980601 l -0.21402,1.30309 z m 8.7033,0.004 c -0.69711,-0.90176 -1.62131,-1.02604 -3.06058,-0.41155 -1.1318,0.48321 -1.4296,0.21671 -0.47589,-0.42589 0.96371,-0.649331 3.00042,-0.661971 3.55037,-0.022 0.36432,0.42394 0.8879,1.70322 0.68209,1.66655 -0.046,-0.008 -0.35916,-0.37137 -0.69599,-0.80708 z m -53.492948,0.0152 c -0.364323,-0.69559 -1.768909,-1.345411 -2.908095,-1.345411 -0.553686,0 -1.067611,0.254471 -1.588179,0.786391 -0.642214,0.65622 -0.769609,0.70471 -0.769609,0.29295 0,-0.2714 0.378199,-0.81863 0.840441,-1.216061 0.712653,-0.61274 0.998676,-0.69676 1.881115,-0.55257 0.572371,0.0935 1.379205,0.41635 1.792966,0.7174 0.773004,0.562431 1.4226,1.527781 1.188815,1.766661 -0.0724,0.074 -0.269258,-0.12823 -0.437454,-0.44936 z m 8.160058,-2.672901 c -2.226146,-0.69193 -3.914847,-2.46597 -4.725919,-4.96475 -0.468843,-1.44443 -0.52594,-2.23233 -0.47007,-6.48667 0.06324,-4.81556 0.05968,-4.84933 -0.638629,-6.06303 -0.935947,-1.62672 -2.312128,-2.33885 -3.573121,-1.84896 -0.874877,0.33988 -1.112771,0.6937 -1.118011,1.66282 -0.0028,0.52598 0.180044,0.8313 0.620882,1.03654 1.185417,0.55189 2.309082,-0.69426 1.433114,-1.58933 -0.413301,-0.42232 -0.120828,-0.68745 0.526687,-0.47745 0.637516,0.20675 1.209042,1.5317 0.979492,2.27072 -0.325698,1.04856 -1.661432,1.91485 -2.952519,1.91485 -1.00333,0 -1.331925,-0.14408 -2.086096,-0.9147 -0.799126,-0.81655 -0.895177,-1.07208 -0.895177,-2.38148 0,-5.43829 7.059687,-5.8175 9.401696,-0.50501 0.55224,1.25267 0.595399,5.26507 0.07851,7.29858 -0.206861,0.81381 -0.380765,2.57208 -0.386453,3.90726 -0.0088,2.07515 0.08539,2.61781 0.649055,3.73773 0.85057,1.68996 2.247587,2.82969 3.999671,3.26306 0.993901,0.24584 1.168811,0.34536 0.606675,0.34519 -0.434424,-1.4e-4 -1.086826,-0.0926 -1.449784,-0.20537 z m 33.04424,-0.66081 c 2.36717,-0.68854 4.0868,-3.41669 4.07622,-6.4668 -0.003,-0.75047 -0.29668,-2.63565 -0.65349,-4.18929 -0.71377,-3.10796 -0.82897,-6.03704 -0.29721,-7.5571 0.4502,-1.28693 1.66229,-2.87738 2.55059,-3.34675 3.38789,-1.79016 6.83003,-0.0891 6.83003,3.37535 0,1.68784 -0.91312,3.04282 -2.28822,3.39547 -2.17341,0.55739 -4.43476,-1.64639 -3.37894,-3.29292 0.71325,-1.11231 1.84456,-1.27573 1.16797,-0.16872 -0.50671,0.82907 -0.1274,1.40699 0.92347,1.40699 1.01732,0 1.48375,-0.53473 1.26533,-1.45062 -0.33848,-1.4193 -1.46321,-1.77386 -3.08393,-0.97216 -2.12188,1.04959 -2.60693,3.3868 -1.93488,9.32336 0.26852,2.37194 0.25094,2.97269 -0.13382,4.5735 -0.74735,3.10935 -2.85402,5.39291 -5.19693,5.6333 l -1.16262,0.1193 z m -34.070628,-1.99163 c -2.020329,-2.17848 -2.349932,-5.40101 -1.182286,-11.55924 0.937329,-4.94353 0.844546,-8.79739 -0.272042,-11.299662 -1.301979,-2.91772 -3.338547,-4.26156 -6.154823,-4.06129 -1.338393,0.0952 -1.348018,0.0904 -0.844399,-0.42386 0.748612,-0.76435 3.299352,-0.90483 4.638579,-0.25546 1.024033,0.49653 3.124892,2.4611 3.706348,3.4659 0.253976,0.43889 0.286263,0.21575 0.175177,-1.21064 -0.153905,-1.97621 0.279154,-3.55772 1.376887,-5.02831 0.783073,-1.04905 2.414797,-1.97145 3.457649,-1.95457 0.728503,0.0118 0.726629,0.0162 -0.228568,0.53179 -1.283104,0.69264 -2.464537,2.20285 -2.864128,3.66117 -0.470373,1.71665 -0.154967,3.68432 0.961041,5.99548 0.991396,2.053102 2.508779,3.759082 8.036434,9.035292 2.554461,2.43826 3.584793,4.23524 3.788563,6.60752 l 0.12569,1.46337 -0.4013,-1.61418 c -0.650082,-2.61493 -1.848111,-4.08267 -5.947178,-7.28607 -3.879402,-3.03173 -5.637803,-4.81537 -6.803767,-6.90142 l -0.716685,-1.282242 0.121043,2.780972 c 0.130162,2.9905 -0.218813,5.35994 -1.41315,9.59492 -1.32682,4.70474 -1.069039,7.78716 0.817204,9.77172 0.517241,0.5442 0.857151,0.98946 0.755355,0.98946 -0.101796,0 -0.611036,-0.45929 -1.131644,-1.02065 z m 1.485756,0.1803 c -2.064153,-1.57346 -2.958611,-5.55756 -1.743629,-7.76648 1.034286,-1.8804 3.457681,-2.69788 4.434072,-1.49574 0.22666,0.27907 0.09142,0.39275 -0.632275,0.53147 -2.165272,0.41507 -3.23975,2.52566 -2.774786,5.45051 0.363585,2.28712 1.112559,3.2685 2.758421,3.61437 0.729862,0.15338 0.709458,0.16846 -0.261525,0.19325 -0.68521,0.0175 -1.307186,-0.16675 -1.780278,-0.52738 z m 33.325122,-0.33752 c 0.59518,-0.60816 1.10093,-1.4912 1.35525,-2.36627 0.72247,-2.48588 0.65703,-2.90448 -1.7171,-10.98346 -0.70099,-2.3854 -0.83536,-3.29579 -0.86384,-5.85268 l -0.0337,-3.027872 -0.54647,1.157002 c -1.23952,2.62433 -3.34567,5.04897 -6.83298,7.86627 -2.43832,1.96984 -3.28289,2.83459 -4.23907,4.34034 -1.05758,1.66544 -1.42783,3.15797 -1.15775,4.66712 0.14164,0.79149 0.11796,1.03264 -0.0814,0.82892 -0.15464,-0.15802 -0.28117,-1.05161 -0.28117,-1.98575 0,-2.91634 0.92918,-4.47566 5.4044,-9.06946 5.10438,-5.23965 6.54226,-7.745352 6.54226,-11.400852 0,-2.29123 -0.75822,-3.7623 -2.57368,-4.99341 -0.75028,-0.50878 -1.31301,-0.9773 -1.25052,-1.04116 0.0625,-0.0639 0.51984,-0.0382 1.01632,0.0569 1.36122,0.26094 2.85015,1.51378 3.70228,3.11523 0.63178,1.18735 0.76276,1.75156 0.76276,3.28573 v 1.85222 l 0.63822,-1.15423 c 1.80524,-3.26478 5.15283,-4.8005 7.59559,-3.48453 l 1.03544,0.55782 -1.57972,0.0178 c -2.85291,0.0321 -4.83049,1.50164 -5.86169,4.35567 -1.09844,3.040102 -0.98717,6.023072 0.45906,12.307362 1.21045,5.25978 1.02459,8.15697 -0.66884,10.4256 -0.36507,0.48906 -0.91336,1.02571 -1.21844,1.19254 -0.32299,0.17663 -0.15807,-0.10193 0.39483,-0.66689 z m -2.86585,0.44777 c 1.68016,-0.42021 2.55952,-1.98407 2.59209,-4.60978 0.0342,-2.76013 -0.9566,-4.26509 -2.99167,-4.544 l -1.11797,-0.15323 0.60013,-0.49655 c 1.17539,-0.97253 3.29753,-0.33361 4.39804,1.32414 0.72932,1.09861 0.68089,4.65291 -0.0833,6.11568 -0.82095,1.57136 -1.71659,2.31812 -2.89134,2.41073 -0.55727,0.0439 -0.78494,0.0228 -0.50594,-0.047 z m -29.258888,-1.22001 c -1.53688,-1.72265 -1.341885,-4.48808 0.367936,-5.21808 0.587483,-0.25081 1.032357,-0.30618 1.187387,-0.14777 0.155031,0.15841 -0.0041,0.31796 -0.424789,0.42585 -0.820358,0.21038 -1.472145,1.41488 -1.472145,2.7205 0,1.05119 0.578258,2.42473 1.113431,2.64475 0.184056,0.0757 0.207202,0.14714 0.05143,0.15882 -0.155768,0.0117 -0.526232,-0.25115 -0.823254,-0.58407 z m 29.644318,-0.35706 c 1.17918,-1.66264 0.62102,-4.30513 -1.02743,-4.86422 -0.77538,-0.26298 -0.8413,-0.34289 -0.42329,-0.51307 0.65958,-0.26852 2.12269,0.5506 2.5017,1.4006 0.62832,1.40908 0.20419,3.14945 -1.0399,4.26712 l -0.59821,0.53743 z m -12.31004,-0.42924 c -1.24569,-1.30191 -1.70768,-2.82093 -1.56014,-5.12973 0.1572,-2.46004 0.65788,-3.47663 3.61821,-7.34644 2.48244,-3.2451 3.08762,-4.66758 2.82787,-6.64683 -0.16106,-1.227212 -1.34957,-2.621932 -2.23429,-2.621932 -1.50241,0 -2.25483,2.045932 -0.97206,2.643152 0.55848,0.26001 0.7439,0.22467 1.18479,-0.22585 0.28749,-0.29375 0.5227,-0.730512 0.5227,-0.970582 0,-0.35748 0.0715,-0.37587 0.39493,-0.10157 0.81125,0.687962 0.24182,2.466952 -0.95127,2.971922 -1.06821,0.45212 -2.38529,0.11464 -3.28103,-0.8407 -0.63548,-0.67777 -0.77015,-1.05009 -0.77015,-2.129162 0,-3.78417 4.56316,-5.18989 7.28946,-2.24557 0.97228,1.05002 1.31693,2.10171 1.29625,3.955422 -0.0274,2.45356 -0.86609,3.98236 -4.03452,7.35403 -1.50189,1.59823 -2.98899,3.33856 -3.30468,3.8674 -1.41274,2.36659 -1.2987,5.59131 0.26195,7.40756 0.98959,1.15166 0.79553,1.19134 -0.28802,0.0589 z m -5.782516,-0.19712 c 1.82036,-1.57644 2.22735,-4.40003 1.03216,-7.16088 -0.48854,-1.12851 -1.17466,-1.90182 -5.226265,-5.89043 -2.23711,-2.20232 -2.991855,-3.66202 -3.141222,-6.07523 -0.126303,-2.040582 0.43518,-3.300612 2.070288,-4.645972 2.419038,-1.99038 5.972259,-0.68284 6.458129,2.3765 0.38354,2.415062 -2.059262,4.324182 -4.236161,3.310692 -0.870228,-0.40516 -1.360506,-1.605832 -0.964471,-2.361962 0.410444,-0.78365 0.709536,-0.70189 0.894796,0.24462 0.125015,0.638702 0.295405,0.807092 0.816705,0.807092 0.899959,0 1.610459,-1.094652 1.208549,-1.861992 -0.33781,-0.64498 -1.314429,-0.95752 -2.245718,-0.71869 -0.974402,0.2499 -1.564537,1.36703 -1.562435,2.957732 0.0024,1.82701 0.930407,3.52955 3.533753,6.4832 2.769212,3.14183 3.485422,4.54635 3.631292,7.12116 0.0797,1.40745 -0.003,2.31838 -0.27016,2.96963 -0.46822,1.14199 -1.63592,2.59594 -2.402202,2.99108 -0.3102,0.15996 -0.12886,-0.086 0.402962,-0.54655 z m -57.782963,0.0151 c -0.420842,-0.16976 -0.392032,-0.25093 0.263288,-0.74182 0.404711,-0.30316 1.150516,-0.69937 1.657344,-0.88047 1.218982,-0.43556 5.265744,-0.73403 5.265744,-0.38837 0,0.43129 -1.125682,1.37802 -2.167256,1.82271 -1.000018,0.42694 -4.135535,0.54436 -5.01912,0.18795 z m 65.801649,-0.58658 c -0.8669,-1.05272 -1.10534,-2.41892 -0.71993,-4.12502 0.62118,-2.74979 2.12011,-4.46284 4.24043,-4.84615 1.13708,-0.20557 2.6189,0.48662 3.07683,1.43725 0.422,0.87604 0.29942,0.94448 -0.72354,0.40395 -1.68708,-0.89145 -3.3934,-0.15063 -4.84008,2.10138 -1.40632,2.18918 -1.54731,3.99549 -0.40931,5.24364 0.30087,0.32998 0.43446,0.59996 0.29689,0.59996 -0.13758,0 -0.55216,-0.36675 -0.92129,-0.81501 z m -10.104617,-0.39267 c 0.54054,-0.55909 0.724039,-1.01452 0.724039,-1.79697 0,-2.03621 -1.417319,-4.42711 -3.164204,-5.33774 -1.286905,-0.67085 -1.731509,-0.6704 -2.961116,0.003 -0.93577,0.51248 -0.983428,0.51475 -0.983428,0.0469 0,-0.65417 1.033495,-1.61624 2.059085,-1.91679 4.358334,-1.27722 8.115185,7.33188 4.131114,9.46675 -0.38315,0.20531 -0.32938,0.0767 0.19451,-0.46515 z m 61.541677,0.14923 c -1.2144,-0.37746 -2.34944,-1.09394 -2.6539,-1.67523 l -0.30162,-0.57588 2.70284,0.19021 c 2.57219,0.18102 4.39982,0.7412 4.85078,1.48679 0.36726,0.60719 -3.09918,1.04001 -4.5981,0.57411 z m -50.37391,-0.46605 c -0.0965,-0.0986 -0.17553,-0.6594 -0.17553,-1.24613 0,-1.15148 0.78644,-2.7142 1.58595,-3.15142 0.71421,-0.39057 2.25206,-0.32328 2.60729,0.11408 0.25905,0.31894 0.14627,0.35749 -0.70467,0.24087 -0.8282,-0.11351 -1.16366,-0.009 -1.83831,0.5707 -0.88666,0.76234 -1.52234,2.28616 -1.30613,3.13097 0.14253,0.55695 0.10906,0.62465 -0.1686,0.34093 z m -45.55696,-0.90406 c -3.127923,-1.58609 -4.672836,-3.33121 -5.186269,-5.85834 -0.911477,-4.48632 2.86237,-9.09251 6.182902,-7.54658 0.975564,0.45419 1.746413,2.19691 1.448869,3.27556 -0.478377,1.73421 -2.370662,2.35753 -3.762031,1.23921 -0.92186,-0.74095 -0.880186,-1.08177 0.08668,-0.70886 1.201292,0.46332 2.2474,-0.01 2.2474,-1.01647 0,-0.58271 -0.190348,-0.89901 -0.72466,-1.20416 -0.667859,-0.38142 -0.801307,-0.37168 -1.702533,0.1242 -2.018157,1.11046 -3.134834,4.20312 -2.437089,6.74957 0.442268,1.61408 2.39345,3.79255 4.386267,4.89721 1.919435,1.06399 1.531734,1.09895 -0.539534,0.0487 z m 78.51528,-0.27689 c 3.40767,-2.32518 4.64023,-5.20174 3.58491,-8.36648 -0.74693,-2.23994 -3.25974,-4.04169 -4.37367,-3.13603 -1.57185,1.27796 0.0739,3.0906 1.89956,2.09222 0.71281,-0.38981 0.63486,0.0641 -0.1385,0.80651 -0.53982,0.5182 -0.83551,0.59608 -1.7745,0.46739 -1.40853,-0.19304 -2.05362,-0.94608 -2.05362,-2.39726 0,-0.86927 0.17636,-1.25343 0.92804,-2.0215 0.86752,-0.88644 1.01416,-0.93984 2.24831,-0.81866 2.64045,0.25924 4.75617,3.11239 4.75408,6.41111 -0.002,3.0311 -1.331,5.08215 -4.53046,6.99149 -2.30472,1.37539 -2.58064,1.36079 -0.54415,-0.0288 z m -44.718477,0.0467 c 0,-2.28469 -2.658049,-4.47164 -3.896651,-3.20602 -0.175525,0.17935 -0.315945,0.20326 -0.315945,0.0538 0,-0.92427 2.046306,-1.25066 3.102367,-0.49483 0.322663,0.23093 0.771249,0.78462 0.996859,1.23041 0.40892,0.80801 0.58549,2.79951 0.27622,3.11552 -0.0896,0.0915 -0.16285,-0.22297 -0.16285,-0.69888 z m 2.653661,-0.18841 c 0.0126,-0.3134 0.075,-0.37715 0.15907,-0.16254 0.0761,0.19421 0.0667,0.42625 -0.0208,0.51564 -0.0875,0.0894 -0.14972,-0.0695 -0.13828,-0.3531 z m -47.459558,-1.59502 c -0.07416,-0.0758 -1.722997,-0.26107 -3.664079,-0.41176 -3.925671,-0.30477 -5.617455,-0.65924 -5.339516,-1.11876 0.112762,-0.18643 0.05933,-0.22166 -0.142694,-0.0941 -0.20293,0.12816 -0.731783,-0.23243 -1.422938,-0.97019 -0.827865,-0.88369 -1.288012,-1.73912 -1.86009,-3.458 -0.418063,-1.25612 -1.158558,-3.22796 -1.645545,-4.38186 -0.486987,-1.15391 -0.88543,-2.18923 -0.88543,-2.30072 0,-0.11148 0.799735,-0.11184 1.777188,-7.8e-4 0.977454,0.11105 2.98746,0.20814 4.466681,0.21573 4.095799,0.021 6.311358,1.02755 7.427771,3.37437 0.80159,1.68503 1.335729,3.01632 1.335729,3.32919 0,0.59229 0.871852,2.88918 1.368176,3.60446 l 0.516011,0.74365 -0.614366,-0.28603 c -0.614039,-0.28588 -1.368997,-1.28203 -3.452965,-4.55613 -1.498966,-2.35501 -2.294279,-2.78449 -5.414525,-2.92393 l -2.486319,-0.11112 0.152796,0.78064 c 0.332117,1.69681 1.307003,3.86096 2.092934,4.64611 0.56699,0.56643 1.514138,1.04063 3.00918,1.50659 1.199965,0.374 2.688543,0.90722 3.307951,1.18494 1.242799,0.55723 2.340393,1.34353 1.894117,1.35691 -0.156876,0.005 -0.345905,-0.0534 -0.420067,-0.12922 z m 100.366934,-1.08202 c 0.5368,-0.66092 1.50801,-1.08644 3.85365,-1.68841 2.44368,-0.62714 3.3933,-1.07232 4.22212,-1.97937 0.73866,-0.80837 1.55427,-2.72172 1.78701,-4.19217 l 0.18097,-1.14337 -2.06362,0.006 c -3.18317,0.009 -3.88605,0.44604 -6.03136,3.74922 -1.50189,2.31249 -3.18532,4.22565 -3.46593,3.93891 -0.0427,-0.0437 0.205,-0.61232 0.55053,-1.26368 0.34552,-0.65135 0.95468,-2.12018 1.35368,-3.26404 0.399,-1.14387 0.82755,-2.01529 0.95233,-1.9365 0.12477,0.0788 0.15595,-0.0456 0.0693,-0.27632 -0.28646,-0.76277 0.88652,-2.26486 2.61409,-3.34754 0.81953,-0.5136 1.57795,-0.67203 4.15711,-0.86837 1.73508,-0.13208 3.94529,-0.35456 4.91156,-0.49438 0.96628,-0.13983 1.80615,-0.20388 1.86638,-0.14233 0.0602,0.0615 -0.25159,1.05482 -0.69293,2.20728 -0.44134,1.15246 -1.05673,2.93238 -1.36753,3.95536 -1.16378,3.8305 -2.57792,5.66193 -4.87454,6.31293 -0.57923,0.16419 -2.37833,0.2992 -3.99799,0.30003 -1.61966,8.2e-4 -3.26639,0.12642 -3.6594,0.2791 -0.63915,0.2483 -0.67771,0.23223 -0.36542,-0.15226 z m -15.34773,-0.82422 c -0.23733,-0.24251 0.0895,-0.93453 0.3605,-0.76337 0.12964,0.0819 0.2357,0.3233 0.2357,0.53652 0,0.39617 -0.31368,0.51552 -0.5962,0.22685 z m -82.947625,-5.83285 c -0.700875,-3.1102 -0.788571,-4.10664 -0.452892,-5.14594 0.17261,-0.53443 0.40901,-0.91158 0.525333,-0.83812 0.346193,0.21863 1.240314,2.35277 1.428319,3.40919 0.193488,1.08725 -0.195805,3.25251 -0.723061,4.02169 -0.300807,0.43883 -0.390284,0.27237 -0.777699,-1.44682 z m 95.434485,0.42202 c -0.7654,-1.52277 -0.76974,-3.94115 -0.0103,-5.74498 0.30744,-0.73027 0.65004,-1.32776 0.76131,-1.32776 0.29039,0 0.5727,1.31386 0.35843,1.66811 -0.11684,0.19318 -0.0586,0.22135 0.16523,0.08 0.27887,-0.17611 0.31041,0.14056 0.16331,1.63987 -0.10027,1.02197 -0.33674,2.52397 -0.52548,3.33779 l -0.34317,1.47966 z m -65.822955,-3.0373 c 0,-0.36992 0.05976,-0.52125 0.132798,-0.33629 0.07304,0.18496 0.07304,0.48762 0,0.67258 -0.07304,0.18495 -0.132798,0.0336 -0.132798,-0.33629 z m 37.755305,-1.88321 c 0.36934,-4.675662 2.18627,-7.475412 5.51051,-8.491272 3.41294,-1.04298 7.24375,1.01829 7.24375,3.89769 0,2.532502 -3.01881,3.869472 -4.47268,1.980862 -0.62255,-0.808712 -0.68984,-2.179762 -0.14322,-2.918222 0.36514,-0.49329 0.38702,-0.47281 0.39493,0.36981 0.0122,1.30117 0.43096,1.932782 1.28141,1.932782 0.91251,0 1.35983,-0.443642 1.35983,-1.348622 0,-1.37309 -2.09622,-2.68683 -4.28715,-2.68683 -3.41896,0 -5.68413,2.404 -6.62286,7.028762 l -0.40266,1.98373 z m -38.124634,0.12109 c -0.103505,-0.59924 -0.55309,-1.83569 -0.999078,-2.74766 -1.68275,-3.440932 -4.870638,-4.696842 -8.064744,-3.177222 -1.486049,0.70699 -2.006705,1.40387 -1.880179,2.51653 0.05842,0.513722 0.298561,0.798942 0.833651,0.990142 0.650597,0.23247 0.821568,0.18026 1.272288,-0.38849 0.331862,-0.41877 0.481626,-0.929012 0.412972,-1.406992 -0.124379,-0.86593 0.184524,-0.98784 0.581681,-0.22956 0.731253,1.396162 -0.176161,3.435882 -1.570459,3.530142 -1.293559,0.0875 -1.630491,-0.0255 -2.389838,-0.80146 -0.613974,-0.62737 -0.769409,-1.0218 -0.768624,-1.950472 0.0014,-1.66274 0.777024,-2.8066 2.43929,-3.59738 3.007991,-1.43099 6.645562,-0.57681 8.509267,1.99817 1.004104,1.38731 2.037839,4.428462 1.901202,5.593142 -0.07908,0.67408 -0.110658,0.63664 -0.277429,-0.32889 z m 30.994654,-2.09902 c 1.94227,-4.487612 1.03388,-8.418602 -2.3134,-10.011062 -2.51623,-1.19709 -4.65765,-0.73076 -4.65765,1.01428 0,1.53447 1.73241,1.66184 2.60737,0.19169 0.37744,-0.63418 0.51971,-0.7214 0.64267,-0.39399 0.59823,1.59298 -2.24004,3.58896 -3.55613,2.50081 -1.25255,-1.03561 -1.58878,-2.56511 -0.87425,-3.97699 0.54612,-1.07911 1.66583,-1.60538 3.41569,-1.60538 3.63699,0 6.51565,3.15214 6.48598,7.10216 -0.0133,1.76792 -0.36104,3.01498 -1.45709,5.225122 -0.90293,1.82071 -1.08861,1.79118 -0.29319,-0.0466 z m -24.232864,-0.59014 c -1.292501,-2.361622 -1.750584,-3.983842 -1.629858,-5.771852 0.172713,-2.55796 1.63435,-4.73759 4.015945,-5.98867 1.460573,-0.76726 3.731895,-0.75864 4.79959,0.0182 2.897671,2.10832 0.50031,6.74647 -2.461973,4.76317 -0.744841,-0.49868 -1.253314,-1.64615 -1.005556,-2.26922 0.139603,-0.35109 0.206427,-0.3248 0.386771,0.15212 0.234847,0.62105 1.227122,1.44119 1.743678,1.44119 0.51702,0 1.14502,-0.79921 1.14502,-1.45718 0,-0.93849 -0.802444,-1.50296 -2.127033,-1.49624 -1.556199,0.008 -3.060776,0.74859 -4.243519,2.08903 -1.835351,2.08008 -1.952323,4.86524 -0.349842,8.329962 0.496164,1.07276 0.854516,1.95046 0.796337,1.95046 -0.05818,0 -0.539481,-0.79244 -1.06956,-1.76098 z m -8.129425,-8.533992 c -0.231567,-0.36112 -1.455446,-1.48255 -2.719731,-2.49207 -2.727736,-2.17806 -3.41686,-2.904891 -3.945924,-4.16182 -0.616873,-1.465543 -0.502691,-3.366114 0.387905,-6.45671 0.447703,-1.553645 0.894113,-3.415339 0.992021,-4.137096 0.279667,-2.061644 0.337942,-2.131605 1.233051,-1.480331 0.468341,0.340762 0.721085,0.721197 0.633706,0.953868 -0.08006,0.213178 -0.02964,0.313962 0.112237,0.224364 0.141671,-0.08947 1.236247,0.588069 2.43239,1.505636 5.656675,4.339263 6.169866,5.714212 4.306033,11.536789 -0.543687,1.69847 -0.94125,3.41723 -0.883475,3.81946 0.155775,1.08451 -0.267453,0.63681 -0.603501,-0.63839 -0.167906,-0.63716 -0.217754,-1.75621 -0.117534,-2.63854 0.559501,-4.925842 -0.05839,-6.412436 -3.611078,-8.687943 -1.184523,-0.758691 -1.130801,-0.813123 -1.937884,1.96345 -0.73548,2.530237 -0.390671,3.855643 1.684974,6.476843 1.337658,1.68925 2.863431,4.45465 2.604034,4.7197 -0.08041,0.0822 -0.335657,-0.14608 -0.567224,-0.50721 z m -7.724018,-0.25552 c -1.271396,-0.66506 -3.11433,-2.28989 -2.874836,-2.5346 0.08673,-0.0886 0.625665,-0.15454 1.197624,-0.14648 1.005022,0.0142 2.863716,0.83928 5.139722,2.2816 0.982444,0.62259 0.997063,0.65285 0.394931,0.81753 -1.210005,0.33092 -2.743313,0.16475 -3.857441,-0.41805 z m 47.597027,0.0535 c -0.001,-0.77079 0.84671,-2.1533 2.63677,-4.29967 1.64601,-1.973648 1.83813,-2.403231 1.83813,-4.110152 0,-1.242778 -0.66213,-3.903691 -1.18753,-4.772349 -0.28254,-0.467127 -3.22754,1.820413 -3.93768,3.058607 -0.61669,1.075248 -0.66722,1.415514 -0.66857,4.502386 -8.1e-4,1.836578 -0.13779,3.823488 -0.30439,4.415348 l -0.30292,1.07612 -0.3124,-1.74869 c -0.17182,-0.96178 -0.62724,-2.821539 -1.01205,-4.132796 -0.78097,-2.6612 -0.83325,-3.285512 -0.39912,-4.766088 0.39928,-1.361745 1.46701,-2.641263 3.74359,-4.486142 1.03392,-0.837852 2.5536,-2.175189 3.37708,-2.97186 l 1.49724,-1.448493 0.26819,1.033574 c 0.1475,0.568466 0.38627,1.57836 0.53061,2.244208 0.14433,0.665848 0.45741,1.755418 0.69572,2.421266 2.09968,5.866486 1.47786,7.993448 -3.34676,11.447881 -1.14938,0.82296 -2.32044,1.88283 -2.60235,2.35526 -0.50084,0.83932 -0.51259,0.84347 -0.51356,0.18159 z m 4.37869,-0.18318 c -0.19692,-0.20121 1.80357,-1.58519 3.8393,-2.6561 0.72322,-0.38046 1.69459,-0.6533 2.32589,-0.6533 h 1.08402 l -0.81772,1.05498 c -1.09991,1.41904 -3.15092,2.44241 -4.89501,2.44241 -0.74388,0 -1.43529,-0.0846 -1.53648,-0.18799 z m -38.469044,-3.35909 c 0.90455,-3.05629 2.898343,-6.407014 3.812386,-6.407014 0.305498,0 0.06314,1.898747 -0.42153,3.302394 -0.5332,1.544211 -1.341432,2.56305 -2.521032,3.17797 l -1.054173,0.54952 z m 28.144964,0.20616 c -1.66,-0.73858 -3.4783,-4.048278 -3.22325,-5.866973 0.0804,-0.573329 0.13305,-0.55562 1.15351,0.38806 0.9627,0.890262 1.90689,2.500221 2.92423,4.986163 0.39676,0.96951 0.31849,1.01464 -0.85449,0.49275 z"
       id="path1" /></g></svg>
